<?xml version="1.0" standalone="no"?>
<!DOCTYPE svg PUBLIC "-//W3C//DTD SVG 1.1//EN" "http://www.w3.org/Graphics/SVG/1.1/DTD/svg11.dtd" >
<svg xmlns="http://www.w3.org/2000/svg" xmlns:xlink="http://www.w3.org/1999/xlink" version="1.1">
<metadata></metadata>
<defs>
<font id="vremyafwfbolditalic" horiz-adv-x="1024" >
<font-face units-per-em="2048" ascent="1638" descent="-410" />
<missing-glyph horiz-adv-x="495" />
<glyph horiz-adv-x="0" />
<glyph unicode="&#xd;" horiz-adv-x="495" />
<glyph unicode=" "  horiz-adv-x="495" />
<glyph unicode="&#x09;" horiz-adv-x="495" />
<glyph unicode="&#xa0;" horiz-adv-x="495" />
<glyph unicode="!" horiz-adv-x="796" d="M135 119q0 63 45 108t109 45q63 0 108 -45t45 -108t-45 -108.5t-108 -45.5t-108.5 45.5t-45.5 108.5zM340 428q88 459 109 729q18 238 167 238q66 0 104 -42t38 -106q0 -63 -82 -223q-164 -319 -275 -608z" />
<glyph unicode="&#x22;" horiz-adv-x="1085" d="M307 815l33 438q4 59 53 104.5t107 45.5q43 0 68.5 -31t25.5 -67q0 -29 -35 -109l-168 -381h-84zM840 815l32 438q4 59 53.5 104.5t106.5 45.5q43 0 68.5 -31t25.5 -67q0 -29 -34 -109l-168 -381h-84z" />
<glyph unicode="#" d="M6 401l21 107h194l90 340h-192l20 106h201l109 400h161l-108 -400h188l109 400h162l-109 -400h190l-20 -106h-197l-92 -340h197l-21 -107h-204l-109 -401h-162l109 401h-189l-108 -401h-162l109 401h-187zM383 508h188l93 340h-191z" />
<glyph unicode="$" horiz-adv-x="1114" d="M23 174l92 295l45 -12q8 -172 43 -242q41 -84 145 -127l150 535q-150 109 -207 184q-63 84 -64 197q0 160 113 263t297 103q47 0 68 -4l36 131h109l-41 -143q166 -37 272 -131l-82 -277l-45 12q6 29 7 68q0 190 -173 252l-124 -444q287 -205 286 -418q0 -201 -157 -318 q-135 -102 -316 -102q-31 0 -47 2l-57 -207h-109l62 219q-172 37 -303 164zM432 1106q0 -109 141 -209l113 401q-12 2 -39 2q-98 0 -156.5 -53t-58.5 -141zM449 66q129 0 201.5 66.5t72.5 184.5q0 143 -137 240z" />
<glyph unicode="%" horiz-adv-x="1705" d="M76 891q0 193 153 348q145 147 303 147q66 0 162.5 -57t196.5 -57q188 0 344 137h82l-807 -1427h-115l713 1259l-6 2q-102 -49 -236 -49q-14 0 -44.5 4t-45.5 4q4 -25 4 -53q0 -172 -102 -340q-129 -213 -340 -213q-102 0 -172 61q-90 78 -90 234zM307 807 q0 -121 103 -121q117 0 215 172q86 154 86 281q0 72 -4 86q-18 8 -62 28q-55 35 -65 35q-84 0 -183 -209q-90 -186 -90 -272zM918 297q0 158 124 317q141 182 344 183q96 0 160 -54q78 -66 78 -196q0 -164 -100 -332q-127 -209 -328 -209q-104 0 -184 70q-94 82 -94 221z M1155 221q0 -123 109 -123q106 0 202 164q88 152 88 281q0 59 -29.5 105t-76.5 46q-70 0 -141 -94q-57 -76 -107 -211q-45 -119 -45 -168z" />
<glyph unicode="&#x26;" horiz-adv-x="1593" d="M84 307q0 176 166 309q109 86 328 175q-25 172 -25 178q0 188 94 303q104 123 291 123q109 0 188 -56q90 -63 91 -174q0 -207 -373 -354q53 -256 178 -459q152 186 149 258q-2 72 -110 80v51h430v-51q-109 -16 -178 -106l-240 -310q100 -147 223 -147q80 0 154 82l55 -43 q-158 -205 -338 -205t-293 131q-168 -131 -391 -131q-182 0 -290.5 94.5t-108.5 251.5zM356 399q0 -119 70 -200q74 -92 197 -93q63 0 194 60q-156 231 -225 534q-102 -35 -166 -112q-70 -85 -70 -189zM801 1081q0 -63 24 -190q123 72 162 115q66 71 68 188q0 53 -29 93 t-80 40q-76 0 -115 -90q-31 -68 -30 -156z" />
<glyph unicode="'" horiz-adv-x="552" d="M307 815l33 438q4 61 48 105.5t112 44.5q43 0 68.5 -31t25.5 -67q0 -29 -35 -109l-168 -381h-84z" />
<glyph unicode="(" horiz-adv-x="681" d="M53 430q0 561 613 969l41 -41q-197 -135 -326 -437.5t-129 -639.5q0 -223 22 -328q27 -121 123 -293l-49 -33q-295 399 -295 803z" />
<glyph unicode=")" horiz-adv-x="681" d="M-90 -332q453 367 452 1157q0 178 -34 299q-29 102 -111 244l51 31q147 -197 217 -373q74 -197 74 -424q0 -301 -156 -541q-141 -217 -450 -436z" />
<glyph unicode="*" d="M59 772q0 78 80 119q43 23 127 25t135 26l50 25q4 8 4 12l-37 25q-37 25 -118 25.5t-118 25.5q-29 18 -28 63q0 43 28 76q43 51 105 51q27 0 45 -12q31 -23 56.5 -94.5t62.5 -96.5l36 -24l13 6l12 49q6 23 6 45q0 27 -13 74t-13 76q0 23 6 47q10 37 49 69.5t80 32.5 q80 0 80 -78q0 -47 -66 -129q-72 -92 -84 -137l-12 -49q2 0 4 -2l4 -4l49 24q49 25 109.5 95.5t111.5 95.5q25 12 49 12q82 0 82 -74q0 -78 -75 -116q-43 -23 -128 -25t-137 -26l-49 -25q0 -4 -4 -12l37 -25q37 -25 118 -24.5t120 -26.5q27 -18 26 -64q0 -43 -28 -77 q-41 -49 -103 -50q-29 0 -47 13q-31 23 -55.5 94.5t-63.5 95.5l-37 25q-2 -2 -10 -6l-14 -50q-6 -23 -6 -45q0 -29 14 -75.5t14 -75.5q0 -23 -6 -45q-10 -39 -50 -71t-81 -32q-78 0 -78 78q0 47 64 131q72 94 84 135l14 50q-2 2 -5 4t-5 2l-49 -25q-49 -25 -109.5 -94.5 t-111.5 -95.5q-23 -12 -50 -13q-84 0 -84 72z" />
<glyph unicode="+" horiz-adv-x="1155" d="M43 438l49 185h424l115 419h184q-56 -208 -115 -419h424l-49 -185h-422l-116 -428h-185l115 428h-424z" />
<glyph unicode="," horiz-adv-x="512" d="M-115 -326q90 43 160 105q82 74 82 131q0 35 -72.5 86t-72.5 125q0 70 42 110.5t109 40.5q61 0 113 -43q61 -55 61 -155q0 -145 -133 -279q-104 -104 -260 -178z" />
<glyph unicode="-" horiz-adv-x="681" d="M68 373l47 235h497l-47 -235h-497z" />
<glyph unicode="." horiz-adv-x="681" d="M45 121q0 63 45 108t109 45q63 0 108 -45t45 -108t-45 -108.5t-108 -45.5t-108.5 45.5t-45.5 108.5z" />
<glyph unicode="/" horiz-adv-x="569" d="M4 -37l397 1448h148l-397 -1448h-148z" />
<glyph unicode="0" d="M33 432q0 344 180 645q193 317 442 318q139 0 224 -117q92 -127 92 -363q0 -352 -176 -641q-186 -303 -430 -303q-162 0 -252 150q-80 129 -80 311zM244 178q0 -141 104 -141q74 0 135 110q57 102 123 338q152 541 152 695q0 88 -25 123q-20 29 -71 28q-145 0 -277 -510 q-141 -549 -141 -643z" />
<glyph unicode="1" d="M8 0v47q133 10 177 42t75 142l240 875q12 45 12 74q0 45 -29 59q-18 10 -71 10q-45 0 -121 -14v51q285 41 555 105l-311 -1145q-20 -76 -21 -111q0 -51 35 -67.5t160 -20.5v-47h-701z" />
<glyph unicode="2" d="M-57 0v51l75 76q311 311 410 430q211 258 211 426q0 98 -49 162.5t-146 64.5q-147 0 -268 -178l-49 25q174 336 451 336q147 0 243 -107q90 -98 90 -231q0 -236 -319 -508l-375 -320h297q115 0 175.5 32t113.5 132h53l-162 -391h-751z" />
<glyph unicode="3" d="M-35 139q0 45 35 79t82 34q76 0 142.5 -98.5t123.5 -98.5q98 0 166 95.5t68 248.5q0 297 -318 308l6 49q385 82 385 311q0 84 -45 133t-123 49t-137 -43q-45 -33 -106 -114l-43 28q88 131 170 193q109 80 245 80q133 0 219.5 -79t86.5 -192q0 -213 -246 -311 q170 -121 170 -299q0 -221 -183.5 -383t-418.5 -162q-100 0 -178 37q-100 47 -101 135z" />
<glyph unicode="4" d="M-31 303l62 215l872 873h135l-241 -887h137l-53 -201h-140l-84 -303h-270l84 303h-502zM113 504h411l154 563z" />
<glyph unicode="5" d="M-23 137q0 119 132 119q74 0 136 -98.5t126 -98.5q84 0 166 80q100 98 100 254q0 174 -160 279q-145 94 -325 80l266 614h588l-76 -227h-522l-68 -156q512 -68 512 -477q0 -213 -170 -371q-176 -164 -428 -164q-123 0 -200 49.5t-77 116.5z" />
<glyph unicode="6" d="M47 412q0 184 86 366q80 170 217 303q152 147 371 234q158 61 311 78l12 -52q-387 -117 -577 -503q43 33 135 32q94 0 176 -57q129 -92 129 -293q0 -229 -147.5 -389t-356.5 -160q-162 0 -256 111q-100 117 -100 330zM270 195q0 -154 117 -154q129 0 211 295 q55 203 55 305q0 143 -131 143q-49 0 -66.5 -8t-37.5 -41q-148 -329 -148 -540z" />
<glyph unicode="7" d="M104 0l674 1133h-317q-119 0 -178 -29q-68 -33 -113 -125h-59l180 385h786l-782 -1364h-191z" />
<glyph unicode="8" d="M6 311q0 270 369 385v11q-152 155 -152 319t114 266.5t281 102.5q139 0 238 -68q115 -80 115 -225q0 -125 -90 -207q-61 -57 -203 -117l2 -8q178 -178 178 -369q0 -182 -126 -306t-322 -124q-164 0 -275 80q-129 92 -129 260zM207 289q0 -117 54 -184.5t149 -67.5 q104 0 165 86q55 76 56 180q0 90 -66 189q-31 45 -135 163q-223 -149 -223 -366zM451 1141q0 -96 59 -180q31 -45 125 -136q143 107 143 293q0 211 -155 211q-76 0 -124 -56t-48 -132z" />
<glyph unicode="9" d="M-31 25q195 66 347.5 197.5t222.5 299.5q-53 -27 -136 -26q-111 0 -192 71q-104 90 -105 267q0 207 136 376q147 184 362 185q188 0 283 -131q82 -115 82 -308q0 -328 -248 -608q-281 -319 -741 -375zM362 727q0 -147 132 -147q80 0 106 55q141 295 141 547 q0 147 -106 147q-121 0 -201 -244q-72 -219 -72 -358z" />
<glyph unicode=":" horiz-adv-x="681" d="M109 121q0 63 45 108t108 45t108.5 -45t45.5 -108t-45 -108.5t-109 -45.5q-63 0 -108 45.5t-45 108.5zM295 784q0 63 45 108.5t109 45.5q63 0 108 -45t45 -109q0 -63 -45 -108t-108 -45t-108.5 45t-45.5 108z" />
<glyph unicode=";" horiz-adv-x="681" d="M-2 -326q90 43 160 105q82 74 82 131q0 35 -73 86t-73 125q0 70 42 110.5t110 40.5q61 0 112 -43q61 -55 62 -155q0 -145 -133 -279q-104 -104 -260 -178zM295 784q0 63 45 108.5t109 45.5q63 0 108 -45t45 -109q0 -63 -45 -108t-108 -45t-108.5 45t-45.5 108z" />
<glyph unicode="&#x3c;" horiz-adv-x="1167" d="M43 440l41 156l1163 457l-49 -181l-901 -354l713 -354l-49 -180z" />
<glyph unicode="=" horiz-adv-x="1167" d="M-10 238l49 184h1032l-49 -184h-1032zM96 637l49 184h1033l-50 -184h-1032z" />
<glyph unicode="&#x3e;" horiz-adv-x="1167" d="M-80 -16l49 180l901 354l-712 354l49 181l917 -457l-41 -156z" />
<glyph unicode="?" d="M219 125q0 63 45 108.5t109 45.5q63 0 108 -45.5t45 -108.5t-45 -108.5t-108 -45.5t-108.5 45.5t-45.5 108.5zM303 1135q0 113 100.5 186.5t255.5 73.5q207 0 302 -117q61 -76 61 -174q0 -119 -82 -209q-49 -55 -190 -152q-84 -55 -170 -112q-78 -68 -117 -207l-62 20 q0 61 52 168q57 117 143 209q168 182 168 346q0 160 -143 160q-37 0 -78 -18q-49 -23 -49 -54q0 -14 30.5 -54t30.5 -87t-31 -80q-35 -39 -90 -39q-53 0 -92 35t-39 105z" />
<glyph unicode="@" horiz-adv-x="1792" d="M133 649q0 324 264 549q254 217 600 217q293 0 489.5 -164t196.5 -420q0 -207 -131 -374q-137 -174 -317 -174q-94 0 -152 53q-47 41 -49 94q-14 -43 -82 -92q-82 -59 -164 -59q-90 0 -170 65q-102 86 -102 238q0 156 125 303q133 158 299 157q138 1 199 -110l24 80h228 l-156 -508q-12 -41 -12 -72q0 -59 77 -59q109 0 200 147.5t91 310.5q0 180 -137 320q-158 160 -418 160q-326 0 -536 -215q-188 -195 -189 -445q0 -279 183 -442q174 -160 452 -160q252 0 512 158l43 -68q-313 -182 -583 -182q-330 0 -557.5 197.5t-227.5 494.5zM743 506 q0 -131 93 -131q115 0 192 221q57 162 57 240q0 113 -86 112q-111 0 -192 -203q-63 -156 -64 -239z" />
<glyph unicode="A" horiz-adv-x="1394" d="M-102 0v51q68 18 100 49q27 27 84 115l747 1180h54l202 -1211q12 -80 42 -101.5t120 -31.5v-51h-626v51q100 8 135 39q26 24 26 72q0 23 -14 119l-23 147h-421l-131 -217q-25 -41 -25 -86q0 -41 31 -55q18 -8 102 -19v-51h-403zM373 510h360l-74 477z" />
<glyph unicode="B" horiz-adv-x="1271" d="M-51 0v51q76 4 114 47q29 35 56 131l252 920q12 45 12 80q0 57 -45 76q-14 4 -102 14v51h561q475 0 475 -299q0 -147 -115 -233q-84 -66 -262 -113q270 -82 270 -299q0 -178 -127 -291q-152 -135 -448 -135h-641zM408 141q0 -41 24.5 -57t97.5 -16q135 0 226 100 q98 111 98 295q0 135 -82 182q-57 35 -221 45l-123 -446q-20 -74 -20 -103zM567 756h22q379 0 380 342q0 202 -172 202h-2q-51 0 -70.5 -20t-42.5 -102z" />
<glyph unicode="C" horiz-adv-x="1380" d="M61 504q0 340 228 610q244 293 606 293q88 0 210 -27.5t140 -27.5q49 0 74 55h61l-98 -481l-68 14q4 35 5 80q0 137 -66 223q-72 96 -201 96q-236 0 -413 -297q-166 -276 -166 -587q0 -379 319 -379q119 0 238 71q106 66 186 170l62 -49q-88 -137 -240 -221t-315 -84 q-217 0 -371 117q-190 145 -191 424z" />
<glyph unicode="D" horiz-adv-x="1478" d="M-94 0v51q76 18 98 33q43 31 66 115l247 915q25 90 25 115q0 59 -45 76q-18 8 -102 14v51h591q291 0 454 -147.5t163 -421.5q0 -301 -211 -529q-254 -272 -700 -272h-586zM480 70h3q303 0 473 284q143 240 144 572q0 379 -330 379q-97 0 -117 -78l-264 -969 q-24 -87 -24 -115q0 -73 115 -73z" />
<glyph unicode="E" horiz-adv-x="1337" d="M-51 0v51q82 16 106 37q35 27 58 109l254 933q18 68 18 101q0 51 -27 65q-16 6 -118 23v51h1097l-88 -393l-51 10q0 158 -61 227q-78 90 -287 91q-92 0 -115.5 -19.5t-52.5 -120.5l-113 -407q233 14 292 45t136 178l52 -10l-156 -561l-51 10q4 31 4 88q0 127 -90 164 q-37 14 -201 22l-133 -481q-18 -68 -19 -84q0 -66 132 -66q438 0 614 347l51 -11l-119 -399h-1132z" />
<glyph unicode="F" horiz-adv-x="1337" d="M-51 0v51q82 16 106 37q35 27 58 109l254 933q18 68 18 101q0 51 -27 65q-16 6 -118 23v51h1097l-88 -393l-51 10q0 158 -61 227q-78 90 -287 91q-92 0 -115.5 -19.5t-52.5 -120.5l-113 -407q233 14 292 45t136 178l52 -10l-156 -561l-51 10q4 31 4 88q0 127 -90 164 q-37 14 -201 22l-133 -481q-16 -59 -16 -82q0 -72 147 -80v-51h-604z" />
<glyph unicode="G" horiz-adv-x="1478" d="M43 524q0 315 203 572q244 307 659 307q135 0 236.5 -31t105.5 -31q49 0 80 62h62l-103 -453l-59 8q0 371 -289 371q-236 0 -410 -291q-166 -272 -166 -592q0 -405 332 -405h2q193 0 236 162l72 274q6 23 6 60q0 51 -33 65q-23 12 -117 21v53h584v-53q-80 -6 -105.5 -34 t-54.5 -134l-98 -371q-272 -123 -512 -123q-281 0 -451 145q-180 154 -180 418z" />
<glyph unicode="H" horiz-adv-x="1576" d="M-51 0v51q92 14 125 53q25 29 53 138l244 901q14 53 14 100q0 41 -29.5 54.5t-117.5 21.5v51h649v-51q-121 -14 -151.5 -40t-61.5 -140l-103 -375h478l102 379q14 53 14 100q0 72 -147 76v51h610v-51q-82 -12 -110 -41q-35 -31 -64 -139l-244 -895q-18 -68 -18 -105 q0 -49 22 -61q25 -18 125 -27v-51h-649v51q127 18 158 49q29 25 59 142l117 430h-477l-117 -428q-22 -80 -22 -105q0 -55 53 -73q25 -10 100 -15v-51h-612z" />
<glyph unicode="I" horiz-adv-x="796" d="M-51 0v51q88 14 118.5 48t59.5 143l244 901q14 53 14 100q0 39 -29.5 53.5t-117.5 22.5v51h604v-51q-86 -12 -117 -49q-23 -29 -51 -131l-244 -895q-18 -68 -18 -105q0 -57 49 -73q8 -2 100 -15v-51h-612z" />
<glyph unicode="J" horiz-adv-x="1034" d="M-92 10q0 53 37 94t96 41q53 0 92 -34.5t39 -85.5q0 -41 -25.5 -77t-25.5 -50q0 -33 47 -33q96 0 145 178l299 1100q14 53 15 92q0 55 -47 70q-49 8 -101 14v51h606v-51q-84 -16 -113.5 -46t-58.5 -130l-264 -953q-61 -219 -170 -313q-100 -84 -266 -84q-147 0 -231 68 q-74 59 -74 149z" />
<glyph unicode="K" horiz-adv-x="1382" d="M-51 0v51q78 6 117 49q31 35 53 121l246 903q20 76 20 111q0 45 -29 59q-18 10 -118 25v51h636v-51q-109 -16 -137 -41q-35 -29 -65 -145l-113 -418h6l430 387q115 102 115 162q0 25 -16 34q-23 12 -95 21v51h431v-51q-96 -12 -166 -76l-467 -428l301 -653 q31 -68 54.5 -87.5t88.5 -23.5v-51h-567v51q82 6 106.5 19.5t24.5 42.5q0 18 -19 59l-227 496h-14l-129 -482q-6 -23 -6 -45q0 -51 34 -69q23 -12 101 -21v-51h-596z" />
<glyph unicode="L" horiz-adv-x="1337" d="M-51 0v51q82 16 106 37q35 27 58 109l254 933q18 68 18 101q0 51 -27 65q-16 6 -118 23v51h647v-51q-115 -12 -147.5 -37t-57.5 -117l-260 -952q-18 -68 -19 -84q0 -66 132 -66q438 0 614 347l51 -11l-119 -399h-1132z" />
<glyph unicode="M" horiz-adv-x="1828" d="M-51 0v51q76 14 106 51q45 49 88 211l244 895q4 14 4 47q0 43 -55 56q-8 2 -90 8v51h463l116 -967l625 967h430v-51q-86 -12 -121 -53q-25 -31 -51 -125l-248 -912q-14 -53 -14 -90q0 -51 27.5 -65.5t121.5 -22.5v-51h-639v51q119 16 150 40t59 130l248 912l-762 -1162 h-57l-143 1127l-224 -828q-14 -53 -14 -96q0 -115 166 -123v-51h-430z" />
<glyph unicode="N" horiz-adv-x="1480" d="M-51 0v51q72 12 107.5 51t66.5 148l266 958q-43 104 -168 111v51h410l448 -950l162 604q31 115 31 172q0 66 -37 90q-29 18 -121 33v51h418v-51q-68 -8 -105.5 -49t-68.5 -150l-318 -1159h-53l-534 1133l-224 -828q-16 -61 -16 -86q0 -68 36 -94.5t130 -34.5v-51h-430z " />
<glyph unicode="O" horiz-adv-x="1480" d="M61 459q0 346 258 643q264 305 596 305q223 0 363.5 -133t140.5 -361q0 -346 -254 -641q-266 -309 -608 -309q-205 0 -340 119q-156 133 -156 377zM356 317q0 -282 202 -282h1q188 0 332 237q111 182 182 471q53 225 53 342q0 104 -47 172q-55 82 -164 82 q-174 0 -315 -223q-111 -176 -184 -452q-60 -224 -60 -347z" />
<glyph unicode="P" horiz-adv-x="1249" d="M-51 0v51q76 12 108.5 39t55.5 109l252 934q22 80 22 97q0 50 -41 68q-27 12 -106 21v51h614q172 0 281 -76q120 -83 120 -231q0 -197 -152.5 -305.5t-408.5 -108.5q-61 0 -159 8l-115 -415q-16 -59 -17 -103q0 -59 46 -76q20 -8 102 -12v-51h-602zM553 727q43 -6 78 -6 q141 0 215 70q37 35 69 112q41 100 41 207q0 193 -172 193q-51 0 -73 -27q-10 -14 -23 -59z" />
<glyph unicode="Q" horiz-adv-x="1480" d="M61 459q0 346 258 643q264 305 596 305q223 0 363.5 -133t140.5 -361q0 -346 -254 -641q-266 -309 -608 -309q-25 0 -37 2q-18 -20 -71 -74q-20 -20 -21 -28q0 -8 16 -8q166 0 323 -45.5t222 -45.5q100 0 180 46q45 27 134 106l45 -43q-199 -293 -521 -293 q-125 0 -276.5 44t-235.5 44q-90 0 -221 -53l-31 53q190 152 379 307q-166 33 -266 148q-115 129 -115 336zM356 317q0 -282 202 -282h1q188 0 332 237q111 182 182 471q53 225 53 342q0 104 -47 172q-55 82 -164 82q-174 0 -315 -223q-111 -176 -184 -452 q-60 -224 -60 -347z" />
<glyph unicode="R" horiz-adv-x="1366" d="M-59 0v51q74 10 102 33q39 31 61 115l246 905q27 98 27 129q0 55 -47 72q-5 0 -101 14v51h572q217 0 327 -55q143 -70 144 -240q0 -129 -88 -225q-102 -111 -303 -145l170 -504q31 -92 69 -121q29 -20 111 -29v-51h-416l-219 678h-55l-107 -391q-33 -121 -33 -146 q0 -49 33 -65q27 -14 119 -25v-51h-612zM565 748q209 2 303 96q41 41 67 118.5t26 147.5q0 193 -179 193q-47 0 -65.5 -19t-30.5 -70z" />
<glyph unicode="S" horiz-adv-x="1138" d="M12 -31l72 463l61 -6q-1 -14 -1 -27q0 -145 81 -249q88 -112 242 -113q127 0 197 92q55 72 55 158q0 96 -119 219q-18 18 -217 192q-170 150 -170 312q0 147 104 264q121 133 316 133q90 0 181 -28.5t120 -28.5q61 0 84 49h63l-84 -408l-57 8q-6 141 -68 232 q-73 108 -202 108h-2q-94 0 -151.5 -65.5t-57.5 -151.5q0 -82 57 -147q29 -33 172 -146q274 -217 275 -438q0 -164 -117 -287q-133 -141 -357 -141q-111 0 -217 38t-116 38q-35 0 -52 -19q-8 -8 -26 -51h-66z" />
<glyph unicode="T" horiz-adv-x="1333" d="M106 0v51q117 2 156 39q29 29 62 146l292 1064q-287 0 -436 -288l-57 8l82 350h1128l-73 -393l-58 8q0 313 -282 315l-283 -1030q-25 -90 -25 -131q0 -49 30 -64.5t142 -23.5v-51h-678z" />
<glyph unicode="U" horiz-adv-x="1484" d="M158 315q0 96 37 228l145 518q39 139 39 172q0 47 -26.5 61.5t-121.5 24.5v51h627v-51q-92 -6 -129 -31.5t-61 -113.5l-168 -617q-55 -203 -56 -270q0 -209 250 -209q182 0 291 168q70 106 131 332l139 514q20 76 21 110q0 109 -166 117v51h426v-51q-84 -18 -113 -59 q-39 -53 -94 -254l-129 -467q-80 -287 -174 -404q-141 -172 -418 -172q-182 0 -307 84q-143 96 -143 268z" />
<glyph unicode="V" horiz-adv-x="1433" d="M154 1319v51h612v-51q-94 -4 -126 -23.5t-32 -66.5q0 -20 13 -115l96 -735l430 688q74 119 74 182q0 39 -21.5 50.5t-109.5 19.5v51h395v-51q-68 -23 -105 -66q-18 -20 -92 -137l-729 -1157h-67l-168 1139q-20 143 -46 175t-124 46z" />
<glyph unicode="W" horiz-adv-x="1888" d="M154 1319v51h573v-51q-63 -8 -88 -25q-35 -23 -35 -82q0 -20 8 -92l74 -641l297 629q-16 139 -37.5 168t-109.5 43v51h548v-51q-76 -6 -100 -23q-29 -23 -29 -86q0 -37 13 -143l67 -588l316 654q30 61 30 101q0 52 -25.5 66.5t-103.5 18.5v51h387v-51q-53 -6 -88 -33 q-43 -35 -88 -127l-575 -1196h-66l-121 993l-469 -993h-61l-160 1186q-14 109 -35.5 131.5t-121.5 38.5z" />
<glyph unicode="X" horiz-adv-x="1366" d="M-51 0v51q102 18 256 187l360 393l-164 530q-29 92 -59.5 117t-134.5 41v51h624v-51q-100 -14 -114 -19q-37 -14 -37 -63q0 -27 12 -68l94 -309l295 318q39 41 39 82q0 31 -24.5 42t-89.5 17v51h413v-51q-90 -12 -180 -107l-424 -440l172 -553q29 -90 71 -121.5 t142 -46.5v-51h-633v51q76 6 105 19q39 18 39 63q0 33 -11 66l-102 336l-303 -336q-31 -35 -31 -66q0 -70 131 -82v-51h-446z" />
<glyph unicode="Y" horiz-adv-x="1298" d="M154 0v51q102 16 129 31q51 29 75 117l123 442l-178 549q-27 82 -51 102q-20 14 -98 27v51h573v-51q-66 0 -92 -8q-47 -16 -47 -66q0 -35 16 -86l139 -432l267 377q53 76 53 131q0 84 -137 84v51h424v-51q-98 -18 -185 -141l-385 -547l-104 -391q-18 -70 -19 -99 q0 -49 31 -65.5t127 -24.5v-51h-661z" />
<glyph unicode="Z" horiz-adv-x="1251" d="M-23 0v61l879 1242h-151q-188 0 -324 -99q-82 -59 -197 -209l-51 11l115 364h956v-59l-880 -1241h143q182 0 307 53q186 78 307 287l52 -11l-119 -399h-1037z" />
<glyph unicode="[" horiz-adv-x="681" d="M-96 -303l465 1706h409l-20 -74h-135q-53 0 -63.5 -13t-33.5 -99l-366 -1350q-8 -31 -8 -57q0 -41 67 -41h162l-21 -72h-456z" />
<glyph unicode="\" horiz-adv-x="942" d="M2 1397h188l762 -1397h-188z" />
<glyph unicode="]" horiz-adv-x="681" d="M-92 -303l20 74h135q53 0 66 16q8 10 31 96l366 1350q8 31 9 57q0 41 -68 41h-162l21 72h456l-465 -1706h-409z" />
<glyph unicode="^" horiz-adv-x="1202" d="M104 530l631 826h207l191 -826h-209l-142 613l-469 -613h-209z" />
<glyph unicode="_" d="M-4 -117h1083v-151h-1083v151z" />
<glyph unicode="`" horiz-adv-x="821" d="M236 1339q0 86 94 86q61 0 125 -84l215 -286h-95l-251 168q-88 59 -88 116z" />
<glyph unicode="a" horiz-adv-x="1150" d="M51 244q0 227 178 463q185 243 383 243h2q66 0 98.5 -28.5t51.5 -100.5h8l23 97l217 18l-191 -711q-10 -39 -10 -61q0 -49 29 -49q49 0 139 151l49 -33q-180 -262 -309 -262q-55 0 -96 37q-39 35 -39 92v6q0 43 20 119q-145 -254 -325 -254q-102 0 -165 73t-63 200z M305 244q0 -49 21 -86q27 -43 69 -43q104 0 217 252q107 233 107 387q0 114 -81 114h-1q-109 0 -227 -262q-104 -233 -105 -362z" />
<glyph unicode="b" horiz-adv-x="1038" d="M45 98q0 33 16 92l267 969q16 59 16 96q0 39 -35 52q-24 8 -94 8v53q250 27 432 62l-180 -650q129 174 291 174q100 0 162 -67q67 -73 67 -201q0 -266 -204.5 -489.5t-458.5 -223.5q-111 0 -199 47q-80 41 -80 78zM291 106q0 -59 63 -59q156 0 271 248q96 207 96 377 q0 139 -94 139q-92 0 -178 -176q-63 -129 -117 -332q-41 -160 -41 -197z" />
<glyph unicode="c" horiz-adv-x="917" d="M51 297q0 225 174 432q184 221 414 221q109 0 172 -57q55 -51 55 -123q0 -53 -26 -94q-35 -55 -99 -55q-49 0 -83.5 32.5t-34.5 79.5q0 41 22.5 72t22.5 45q0 35 -52 35q-119 0 -219 -242q-86 -203 -86 -334q0 -203 156 -203q111 0 250 187l55 -37q-180 -285 -416 -285 q-125 0 -211 82q-94 90 -94 244z" />
<glyph unicode="d" horiz-adv-x="1161" d="M0 0zM61 244q0 227 181 463q185 243 383 243h2q92 0 141 -67l84 309q8 31 8 68q0 55 -129 55v53q39 0 211 24.5t221 37.5l-332 -1205q-10 -37 -10 -61q0 -49 29 -49q49 0 139 151l49 -33q-180 -262 -309 -262q-55 0 -96 37q-39 35 -39 92v6q0 43 20 119 q-145 -254 -325 -254q-102 0 -165 73t-63 200zM315 244q0 -49 21 -86q27 -43 70 -43q104 0 217 252q106 233 106 387q0 114 -81 114h-1q-109 0 -227 -262q-104 -233 -105 -362z" />
<glyph unicode="e" horiz-adv-x="925" d="M59 295q0 231 177 438q184 217 409 217q88 0 150 -41q67 -48 67 -131q0 -160 -178 -276q-154 -102 -354 -127q-12 -41 -13 -101q0 -168 142 -168q70 0 143 68q57 53 96 123l60 -35q-158 -291 -393 -291q-139 0 -222.5 90.5t-83.5 233.5zM346 444q156 29 250 146 q78 100 78 209q0 86 -60 86q-92 0 -178 -183q-55 -119 -90 -258z" />
<glyph unicode="f" horiz-adv-x="686" d="M-346 -246q0 49 32.5 80t71.5 31q37 0 66 -25q37 -29 37 -78q0 -27 -17 -56l-16 -28q0 -25 33 -24q96 0 153 250l213 930h-147l18 86h150q55 223 168 358q127 152 291 152q119 0 172 -62q36 -40 36 -93q0 -118 -108 -118q-35 0 -65.5 27.5t-30.5 70.5q0 23 15 52.5 t15 31.5q0 27 -32 27q-63 0 -121 -121q-39 -80 -64 -180l-35 -145h183l-19 -86h-184l-154 -662q-135 -582 -462 -582q-84 0 -141.5 44t-57.5 120zM0 0z" />
<glyph unicode="g" horiz-adv-x="1015" d="M-20 -59q45 29 180 73q-119 39 -119 140q0 51 49 98q41 37 148 96q-164 61 -164 236q0 129 112 239q129 127 328 127q160 0 250 -71h221v-115h-141q12 -39 12 -90q0 -166 -129 -266q-121 -94 -307 -95q-41 0 -74 6.5t-43 6.5q-18 0 -34.5 -23.5t-16.5 -42.5 q0 -49 104 -80l150 -45q121 -37 176 -76q92 -66 92 -172q0 -125 -127 -209q-133 -88 -350 -88q-170 0 -277 50q-124 57 -124 163q0 84 84 138zM2 0zM78 -186q0 -66 55 -107q66 -49 189 -49q86 0 149 31q80 39 80 110q0 84 -129 125l-186 60q-35 -6 -86 -47q-72 -55 -72 -123 zM315 502q0 -123 97 -123q86 0 149 151q53 123 53 224q0 129 -92 129q-98 0 -160 -166q-47 -123 -47 -215z" />
<glyph unicode="h" horiz-adv-x="1118" d="M-14 0l319 1178q12 45 12 86q0 51 -129 51v53q104 6 433 62l-218 -812q217 332 406 332q160 0 160 -157q0 -57 -19 -115l-141 -440q-23 -70 -23 -84q0 -33 33 -33q31 0 144 160l43 -29q-147 -274 -314 -275q-147 0 -147 140q0 66 22 139l129 422q20 68 21 84q0 37 -47 37 q-78 0 -187 -158q-94 -135 -145 -281q-47 -137 -109 -360h-243z" />
<glyph unicode="i" horiz-adv-x="653" d="M53 121q0 39 21 115l123 450q22 79 22 89q0 42 -45 54q-14 6 -78 11v53q199 18 418 57l-199 -721q-10 -37 -10 -65q0 -43 29 -43q31 0 86 65q45 55 72 109l49 -33q-181 -282 -337 -282h-1q-150 0 -150 141zM315 1260q0 57 41 98t99 41q57 0 98 -41t41 -98t-41 -98.5 t-98 -41.5t-98.5 41.5t-41.5 98.5z" />
<glyph unicode="j" horiz-adv-x="569" d="M-336 -250q0 113 105 113q49 0 77 -35q23 -31 23 -72q0 -33 -14.5 -52t-14.5 -23q0 -25 41 -25q80 0 127 172l234 856q12 45 12 92q0 35 -20.5 46.5t-104.5 17.5v55q166 8 420 55l-225 -860q-131 -500 -441 -500q-92 0 -155.5 44t-63.5 116zM352 1260q0 57 40 97t97 40 t97.5 -40t40.5 -97t-40 -97.5t-98 -40.5q-57 0 -97 40t-40 98z" />
<glyph unicode="k" horiz-adv-x="1073" d="M-14 0l319 1178q12 45 12 86q0 51 -129 51v53q104 6 433 62l-256 -938q337 241 337 325q0 43 -106 51v52h424v-52q-76 -2 -191 -88q-59 -45 -215 -184q33 -152 66 -303q45 -168 96 -168q63 0 127 137l47 -24q-137 -258 -272 -258h-1q-200 0 -259 460q-53 -37 -84 -57 l-105 -383h-243zM0 0z" />
<glyph unicode="l" horiz-adv-x="649" d="M53 121q0 41 21 115l256 929q14 51 14 90q0 43 -47 56q-18 4 -82 4v53q182 16 432 62l-332 -1201q-10 -37 -10 -65q0 -43 29 -43q31 0 86 65q45 55 72 109l49 -33q-181 -282 -337 -282h-1q-150 0 -150 141z" />
<glyph unicode="m" horiz-adv-x="1585" d="M-14 0l192 700q14 51 15 78q0 37 -35 47q-4 3 -76 11v55q92 4 229.5 24.5t169.5 32.5l6 -6l-118 -375l4 -10q121 195 188 264q117 125 244 125q55 0 94 -38t39 -91q0 -66 -39 -192v-9q121 178 166 226q100 104 213 104q156 0 156 -155q0 -57 -33 -160l-127 -398 q-18 -57 -19 -75q0 -41 31 -41q25 0 74 59q43 51 70 100l43 -28q-156 -272 -316 -273q-66 0 -105.5 39t-39.5 97q0 72 24 159l109 385q22 77 22 101q0 41 -39 41q-66 0 -156.5 -141.5t-152.5 -342.5l-94 -313h-246l178 664q20 76 21 88q0 45 -37 45q-72 0 -174 -170 q-96 -156 -150 -336l-86 -291h-245z" />
<glyph unicode="n" horiz-adv-x="1118" d="M-14 0l188 696q16 61 16 86q0 53 -108 56v55q119 6 405 55l-122 -379l6 2q109 164 182 242q131 137 256 137q160 0 160 -157q0 -57 -19 -115l-141 -440q-23 -70 -23 -84q0 -33 33 -33q31 0 144 160l43 -29q-147 -274 -314 -275q-147 0 -147 140q0 66 22 139l129 422 q20 68 21 84q0 37 -47 37q-78 0 -187 -158q-94 -135 -145 -281q-47 -137 -109 -360h-243z" />
<glyph unicode="o" horiz-adv-x="1015" d="M51 301q0 219 164 424q180 225 422 225q127 0 215 -67q113 -88 113 -258q0 -242 -178.5 -448t-403.5 -206q-100 0 -184 49q-147 82 -148 281zM295 183q0 -146 108 -146q131 0 236 301q84 248 84 416q0 133 -100 133q-141 0 -244 -295q-84 -238 -84 -409z" />
<glyph unicode="p" horiz-adv-x="997" d="M-217 -356q76 14 92 24q27 16 43 80l254 930q20 76 21 104q0 59 -84 59q-13 0 -27 -1v55q137 12 393 55l-69 -209l4 -4q160 213 309 213q113 0 170 -84q47 -70 47 -176q0 -238 -170 -473q-178 -246 -383 -246q-74 0 -147 54l-66 -261q-8 -33 -8 -53q0 -33 22.5 -45 t110.5 -22v-54h-512v54zM240 133q0 -86 88 -86q123 0 235 279q92 233 92 364q0 119 -77 119q-59 0 -126 -77.5t-100 -192.5l-94 -324q-18 -63 -18 -82z" />
<glyph unicode="q" horiz-adv-x="1099" d="M51 254q0 217 178 453q183 243 375 243h2q72 0 105.5 -27.5t52.5 -99.5l24 97h220l-312 -1137q-16 -59 -16 -80q0 -59 129 -59v-54h-543v50q98 14 137 45q27 20 39 65l125 443q-137 -222 -291 -222q-113 0 -172 84q-53 76 -53 199zM305 244q0 -49 21 -86q27 -43 69 -43 q104 0 219 254q105 235 105 391q0 108 -79 108h-1q-111 0 -227 -260q-106 -231 -107 -364z" />
<glyph unicode="r" horiz-adv-x="819" d="M-14 0l188 696q16 61 16 86q0 53 -108 56v55q119 6 405 55l-122 -379l6 2q74 121 147 242q98 137 191 137q49 0 82.5 -42t33.5 -91q0 -41 -24 -88q-37 -63 -99 -63q-45 0 -80.5 38.5t-41.5 38.5q-31 0 -115 -131t-127 -252q-47 -137 -109 -360h-243zM0 0z" />
<glyph unicode="s" horiz-adv-x="796" d="M33 -25l47 344l55 -6v-7q0 -96 55 -177q61 -90 142 -90q45 0 78.5 31.5t33.5 81.5q0 82 -135 239q-149 175 -149 314q0 86 63 157q80 88 219 88q55 0 121 -23.5t80 -23.5q35 0 53 41h56l-50 -315l-53 6q-8 94 -47 164q-51 86 -133 86q-39 0 -71.5 -28t-32.5 -69 q0 -76 120 -223q156 -188 156 -317q0 -121 -96 -201q-88 -76 -207 -76q-45 0 -115.5 24.5t-81.5 24.5q-37 0 -53 -45h-55z" />
<glyph unicode="t" horiz-adv-x="663" d="M53 119q0 43 31 153l156 562h-103v75q102 43 166 86q119 82 209 224h76l-82 -299h149v-86h-172l-172 -637q-8 -31 -8 -41q0 -35 35 -35q25 0 84 67q45 53 74 101l45 -29q-82 -129 -140 -184q-96 -96 -200 -96q-68 0 -108 38.5t-40 100.5z" />
<glyph unicode="u" horiz-adv-x="1150" d="M47 137q0 57 19 125l114 416q16 59 17 84q0 39 -20.5 50t-94.5 19v56q70 4 432 57l-199 -655q-22 -71 -22 -106q0 -56 47 -56q51 0 139 113q72 90 103 159q96 217 182 521h242l-185 -680q-16 -61 -16 -76q0 -45 35 -45q55 0 145 155l43 -28q-57 -109 -143 -185 q-102 -90 -197 -90q-137 0 -137 150q0 63 47 184l-6 8q-121 -174 -162 -219q-113 -123 -223 -123q-61 0 -105 35q-55 43 -55 131z" />
<glyph unicode="v" horiz-adv-x="884" d="M31 836v55q156 20 323 59q59 -119 60 -684q256 274 256 381q0 25 -44 80t-44 102t31.5 82t80.5 35q55 0 92 -44t37 -99q0 -137 -176 -377q-164 -223 -424 -459h-53q8 242 8 377q0 438 -67 473q-35 18 -80 19z" />
<glyph unicode="w" horiz-adv-x="1314" d="M31 836v55q156 20 323 59q45 -92 62 -551l311 551h59q20 -186 62 -678q252 270 252 375q0 25 -44 80t-44 102t31.5 82t80.5 35q55 0 92 -44t37 -99q0 -229 -563 -836h-51q-14 213 -47 584q-39 -78 -88 -164q-117 -207 -262 -420h-54q6 41 7 176q0 182 -21 396 q-27 260 -62.5 278.5t-80.5 18.5z" />
<glyph unicode="x" horiz-adv-x="993" d="M-61 102q0 53 34.5 84t73.5 31q35 0 76 -21.5t63 -21.5q33 0 76 64q51 82 100 163l-67 338q-20 104 -117 105q-27 0 -57 -6v57q6 0 334 55q45 -39 92 -278q94 127 143 180q98 98 178 98q125 0 125 -116q0 -47 -33.5 -81t-80.5 -34q-33 0 -69 22.5t-58 22.5 q-61 0 -183 -201q25 -131 78 -364q20 -68 68 -68q49 0 137 121l49 -33q-180 -248 -305 -248q-86 0 -135 86q-39 68 -76 236q-88 -160 -133 -215q-86 -106 -178 -107q-55 0 -95 38t-40 93z" />
<glyph unicode="y" horiz-adv-x="872" d="M-188 -287q0 55 41 88q31 25 67 25q49 0 110.5 -35t75.5 -35q74 0 142 92q49 68 49 144q0 80 -55 352q-43 211 -72 321.5t-43 135.5q-28 43 -90 43h-6v57q72 8 307 49q45 -131 100 -377q50 -233 62 -348q176 315 176 426q0 29 -57.5 72t-57.5 106q0 53 35 87t86 34 q49 0 86 -32q43 -39 43 -109q0 -180 -246 -614q-342 -604 -616 -605q-55 0 -96 35t-41 88z" />
<glyph unicode="z" horiz-adv-x="788" d="M-98 -33q0 16 18 39l602 717h-309q-82 0 -129 -125l-57 6l88 316h639v-23l-574 -684q84 -27 150 -109q6 -8 90 -137q44 -67 79 -67h1q37 0 37 30q0 12 -19.5 41t-19.5 64q0 37 32.5 67.5t73.5 30.5q43 0 75 -30.5t32 -82.5q0 -66 -52 -118q-63 -63 -170 -64 q-111 0 -245.5 85t-180.5 85q-31 0 -100 -55q-18 -14 -29 -14q-33 0 -32 28z" />
<glyph unicode="{" horiz-adv-x="716" d="M-6 512q231 61 287 123q59 70 108 344q49 268 234 358q106 53 303 54l-8 -54q-266 0 -336 -417q-33 -199 -103 -281q-57 -68 -145 -98q-33 -10 -129 -29q238 -23 237 -221q0 -35 -34.5 -186.5t-34.5 -221.5q0 -182 196 -200l-10 -50q-129 0 -221 35q-166 63 -166 223 q0 53 39 237.5t39 203.5q0 86 -100 133q-16 8 -156 47zM0 0z" />
<glyph unicode="|" horiz-adv-x="450" d="M158 -399v1874h151v-1874h-151z" />
<glyph unicode="}" horiz-adv-x="716" d="M-254 -367l8 54q266 0 336 417q33 199 103 281q57 68 145 98q33 10 129 29q-238 23 -238 221q0 35 35 186.5t35 221.5q0 182 -197 200l11 50q129 0 221 -35q166 -63 166 -223q0 -53 -39 -237.5t-39 -203.5q0 -86 100 -133q16 -8 156 -47q-231 -61 -287 -123 q-59 -70 -108.5 -341t-233.5 -361q-106 -53 -303 -54z" />
<glyph unicode="~" d="M152 385q55 260 243 260q70 0 174.5 -51t135.5 -51q70 0 106 100h92q-39 -131 -88 -190q-59 -68 -160 -68q-70 0 -175 51t-140 51q-66 0 -100 -102h-88z" />
<glyph unicode="&#xa0;" horiz-adv-x="1382" d="M-51 0v51q78 6 117 49q31 35 53 121l246 903q20 76 20 111q0 45 -29 59q-18 10 -118 25v51h636v-51q-109 -16 -137 -41q-35 -29 -65 -145l-113 -418h6l430 387q115 102 115 162q0 25 -16 34q-23 12 -95 21v51h431v-51q-96 -12 -166 -76l-467 -428l301 -653 q31 -68 54.5 -87.5t88.5 -23.5v-51h-567v51q82 6 106.5 19.5t24.5 42.5q0 18 -19 59l-227 496h-14l-129 -482q-6 -23 -6 -45q0 -51 34 -69q23 -12 101 -21v-51h-596z" />
<glyph unicode="&#xa1;" horiz-adv-x="1296" d="M-51 0v51q88 14 118.5 48t59.5 143l244 901q14 53 14 100q0 39 -29.5 53.5t-117.5 22.5v51h1058l-36 -418h-54q-18 166 -63 238q-76 117 -256 117q-168 0 -209 -154l-105 -397h66q195 0 324 -51q207 -84 206 -287q0 -170 -127 -283q-154 -135 -448 -135h-645zM412 139 q0 -72 123 -71q147 0 237 116q86 109 86 273q0 131 -70 182q-61 43 -233 51l-137 -502q-6 -23 -6 -49z" />
<glyph unicode="&#xa2;" horiz-adv-x="909" d="M-188 -287q0 55 41 88q31 25 67 25q49 0 110.5 -35t75.5 -35q74 0 142 92q49 68 49 144q0 80 -55 352q-43 211 -72 321.5t-43 135.5q-29 45 -96 43v57q72 8 307 49q45 -131 100 -377q49 -233 62 -348q176 315 176 426q0 29 -57.5 72t-57.5 106q0 53 35 87t86 34 q49 0 86 -32q43 -39 43 -109q0 -180 -246 -614q-342 -604 -616 -605q-55 0 -96 35t-41 88zM373 1143q0 43 29.5 74.5t86.5 31.5q47 0 78 -29.5t31 -70.5q0 -25 -16 -53q68 0 141 37q106 53 166 133q8 12 20 12q17 0 17 -16q0 -8 -8 -21q-51 -78 -177 -141q-104 -53 -241 -53 q-127 0 -127 96z" />
<glyph unicode="&#xa3;" horiz-adv-x="1034" d="M-92 10q0 53 37 94t96 41q53 0 92 -34.5t39 -85.5q0 -41 -25.5 -77t-25.5 -50q0 -33 47 -33q96 0 145 178l299 1100q14 53 15 92q0 55 -47 70q-49 8 -101 14v51h606v-51q-84 -16 -113.5 -46t-58.5 -130l-264 -953q-61 -219 -170 -313q-100 -84 -266 -84q-147 0 -231 68 q-74 59 -74 149z" />
<glyph unicode="&#xa4;" horiz-adv-x="2004" d="M-51 0v51q88 14 118.5 48t59.5 143l244 901q14 53 14 100q0 39 -29.5 53.5t-117.5 22.5v51h604v-51q-86 -12 -117 -49q-25 -29 -51 -131l-101 -383h66q195 0 324 -51q206 -84 206 -287q0 -170 -127 -283q-154 -135 -448 -135h-645zM412 139q0 -72 123 -71q147 0 237 116 q86 109 86 273q0 131 -70 182q-61 43 -233 51l-137 -502q-6 -23 -6 -49zM1163 0v51q88 14 119 48t59 143l244 901q14 53 14 100q0 39 -29.5 53.5t-117.5 22.5v51h604v-51q-86 -12 -117 -49q-23 -29 -51 -131l-243 -895q-18 -68 -19 -105q0 -57 49 -73q8 -2 101 -15v-51h-613 z" />
<glyph unicode="&#xa5;" horiz-adv-x="1128" d="M-53 0v47q88 0 114 103l160 598q12 45 12 67q0 57 -67 57v48h584q115 0 188 45q84 49 152 176h36l-114 -281h-279q-94 0 -137 -12q-76 -23 -94 -92l-162 -606q-6 -23 -6 -46q0 -57 67 -57v-47h-454z" />
<glyph unicode="&#xa7;" horiz-adv-x="1038" d="M-63 299l163 129q-31 72 -30 152q0 201 170 370l-95 131l115 90l94 -131q139 88 287 88q143 0 236 -88l165 131l68 -92l-166 -129q33 -66 33 -145q0 -207 -174 -377l96 -129l-117 -92l-94 131q-137 -86 -282 -86t-238 86l-166 -129zM264 627q0 -82 53.5 -134.5 t139.5 -52.5q102 0 194 74t121 176q8 33 8 64q0 82 -52 134t-138 52q-102 0 -196.5 -74t-121.5 -176q-8 -33 -8 -63z" />
<glyph unicode="&#xa8;" horiz-adv-x="1181" d="M82 643l55 209h1059l-172 -645h-215l117 436h-844z" />
<glyph unicode="&#xa9;" horiz-adv-x="1591" d="M41 510q0 94 27 192q82 309 356 530.5t573 221.5q250 0 403.5 -154.5t153.5 -396.5q0 -98 -28 -201q-82 -305 -354.5 -523t-575.5 -218q-248 0 -401.5 155.5t-153.5 393.5zM158 543q0 -203 131 -338t338 -135q252 0 485 188t301 444q23 88 23 172q0 205 -128 338.5 t-339 133.5q-250 0 -484.5 -191.5t-304.5 -452.5q-23 -80 -22 -159zM389 569q0 59 19 125q49 186 194.5 303t327.5 117q102 0 270 -57l-59 -217h-66q2 20 2 39q0 164 -149 163q-119 0 -213 -98q-82 -88 -117 -213q-23 -82 -23 -151q0 -215 193 -215q137 0 256 135l45 -21 q-121 -190 -385 -190q-139 0 -217 75.5t-78 204.5z" />
<glyph unicode="&#xaa;" d="M74 113q0 45 106 166q8 10 193 202q-47 98 -94 197q-57 121 -58 151q0 37 31 37q14 0 48 -37.5t69 -74.5q121 -121 264 -258v-29l-379 -272q-47 -35 -109 -89q-29 -25 -45 -24q-27 0 -26 31zM461 113q0 45 106 166q8 10 193 202q-47 98 -94 197q-57 121 -58 151 q0 37 31 37q14 0 48 -37.5t69 -74.5q121 -121 264 -258v-29l-379 -272q-47 -35 -109 -89q-29 -25 -45 -24q-27 0 -26 31z" />
<glyph unicode="&#xab;" horiz-adv-x="1271" d="M-102 281q0 68 42 112.5t101 44.5q61 0 109 -47q39 -43 38 -86q0 -37 -10 -90q-2 -12 -9 -42t-7 -42q0 -47 62.5 -81t164.5 -34q193 0 303 154q92 125 90 270q-2 147 -78.5 216t-248.5 71l12 45q199 0 309 117q90 92 90 213q2 201 -200 201q-233 0 -357 -324h-49l119 434 h43q10 -78 65 -78q35 0 145.5 36t182.5 36q170 0 270 -94q95 -89 95 -232q0 -260 -330 -313q233 -57 233 -334q0 -231 -219 -358q-197 -113 -508 -113q-203 0 -330.5 93.5t-127.5 224.5z" />
<glyph unicode="&#xac;" horiz-adv-x="1271" d="M-51 0v51q76 4 114 47q29 35 56 131l252 920q12 45 12 80q0 57 -45 76q-14 4 -102 14v51h561q475 0 475 -299q0 -147 -115 -233q-84 -66 -262 -113q270 -82 270 -299q0 -178 -127 -291q-152 -135 -448 -135h-641zM408 141q0 -41 24.5 -57t97.5 -16q135 0 226 100 q98 111 98 295q0 135 -82 182q-57 35 -221 45l-123 -446q-20 -74 -20 -103zM567 756q402 -10 402 342q0 203 -174 202q-51 0 -70.5 -20t-42.5 -102z" />
<glyph unicode="&#xad;" horiz-adv-x="681" d="M68 373l47 235h497l-47 -235h-497z" />
<glyph unicode="&#xae;" horiz-adv-x="1337" d="M-51 0v51q82 16 106 37q35 27 58 109l254 933q18 68 18 101q0 51 -27 65q-16 6 -118 23v51h1097l-88 -393l-51 10q0 158 -61 227q-78 90 -287 91q-92 0 -115.5 -19.5t-52.5 -120.5l-113 -407q233 14 292 45t136 178l52 -10l-156 -561l-51 10q4 31 4 88q0 127 -90 164 q-37 14 -201 22l-133 -481q-18 -68 -19 -84q0 -66 132 -66q438 0 614 347l51 -11l-119 -399h-1132zM498 1634q0 53 38.5 92t90.5 39q55 0 94 -39t39 -92q0 -55 -39 -94t-94 -39q-51 0 -90 40t-39 93zM930 1634q0 53 39 92t90 39q53 0 93 -39t40 -92q0 -55 -39 -94t-94 -39 q-51 0 -90 40t-39 93z" />
<glyph unicode="&#xaf;" horiz-adv-x="1648" d="M47 137q0 57 19 125l114 416q16 59 17 84q0 39 -20.5 50t-94.5 19v56q70 4 432 57l-199 -655q-23 -74 -22 -109q0 -53 47 -53q51 0 139 113q72 90 103 159q96 217 182 521h242l-193 -629q-23 -74 -22 -109q0 -53 47 -53q51 0 139 113q72 90 102 159q96 217 183 521h241 l-184 -680q-16 -61 -16 -76q0 -45 34 -45q55 0 146 155l43 -28q-59 -109 -144 -185q-102 -92 -196 -92q-137 0 -137 152q0 63 47 184l-6 8q-123 -176 -162 -219q-113 -125 -223 -125q-154 0 -154 150q0 63 47 184l-6 8q-121 -174 -162 -219q-113 -123 -223 -123 q-61 0 -105 35q-55 43 -55 131z" />
<glyph unicode="&#xb0;" horiz-adv-x="1482" d="M-92 104q0 66 39 110t96 44q121 0 121 -104q0 -39 -23 -72q12 -2 37 -2q31 0 82 27.5t86 66.5l168 191l-215 854q-27 106 -111 106v45h668v-45q-186 0 -186 -76q0 -27 14 -84l117 -465l350 408q76 88 76 141q0 76 -146 76v45h453v-45q-92 0 -221 -149l-836 -971 q-209 -242 -424 -242q-145 0 -145 141zM864 1524q0 43 30 74.5t87 31.5q47 0 78 -29.5t31 -70.5q0 -25 -17 -53q68 0 141 36q106 53 166 134q8 12 21 12q16 -1 16 -17q0 -8 -8 -20q-51 -78 -176 -141q-104 -53 -242 -54q-127 0 -127 97z" />
<glyph unicode="&#xb1;" horiz-adv-x="1404" d="M0 0l49 184h1032l-49 -184h-1032zM213 797l49 184h424l115 420h184l-115 -420h424l-49 -184h-422l-116 -428h-185l115 428h-424z" />
<glyph unicode="&#xb4;" d="M25 453v28l378 273q47 35 109 88q29 25 45 24q27 0 27 -30q0 -45 -107 -166q-8 -10 -192 -203q47 -98 94 -195q57 -123 57 -153q0 -37 -30 -37q-14 0 -48 38t-69 75q-121 121 -264 258zM412 453v28l379 273q47 35 108 88q29 25 45 24q27 0 27 -30q0 -45 -107 -166 q-8 -10 -192 -203q47 -98 94 -195q57 -123 57 -153q0 -37 -30 -37q-14 0 -48 38t-69 75q-121 121 -264 258z" />
<glyph unicode="&#xb5;" horiz-adv-x="1122" d="M-168 -350q80 10 105.5 39.5t58.5 150.5l233 875q8 31 9 71q0 47 -31 62q-19 8 -78 10v53q244 16 424 54l-213 -711q-10 -35 -10 -51q0 -55 47 -56q98 0 235 261q133 248 199 534h244l-197 -688q-16 -57 -16 -72q0 -41 28 -41q20 0 67.5 47.5t78.5 104.5l45 -29 q-154 -268 -330 -268q-133 0 -133 137q0 53 33 166l-17 2q-166 -283 -335 -283l-111 -419h-336v51z" />
<glyph unicode="&#xb6;" horiz-adv-x="450" d="M158 0v551h151v-551h-151zM158 860v551h151v-551h-151z" />
<glyph unicode="&#xb7;" horiz-adv-x="1015" d="M51 301q0 236 162 584q219 471 643 471q348 0 385 82h27q-125 -307 -484 -308q-469 0 -583 -423q182 244 436 243q127 0 215 -67q113 -88 113 -258q0 -242 -178.5 -448t-403.5 -206q-100 0 -184 49q-147 82 -148 281zM295 186q0 -150 108 -149q131 0 236 301 q84 248 84 416q0 133 -100 133q-141 0 -244 -295q-84 -238 -84 -406z" />
<glyph unicode="&#xb8;" horiz-adv-x="956" d="M57 129q0 86 17 143l127 447q10 37 10 59q0 35 -26.5 45.5t-102.5 10.5v55l422 61l-111 -430q137 176 279 176q223 0 223 -309q0 -188 -158.5 -297.5t-441.5 -109.5q-238 0 -238 149zM276 104q0 -63 111 -63q127 0 199 131q57 107 57 244q0 139 -94 139q-74 0 -141 -106 q-131 -205 -132 -345z" />
<glyph unicode="&#xba;" horiz-adv-x="569" d="M-336 -250q0 113 105 113q49 0 77 -35q23 -31 23 -72q0 -33 -14.5 -52t-14.5 -23q0 -25 41 -25q80 0 127 172l234 856q12 45 12 92q0 35 -20.5 46.5t-104.5 17.5v55q166 8 420 55l-225 -860q-131 -500 -441 -500q-92 0 -155.5 44t-63.5 116zM352 1260q0 57 40 97t97 40 t97.5 -40t40.5 -97t-40 -97.5t-98 -40.5q-57 0 -97 40t-40 98z" />
<glyph unicode="&#xbb;" horiz-adv-x="1576" d="M-51 0v51q92 14 125 53q25 29 53 138l244 901q14 53 14 100q0 41 -29.5 54.5t-117.5 21.5v51h649v-51q-121 -14 -151.5 -40t-61.5 -140l-187 -684l656 655l8 33q14 57 14 100q0 72 -147 76v51h610v-51q-82 -12 -110 -41q-35 -31 -64 -139l-244 -895q-18 -68 -18 -105 q0 -49 22 -61q25 -18 125 -27v-51h-649v51q127 18 158 49q29 25 59 142l183 676l-656 -656l-4 -18q-23 -100 -22 -107q0 -53 53 -71q25 -10 100 -15v-51h-612z" />
<glyph unicode="&#xbf;" horiz-adv-x="1394" d="M-102 0v51q68 18 100 49q27 27 84 115l747 1180h54l202 -1211q12 -80 42 -101.5t120 -31.5v-51h-626v51q100 8 135 39q27 25 26 76q0 20 -14 115l-23 147h-421l-131 -217q-25 -41 -25 -86q0 -41 31 -55q18 -8 102 -19v-51h-403zM373 510h360l-74 477z" />
<glyph unicode="&#xc0;" horiz-adv-x="1716" d="M-61 78q0 49 42 84t89 35q57 0 104 -25q27 -14 64 -14q70 0 153 116q162 227 336 887q6 23 6 41q0 115 -147 115v53h1181v-51q-82 -12 -110 -41q-35 -31 -64 -139l-243 -895q-18 -68 -19 -105q0 -49 23 -61q25 -18 125 -27v-51h-650v51q127 18 158 49q29 25 60 142 l278 1028h-477q-209 -809 -387 -1051q-186 -256 -400 -256q-123 0 -122 115z" />
<glyph unicode="&#xc1;" horiz-adv-x="970" d="M0 178q0 37 27.5 63.5t64.5 26.5q35 0 63.5 -27.5t28.5 -62.5q0 -160 142 -160q102 0 182 79t80 184q0 113 -39 157q-47 51 -170 51l8 31q270 0 270 230q0 133 -127 133q-168 0 -262 -244h-35l97 315h30q6 -53 43 -51q29 2 102 24.5t124 22.5q280 0 280 -209 q0 -82 -67.5 -143t-192.5 -80q174 -20 174 -225q0 -123 -116 -209q-141 -106 -404 -104q-106 0 -194 47q-109 57 -109 151z" />
<glyph unicode="&#xc2;" horiz-adv-x="925" d="M59 295q0 231 177 438q184 217 409 217q88 0 150 -41q67 -49 67 -133q0 -158 -178 -274q-154 -102 -354 -127q-12 -41 -13 -101q0 -168 142 -168q70 0 143 68q57 53 96 123l60 -35q-158 -291 -393 -291q-139 0 -222.5 90.5t-83.5 233.5zM346 444q156 29 250 146 q78 100 78 209q0 86 -60 86q-92 0 -178 -183q-55 -119 -90 -258z" />
<glyph unicode="&#xc3;" horiz-adv-x="1828" d="M-51 0v51q76 14 106 51q45 49 88 211l244 895q4 14 4 47q0 43 -55 56q-8 2 -90 8v51h463l116 -967l625 967h430v-51q-86 -12 -121 -53q-25 -31 -51 -125l-248 -912q-14 -53 -14 -90q0 -51 27.5 -65.5t121.5 -22.5v-51h-639v51q119 16 150 40t59 130l248 912l-762 -1162 h-57l-143 1127l-224 -828q-14 -53 -14 -96q0 -115 166 -123v-51h-430z" />
<glyph unicode="&#xc4;" horiz-adv-x="1568" d="M109 0v43q168 0 215 174l294 1081q-147 0 -266 -79.5t-174 -208.5h-59l86 360h1116l-64 -358h-55q-14 287 -289 286l-176 -645q133 121 342 121q197 0 295 -74q115 -87 115 -288q0 -283 -178 -578q-199 -330 -449 -330q-119 0 -203 47q-102 57 -102 170q0 55 38 92t89 37 q125 0 125 -141q0 -45 -21.5 -66.5t-21.5 -35.5q0 -29 47 -29q168 0 264 268q86 240 86 590q0 248 -157 248q-154 0 -297 -139l-88 -328q-8 -31 -9 -61q0 -113 129 -113v-43h-632z" />
<glyph unicode="&#xc5;" horiz-adv-x="1337" d="M-51 0v51q82 16 106 37q35 27 58 109l254 933q18 68 18 101q0 51 -27 65q-16 6 -118 23v51h1097l-88 -393l-55 10q0 160 -59 227q-76 90 -285 91q-92 0 -116.5 -19.5t-51.5 -120.5l-260 -952q-10 -37 -10 -74q0 -49 26.5 -63.5t122.5 -24.5v-51h-612zM721 1509l254 271 q90 96 133 96q100 0 100 -94q0 -47 -104 -109l-283 -164h-100z" />
<glyph unicode="&#xc6;" horiz-adv-x="1370" d="M41 831q0 85 25 173q70 262 303 448t491 186q213 0 344 -132t131 -335q0 -82 -22 -167q-72 -268 -303.5 -455t-491.5 -187q-213 0 -345 131.5t-132 337.5zM141 856q0 -176 110.5 -290.5t291.5 -114.5q217 0 413.5 163t257.5 390q20 72 21 143q0 172 -110.5 286.5 t-288.5 114.5q-217 0 -416 -161.5t-258 -382.5q-20 -76 -21 -148zM311 674l11 37q53 0 67 8t25 43l137 510q4 18 4 26q0 20 -68 21l11 37h307q197 0 196 -113q0 -25 -8 -53q-41 -152 -227 -182q49 -10 74 -62q12 -27 28 -98q8 -47 20.5 -92t55.5 -45l-10 -37h-123 q-35 0 -53 47q-2 4 -25 102q-27 115 -47 138.5t-90 23.5l-57 -219q-4 -16 -4 -25q0 -27 67 -30l-10 -37h-281zM608 1028q15 -2 35 -2q182 0 221 152q8 29 8 51q0 88 -114 88h-39q-33 0 -45 -45z" />
<glyph unicode="&#xc7;" horiz-adv-x="591" d="M6 -326q90 43 160 105q82 74 82 131q0 35 -73 86t-73 125q0 70 42 110.5t110 40.5q61 0 113 -43q61 -55 61 -155q0 -145 -133 -279q-104 -104 -260 -178z" />
<glyph unicode="&#xc8;" horiz-adv-x="1150" d="M47 137q0 57 19 125l114 416q16 59 17 84q0 39 -20.5 50t-94.5 19v56q70 4 432 57l-199 -655q-23 -74 -22 -109q0 -53 47 -53q51 0 139 113q72 90 103 159q96 217 182 521h242l-185 -680q-16 -61 -16 -76q0 -45 35 -45q55 0 145 155l43 -28q-57 -109 -143 -185 q-102 -90 -197 -90q-137 0 -137 150q0 63 47 184l-6 8q-121 -174 -162 -219q-113 -123 -223 -123q-61 0 -105 35q-55 43 -55 131zM492 1155q0 43 29.5 75t86.5 32q47 0 78 -30t31 -71q0 -25 -17 -53q68 0 142 37q106 53 166 133q8 12 20 12q16 0 16 -16q0 -8 -8 -21 q-51 -78 -176 -141q-104 -53 -242 -53q-127 0 -126 96z" />
<glyph unicode="&#xc9;" horiz-adv-x="958" d="M61 223q0 129 103 217q86 76 225 107q244 53 244 215q0 111 -90 110q-123 0 -199 -84l-35 35q117 127 346 127q90 0 144.5 -48t54.5 -114q0 -119 -111 -188q-80 -49 -258 -92q-207 -49 -206 -256q0 -82 36 -133q43 -61 123 -62q119 0 283 166l33 -33q-104 -113 -160 -147 q-111 -72 -260 -72q-125 0 -199 65.5t-74 186.5zM522 1057l254 270q90 96 133 96q101 0 101 -94q0 -47 -105 -108l-282 -164h-101z" />
<glyph unicode="&#xca;" horiz-adv-x="1658" d="M0 223l43 10q2 -47 20 -79q23 -39 56 -39q41 0 119 104q102 137 256 406q-35 68 -107 168q-14 12 -31 12q-12 0 -53 -23q-49 -27 -74 -26q-35 0 -59.5 26.5t-24.5 55.5q0 88 127 88q86 0 164 -103q53 -90 107 -180q78 -127 159 -176l84 309q6 23 7 35q0 18 -21.5 35.5 t-58.5 17.5q-27 0 -49 -8v55q188 18 213 23q121 14 208 39l-139 -492q94 37 320 262q182 182 297 183q41 0 68.5 -23.5t27.5 -60.5q0 -41 -34 -63.5t-73 -22.5q-35 0 -75 22q-33 25 -47 25q-12 0 -33 -17q-61 -63 -205 -196q23 -115 92 -387q27 -88 76 -88q31 0 72 51 q33 41 49 80l45 -23q-123 -246 -271 -246q-92 0 -149 86q-41 66 -70 189q-18 92 -37 182q-23 -16 -69 -37l-109 -397h-248l109 393q-31 8 -66 49q-125 -223 -180 -295q-131 -168 -262 -167q-160 0 -174 243z" />
<glyph unicode="&#xcb;" horiz-adv-x="1150" d="M47 137q0 57 19 125l114 416q16 59 17 84q0 39 -20.5 50t-94.5 19v56q70 4 432 57l-199 -655q-23 -74 -22 -109q0 -53 47 -53q51 0 139 113q72 90 103 159q96 217 182 521h242l-185 -680q-16 -61 -16 -76q0 -45 35 -45q55 0 145 155l43 -28q-57 -109 -143 -185 q-102 -90 -197 -90q-137 0 -137 150q0 63 47 184l-6 8q-121 -174 -162 -219q-113 -123 -223 -123q-61 0 -105 35q-55 43 -55 131z" />
<glyph unicode="&#xcc;" horiz-adv-x="1128" d="M-14 0l190 702q14 53 14 76q0 33 -22.5 45.5t-85.5 16.5v53q195 14 403 55l-110 -409h268l105 381h243l-194 -707q-10 -37 -11 -61q0 -31 33 -31q43 0 142 160l47 -29q-86 -137 -136 -186q-86 -88 -186 -89q-66 0 -108.5 34t-42.5 91q0 43 8 72l84 303h-269l-129 -477 h-243z" />
<glyph unicode="&#xcd;" horiz-adv-x="1077" d="M-8 0l207 758q12 45 12 57q0 51 -80 51q-12 0 -49 -8v55q233 23 422 62l-133 -492q82 33 202 152q190 186 201 196q117 96 207 97q41 0 68.5 -23.5t27.5 -60.5q0 -41 -33.5 -63.5t-72.5 -22.5q-35 0 -76 22q-33 25 -47 25q-6 0 -14 -4q-45 -31 -111 -99 q-86 -88 -113 -110q23 -115 92 -387q27 -88 76 -88q31 0 72 51q33 41 49 80l45 -23q-123 -246 -268 -245q-127 0 -182 141q-25 61 -45 162q-14 72 -29 143q-27 -18 -72 -27l-108 -399h-248z" />
<glyph unicode="&#xce;" horiz-adv-x="1304" d="M-61 82q0 43 39.5 72.5t80.5 29.5q43 0 91.5 -17t62.5 -17q66 0 129 98q84 131 178 483q8 31 8 53q0 74 -143 82v54h780l-194 -707q-10 -37 -10 -61q0 -31 32 -31q43 0 142 160l47 -29q-86 -137 -135 -186q-86 -88 -187 -89q-66 0 -108.5 34t-42.5 91q0 41 8 72l182 662 h-270q-37 -150 -107 -340q-74 -205 -123 -289q-133 -225 -342 -225q-119 0 -118 100z" />
<glyph unicode="&#xcf;" horiz-adv-x="1601" d="M-61 82q0 43 39.5 72.5t80.5 29.5q29 0 72 -15t64 -15q49 0 107 93t128 306q59 186 59 229q0 76 -143 84v54h361l108 -594l373 594h256l-184 -695q-18 -70 -19 -82q0 -31 33 -30q55 0 160 170l45 -29q-96 -143 -142 -191q-94 -92 -207 -92q-127 0 -126 131q0 25 14 80 l151 590l-473 -772h-18l-123 719q-131 -408 -195 -512q-135 -225 -303 -225q-119 0 -118 100z" />
<glyph unicode="&#xd1;" horiz-adv-x="1112" d="M6 -326q90 43 160 105q82 74 82 131q0 35 -73 86t-73 125q0 70 42 110.5t110 40.5q61 0 113 -43q61 -55 61 -155q0 -145 -133 -279q-104 -104 -260 -178zM526 -326q90 43 160 105q82 74 82 131q0 35 -72.5 86t-72.5 125q0 70 42 110.5t109 40.5q61 0 113 -43 q61 -55 61 -155q0 -145 -133 -279q-104 -104 -260 -178z" />
<glyph unicode="&#xd2;" horiz-adv-x="917" d="M51 297q0 225 174 432q184 221 414 221q109 0 172 -57q55 -51 55 -123q0 -53 -26 -94q-35 -55 -99 -55q-49 0 -83.5 32.5t-34.5 79.5q0 41 22.5 72t22.5 45q0 35 -52 35q-119 0 -219 -242q-86 -203 -86 -334q0 -203 156 -203q111 0 250 187l55 -37q-180 -285 -416 -285 q-125 0 -211 82q-94 90 -94 244z" />
<glyph unicode="&#xd3;" horiz-adv-x="1015" d="M51 301q0 219 164 424q180 225 422 225q127 0 215 -67q113 -88 113 -258q0 -242 -178.5 -448t-403.5 -206q-100 0 -184 49q-147 82 -148 281zM295 186q0 -150 108 -149q131 0 236 301q84 248 84 416q0 133 -100 133q-141 0 -244 -295q-84 -238 -84 -406z" />
<glyph unicode="&#xd4;" horiz-adv-x="1128" d="M-14 0l188 696q16 61 16 86q0 53 -108 56v55q119 6 405 55l-122 -379l6 2q109 164 182 242q131 137 256 137q160 0 160 -157q0 -57 -19 -115l-141 -440q-23 -70 -23 -84q0 -33 33 -33q31 0 144 160l43 -29q-147 -274 -314 -275q-147 0 -147 140q0 66 22 139l129 422 q20 68 21 84q0 37 -47 37q-78 0 -187 -158q-94 -135 -145 -281q-47 -137 -109 -360h-243z" />
<glyph unicode="&#xd5;" horiz-adv-x="1576" d="M-51 0v51q92 14 125 53q25 29 53 138l244 901q14 53 14 100q0 41 -29.5 54.5t-117.5 21.5v51h649v-51q-121 -14 -151.5 -40t-61.5 -140l-103 -375h478l102 379q14 53 14 100q0 72 -147 76v51h610v-51q-82 -12 -110 -41q-35 -31 -64 -139l-244 -895q-18 -68 -18 -105 q0 -49 22 -61q25 -18 125 -27v-51h-649v51q127 18 158 49q29 25 59 142l117 430h-477l-117 -428q-23 -84 -22 -107q0 -53 53 -71q25 -10 100 -15v-51h-612z" />
<glyph unicode="&#xd6;" horiz-adv-x="2048" d="M188 121q0 63 45.5 108t108.5 45t108.5 -45t45.5 -108t-45 -108.5t-109 -45.5q-63 0 -108.5 45t-45.5 109zM870 121q0 63 45.5 108t108.5 45t108.5 -45t45.5 -108t-45.5 -108.5t-108.5 -45.5t-108.5 45t-45.5 109zM1552 121q0 63 45 108t109 45q63 0 108.5 -45t45.5 -108 t-45.5 -108.5t-108.5 -45.5t-108.5 45t-45.5 109z" />
<glyph unicode="&#xd8;" horiz-adv-x="796" d="M-51 0v51q88 14 118.5 48t59.5 143l244 901q14 53 14 100q0 39 -29.5 53.5t-117.5 22.5v51h604v-51q-86 -12 -117 -49q-23 -29 -51 -131l-244 -895q-18 -68 -18 -105q0 -57 49 -73q8 -2 100 -15v-51h-612zM213 1634q0 53 39 92t90 39q55 0 94 -39t39 -92q0 -55 -39 -94 t-94 -39q-51 0 -90 40t-39 93zM645 1634q0 53 39 92t90 39q53 0 93 -39t40 -92q0 -55 -39 -94t-94 -39q-51 0 -90 40t-39 93z" />
<glyph unicode="&#xd9;" horiz-adv-x="1769" d="M51 328q0 281 189 456q174 162 415 162q115 0 217 -63l78 303q6 25 6 47q0 72 -129 59v58q217 10 430 57l-139 -526q139 66 236 65q364 1 364 -323q0 -227 -147 -416q-176 -227 -469 -227q-139 0 -213 53l-80 -297q-8 -31 -8 -47q0 -55 69 -56v-43h-424v43q88 0 115 103 l80 297q-78 -53 -246 -53q-152 0 -243 86q-100 92 -101 262zM309 186q0 -88 32 -119.5t110 -31.5q131 0 221 108l170 637q-43 104 -199 105q-145 0 -248 -279q-86 -227 -86 -420zM918 139q39 -104 202 -104q156 0 256 280q78 213 78 375q0 195 -139 195q-121 0 -232 -129z " />
<glyph unicode="&#xda;" horiz-adv-x="1595" d="M-14 0l192 700q14 51 15 78q0 37 -35 47q-4 2 -76 11v55q92 4 229.5 24.5t169.5 32.5l6 -6l-118 -375l4 -10q121 195 188 264q117 125 244 125q55 0 94 -38t39 -91q0 -66 -39 -192v-9q121 178 166 226q100 104 213 104q156 0 156 -155q0 -57 -33 -160l-127 -398 q-18 -57 -19 -75q0 -41 31 -41q25 0 74 59q43 51 70 100l43 -28q-156 -272 -316 -273q-66 0 -105.5 39t-39.5 97q0 72 24 159l109 385q23 80 22 103q0 39 -39 39q-66 0 -156.5 -141.5t-152.5 -342.5l-94 -313h-246l178 664q20 76 21 88q0 45 -37 45q-72 0 -174 -170 q-96 -156 -150 -336l-86 -291h-245z" />
<glyph unicode="&#xdb;" horiz-adv-x="872" d="M-188 -287q0 55 41 88q31 25 67 25q49 0 110.5 -35t75.5 -35q74 0 142 92q49 68 49 144q0 80 -55 352q-43 211 -72 321.5t-43 135.5q-29 45 -96 43v57q72 8 307 49q45 -131 100 -377q49 -233 62 -348q176 315 176 426q0 29 -57.5 72t-57.5 106q0 53 35 87t86 34 q49 0 86 -32q43 -39 43 -109q0 -180 -246 -614q-342 -604 -616 -605q-55 0 -96 35t-41 88z" />
<glyph unicode="&#xdc;" d="M94 934q0 113 121 113q43 0 106.5 -45.5t172.5 -45.5q12 98 12 101q0 49 -18.5 115.5t-18.5 111.5q0 53 33 86t82 33q47 0 79.5 -32t32.5 -77q0 -61 -67 -153q-72 -98 -84 -185q111 0 168 45.5t96 45.5q121 0 121 -113t-121 -113q-41 0 -101 45t-171 45q-10 -76 -11 -102 q0 -131 43 -260l-28 -51q-39 -66 -76 -158q-55 -137 -103 -324l-79 -311h-52l52 311q33 199 32 390q0 61 -5 116.5t-5 46.5q57 53 111.5 155.5t68.5 188.5q-111 0 -170 -46t-100 -46q-121 0 -121 113z" />
<glyph unicode="&#xdf;" d="M70 -82q0 55 34.5 90t85.5 35q49 0 82 -28.5t33 -80.5q0 -49 -36 -84.5t-36 -44.5q0 -25 48 -43q41 -14 86 -14q76 0 125 42t49 116q0 59 -54 137q-10 16 -129 164q-76 94 -153 188q-80 115 -80 219q0 121 82 189q70 59 168 59q27 0 78 -10q-72 88 -88 119 q-35 63 -35 151q0 104 67 178q86 94 256 95q152 0 230 -78q55 -55 55 -117q0 -47 -29 -86q-35 -45 -86 -45q-47 0 -84 26.5t-37 69.5q0 57 36 86t36 45q0 20 -37 36t-86 16q-176 0 -176 -146q0 -100 162 -280q127 -143 162 -195q84 -123 84 -235q0 -113 -73 -182.5 t-171 -69.5q-25 0 -61 4q121 -141 120 -267q0 -119 -96 -197.5t-229 -78.5q-115 0 -199 47q-104 59 -104 170zM281 690q0 -114 190 -309q82 -84 145 -84q51 0 86 37t35 90q0 90 -137 244q-127 141 -209 141q-45 0 -77.5 -36t-32.5 -83z" />
<glyph unicode="&#xe1;" horiz-adv-x="1021" d="M-55 184q0 113 121 113q41 0 101 -45t171 -45q10 78 10 102q0 131 -43 260q57 53 111.5 155.5t68.5 188.5q-111 0 -170 -46t-100 -46q-121 0 -121 113t121 113q43 0 106.5 -45.5t172.5 -45.5q12 98 12 101q0 49 -18.5 115.5t-18.5 111.5q0 53 33 86t82 33q47 0 79.5 -32 t32.5 -77q0 -61 -67 -153q-72 -98 -84 -185q111 0 168 45.5t96 45.5q121 0 121 -113t-121 -113q-41 0 -101.5 45t-170.5 45q-10 -76 -11 -102q0 -131 43 -260q-57 -53 -111.5 -155.5t-68.5 -188.5q111 0 170 46t100 46q121 0 121 -113t-121 -112q-41 0 -104 45t-174 45 q-12 -98 -12 -101q0 -49 18.5 -115.5t18.5 -111.5q0 -53 -33 -86t-82 -33q-47 0 -80 32t-33 77q0 61 69.5 156.5t82.5 181.5q-111 0 -168.5 -45t-95.5 -45q-121 0 -121 112z" />
<glyph unicode="&#xe2;" horiz-adv-x="2179" d="M102 958q0 168 119 296t271 128q76 0 158.5 -61t164.5 -61q180 0 334 190h90l-877 -1505h-102l772 1323q-100 -55 -112 -60q-37 -14 -95 -16q-47 -2 -118 22q8 -35 8 -86q0 -143 -72 -278q-100 -186 -285 -186q-109 0 -178 69q-78 80 -78 225zM299 858q0 -133 111 -133 q96 0 174 135t78 283q0 68 -17 90q-31 14 -131 72q-88 -12 -158 -195q-57 -152 -57 -252zM754 264q0 168 119.5 296t271.5 128q221 0 221 -254q0 -143 -72 -278q-100 -187 -284 -187q-109 0 -179 70q-78 80 -77 225zM950 164q0 -133 111 -133q96 0 174 135t78 283 q0 172 -117 172q-102 0 -180 -189q-66 -156 -66 -268zM1487 264q0 168 119.5 296t271.5 128q221 0 221 -254q0 -143 -71 -278q-101 -187 -285 -187q-109 0 -178 70q-78 80 -78 225zM1683 164q0 -133 111 -133q96 0 174 135t78 283q0 172 -117 172q-102 0 -180 -189 q-66 -156 -66 -268z" />
<glyph unicode="&#xe3;" horiz-adv-x="655" d="M25 453v28l378 273q47 35 109 88q29 25 45 24q27 0 27 -30q0 -45 -107 -166q-8 -10 -192 -203q47 -98 94 -195q57 -123 57 -153q0 -37 -30 -37q-14 0 -48 38t-69 75q-121 121 -264 258z" />
<glyph unicode="&#xe4;" horiz-adv-x="2150" d="M-61 78q0 49 42 84t89 35q57 0 104 -25q27 -14 64 -14q70 0 153 116q162 227 336 887q6 23 6 41q0 115 -147 115v53h1181v-51q-96 -14 -174 -180l-100 -383h66q195 0 323 -51q207 -84 207 -287q0 -170 -127 -283q-154 -135 -449 -135h-684v51q127 18 158 49q29 25 60 142 l278 1028h-477q-209 -809 -387 -1051q-186 -256 -400 -256q-123 0 -122 115zM1331 139q0 -72 123 -71q147 0 238 116q86 109 86 273q0 131 -70 182q-61 43 -233 51l-138 -502q-6 -23 -6 -49z" />
<glyph unicode="&#xe5;" horiz-adv-x="2082" d="M-51 0v51q92 14 125 53q25 29 53 138l244 901q14 53 14 100q0 41 -29.5 54.5t-117.5 21.5v51h649v-51q-121 -14 -151.5 -40t-61.5 -140l-103 -375h478l102 379q14 53 14 100q0 72 -147 76v51h610v-51q-86 -12 -117 -49q-25 -29 -51 -131l-100 -383h65q195 0 324 -51 q207 -84 207 -287q0 -170 -127 -283q-154 -135 -449 -135h-690v51q127 18 158 49q29 25 59 142l117 430h-477l-117 -428q-23 -84 -22 -107q0 -53 53 -71q25 -10 100 -15v-51h-612zM1198 139q0 -72 123 -71q147 0 238 116q86 109 86 273q0 131 -70 182q-61 43 -234 51 l-137 -502q-6 -23 -6 -49z" />
<glyph unicode="&#xe6;" horiz-adv-x="796" d="M33 -25l47 344l55 -6q-2 -100 55 -184q61 -90 142 -90q45 0 78.5 31.5t33.5 81.5q0 82 -135 239q-150 176 -149 316q0 84 63 155q80 88 219 88q55 0 121 -23.5t80 -23.5q35 0 53 41h56l-50 -315l-53 6q-8 94 -47 164q-51 86 -133 86q-39 0 -71.5 -28t-32.5 -69 q0 -76 120 -223q156 -188 156 -317q0 -121 -96 -201q-88 -76 -207 -76q-45 0 -115.5 24.5t-81.5 24.5q-37 0 -53 -45h-55z" />
<glyph unicode="&#xe7;" horiz-adv-x="1378" d="M-51 0v51q78 6 117 49q31 35 53 121l246 903q20 76 20 111q0 45 -29 59q-18 10 -118 25v51h636v-51q-109 -16 -137 -41q-35 -29 -65 -145l-113 -418h6l430 387q115 102 115 162q0 25 -16 34q-23 12 -95 21v51h431v-51q-96 -12 -166 -76l-467 -428l301 -653 q31 -68 54.5 -87.5t88.5 -23.5v-51h-567v51q82 6 106.5 19.5t24.5 42.5q0 18 -19 59l-227 496h-14l-129 -482q-6 -23 -6 -45q0 -51 34 -69q23 -12 101 -21v-51h-596zM782 1509l254 271q90 96 133 96q101 0 101 -94q0 -47 -105 -109l-282 -164h-101z" />
<glyph unicode="&#xe8;" horiz-adv-x="1576" d="M-51 0v51q82 12 113.5 42t60.5 138l244 895q18 68 18 105q0 49 -20 63q-27 16 -127 25v51h649v-51q-127 -18 -157 -46t-60 -145l-279 -1028h477l283 1039q18 72 18 94q0 53 -53 72q-25 10 -100 14v51h612v-51q-92 -14 -125 -53q-25 -29 -53 -138l-244 -901 q-14 -53 -14 -100q0 -41 33 -55q27 -12 114 -21v-51h-604l-92 -346h-184l92 346h-602z" />
<glyph unicode="&#xe9;" horiz-adv-x="1642" d="M111 0v43q168 0 215 174l295 1081q-154 0 -275 -84q-109 -76 -166 -204h-59l86 360h1116l-68 -358h-53q-14 287 -287 286l-176 -645q133 121 342 121q410 0 410 -256q0 -31 -16 -92l-52 -193q-12 -47 -12 -75q0 -115 129 -115v-43h-661v43q168 0 215 174l57 211 q16 63 16 102q-2 154 -159 154q-154 0 -297 -139l-84 -314q-12 -45 -13 -104q0 -31 34 -57.5t95 -26.5v-43h-632z" />
<glyph unicode="&#xea;" horiz-adv-x="1017" d="M-14 0l303 1124h-115v54h129l12 49q6 25 7 59q0 45 -48 45q-74 0 -196 -59l-25 41q133 94 338 94q72 0 119 -37q53 -43 53 -115q0 -31 -10 -77h227v-54h-241l-131 -493q109 150 165 205q115 109 232 108q158 0 158 -201q0 -166 -105.5 -446.5t-243.5 -480.5 q-152 -225 -262 -226q-223 0 -223 158q0 43 28.5 75t71.5 32q92 0 93 -105q0 -27 -11 -41q-14 -20 -16 -28q0 -27 43 -27q123 0 254 450q117 395 117 592q0 96 -45 97q-74 0 -215 -205q-82 -119 -218 -588h-245z" />
<glyph unicode="&#xeb;" horiz-adv-x="473" d="M102 946q0 145 134 279q104 104 260 178l28 -57q-90 -43 -159 -105q-82 -74 -82 -131q0 -35 72.5 -86t72.5 -125q0 -70 -42 -110.5t-110 -40.5q-61 0 -110 43q-63 55 -64 155z" />
<glyph unicode="&#xec;" horiz-adv-x="993" d="M102 946q0 145 134 279q104 104 260 178l28 -57q-90 -43 -159 -105q-82 -74 -82 -131q0 -35 72.5 -86t72.5 -125q0 -70 -42 -110.5t-110 -40.5q-61 0 -110 43q-63 55 -64 155zM623 946q0 145 133 279q104 104 260 178l28 -57q-90 -43 -159 -105q-82 -74 -82 -131 q0 -35 72.5 -86t72.5 -125q0 -70 -42 -110.5t-109 -40.5q-61 0 -111 43q-63 55 -63 155z" />
<glyph unicode="&#xed;" horiz-adv-x="579" d="M158 809q90 43 159 104q82 74 82 131q0 35 -72.5 86.5t-72.5 124.5q0 70 42 111t110 41q61 0 112 -43q61 -55 62 -156q0 -145 -134 -278q-104 -104 -260 -178z" />
<glyph unicode="&#xee;" horiz-adv-x="1099" d="M158 809q90 43 159 104q82 74 82 131q0 35 -72.5 86.5t-72.5 124.5q0 70 42 111t110 41q61 0 112 -43q61 -55 62 -156q0 -145 -134 -278q-104 -104 -260 -178zM678 809q90 43 160 104q82 74 82 131q0 35 -73 86.5t-73 124.5q0 70 42 111t110 41q61 0 112 -43 q61 -55 62 -156q0 -145 -133 -278q-104 -104 -260 -178z" />
<glyph unicode="&#xef;" horiz-adv-x="716" d="M94 549q0 31 8 65q27 106 122 181t202 75q88 0 142.5 -54t54.5 -136q0 -33 -9 -66q-27 -106 -122 -181t-201 -75q-88 0 -142.5 53.5t-54.5 137.5z" />
<glyph unicode="&#xf1;" horiz-adv-x="1089" d="M43 397l45 185h895l-47 -185h-893z" />
<glyph unicode="&#xf3;" horiz-adv-x="2142" d="M66 397l45 185h1896l-47 -185h-1894z" />
<glyph unicode="&#xf4;" horiz-adv-x="1935" d="M125 690l6 29q57 0 82 17.5t37 62.5l145 549q-170 0 -239 -172h-31l55 206h613l-56 -206h-28q4 29 4 47q0 125 -150 125l-145 -549q-6 -23 -6 -37q0 -43 80 -43l-7 -29h-360zM702 690l7 27q94 0 116 82l131 489q4 12 5 21q0 41 -78 47l6 26h260l76 -477h4l330 477h260 l-7 -26q-53 -6 -73 -19q-27 -16 -39 -63l-127 -475q-6 -20 -6 -35q0 -47 73 -47l-6 -27h-340l6 27q90 0 113 82l133 493h-4l-416 -602h-30l-95 590h-4l-129 -481q-4 -14 -4 -27q0 -51 82 -55l-6 -27h-238z" />
<glyph unicode="&#xf5;" horiz-adv-x="655" d="M74 113q0 45 106 166q8 10 193 202q-47 98 -94 197q-57 121 -58 151q0 37 31 37q14 0 48 -37.5t69 -74.5q121 -121 264 -258v-29l-379 -272q-47 -35 -109 -89q-29 -25 -45 -24q-27 0 -26 31z" />
<glyph unicode="&#xf6;" horiz-adv-x="1619" d="M-61 82q0 43 39.5 72.5t80.5 29.5q43 0 91.5 -17t62.5 -17q66 0 129 98q84 131 178 483q8 31 8 53q0 74 -143 82v54h780l-108 -400q137 176 278 176q224 0 224 -309q0 -188 -159 -297.5t-442 -109.5q-238 0 -237 149q0 59 22 141l156 566h-270q-37 -150 -107 -340 q-74 -205 -123 -289q-133 -225 -342 -225q-119 0 -118 100zM940 104q0 -63 111 -63q127 0 198 131q58 107 58 244q0 139 -95 139q-74 0 -141 -106q-131 -205 -131 -345z" />
<glyph unicode="&#xf7;" horiz-adv-x="1576" d="M-51 0v51q82 12 113.5 42t60.5 138l244 895q18 68 18 105q0 49 -20 63q-27 16 -127 25v51h649v-51q-127 -18 -157 -46t-60 -145l-279 -1028h477l283 1039q18 72 18 94q0 53 -53 72q-25 10 -100 14v51h612v-51q-92 -14 -125 -53q-25 -29 -53 -138l-250 -921 q-25 -90 -24 -109q0 -98 143 -98l-113 -414l-67 6q10 47 10 84q0 129 -104.5 225.5t-237.5 96.5z" />
<glyph unicode="&#xf8;" horiz-adv-x="569" d="M39 1208q0 53 39 92t90 39q55 0 94 -39t39 -92q0 -55 -39 -94t-94 -39q-51 0 -90 40t-39 93zM53 121q0 39 21 115l123 450q23 82 22 90q0 41 -45 53q-14 6 -78 11v53q199 18 418 57l-199 -721q-10 -37 -10 -65q0 -43 29 -43q31 0 86 65q45 55 72 109l49 -33 q-182 -283 -338 -282q-150 0 -150 141zM471 1208q0 53 39 92t90 39q53 0 93 -39t40 -92q0 -55 -39 -94t-94 -39q-51 0 -90 40t-39 93z" />
<glyph unicode="&#xf9;" horiz-adv-x="1077" d="M-8 0l207 758q12 45 12 57q0 51 -80 51q-12 0 -49 -8v55q233 23 422 62l-133 -492q82 33 202 152q190 186 201 196q117 96 207 97q41 0 68.5 -23.5t27.5 -60.5q0 -41 -33.5 -63.5t-72.5 -22.5q-35 0 -76 22q-33 25 -47 25q-6 0 -14 -4q-45 -31 -111 -99 q-86 -88 -113 -110q23 -115 92 -387q27 -88 76 -88q31 0 72 51q33 41 49 80l45 -23q-123 -246 -268 -245q-127 0 -182 141q-25 61 -45 162q-14 72 -29 143q-27 -18 -72 -27l-108 -399h-248zM631 1047l254 270q90 96 133 96q100 0 100 -94q0 -47 -104 -109l-283 -163h-100z " />
<glyph unicode="&#xfa;" horiz-adv-x="1452" d="M-12 0l188 702q14 53 14 76q0 61 -108 62v55q168 10 403 55l-110 -411h270l51 180q10 37 11 59q0 35 -27 45.5t-102 10.5v55l421 61l-110 -430q137 176 278 176q224 0 224 -309q0 -188 -159 -297.5t-441 -109.5q-238 0 -238 149q0 84 16 143l58 205h-269l-129 -477h-241z M772 104q0 -63 111 -63q127 0 198 131q58 107 58 244q0 139 -95 139q-74 0 -141 -106q-131 -205 -131 -345z" />
<glyph unicode="&#xfb;" horiz-adv-x="1134" d="M-14 0l303 1126h-117v52h129l12 49q6 25 6 59q0 45 -47 45q-74 0 -196 -59l-25 41q133 94 338 94q72 0 119 -37q53 -43 53 -115q0 -31 -10 -77h227v-52h-239l-138 -501q109 150 166 204q115 109 232 109q66 0 111.5 -40t45.5 -112q0 -63 -77 -313q-84 -268 -84 -323 q0 -39 30 -39q47 0 142 155l45 -26q-145 -266 -326 -267q-137 0 -137 162q0 86 76.5 303t76.5 303q0 45 -45 45q-74 0 -165 -135q-53 -78 -136 -286q-76 -193 -125 -365h-245z" />
<glyph unicode="&#xfc;" horiz-adv-x="1150" d="M14 -365q27 10 52.5 38t25.5 53q0 14 -8 34l-18 47q-8 20 -9 35q0 33 146 129q-156 4 -156 166q0 57 19 125l114 416q16 59 17 84q0 39 -20.5 50t-94.5 19v56q70 4 432 57l-199 -655q-23 -74 -22 -109q0 -53 47 -53q51 0 139 113q72 90 103 159q96 217 182 521h242 l-185 -680q-16 -61 -16 -76q0 -45 35 -45q55 0 145 155l43 -28q-57 -109 -143 -185q-102 -90 -197 -90q-137 0 -137 150q0 63 47 184l-6 8q-111 -158 -129 -180q-84 -104 -166 -141q-78 -53 -78 -86q0 -14 8 -43l23 -51q8 -25 8 -35q0 -45 -104 -105q-76 -43 -129 -59z" />
<glyph unicode="&#xff;" horiz-adv-x="2355" d="M-51 0v51q82 12 113.5 42t60.5 138l244 895q18 68 18 105q0 49 -20 63q-27 16 -127 25v51h649v-51q-127 -18 -157 -46t-60 -145l-279 -1028h477l283 1039q18 72 18 94q0 53 -53 72q-25 10 -100 14v51h649v-51q-127 -18 -156.5 -46t-60.5 -145l-279 -1028h478l282 1039 q18 72 19 94q0 53 -54 72q-25 10 -100 14v51h612v-51q-92 -14 -125 -53q-25 -29 -53 -138l-243 -901q-14 -53 -15 -100q0 -41 33 -55q27 -12 115 -21v-51h-2169z" />
<glyph unicode="&#x152;" horiz-adv-x="1480" d="M61 459q0 346 258 643q264 305 596 305q223 0 363.5 -133.5t140.5 -360.5q0 -346 -254 -641q-266 -309 -608 -309q-205 0 -340 119q-156 133 -156 377zM356 317q0 -283 203 -282q188 0 332 237q111 182 182 471q53 225 53 342q0 104 -47 172q-55 82 -164 82 q-174 0 -315 -223q-111 -176 -184 -452q-59 -223 -60 -347z" />
<glyph unicode="&#x153;" horiz-adv-x="1576" d="M-51 0v51q92 14 125 53q25 29 53 138l244 901q14 53 14 100q0 41 -29.5 54.5t-117.5 21.5v51h1390v-51q-82 -12 -110 -41q-35 -31 -64 -139l-244 -895q-18 -68 -18 -105q0 -49 22 -61q25 -18 125 -27v-51h-649v51q127 18 158 49q29 25 59 142l279 1028h-477l-283 -1039 q-18 -72 -18 -94q0 -53 53 -71q25 -10 100 -15v-51h-612z" />
<glyph unicode="&#x178;" horiz-adv-x="2355" d="M-51 0v51q82 12 113.5 42t60.5 138l244 895q18 68 18 105q0 49 -20 63q-27 16 -127 25v51h649v-51q-127 -18 -157 -46t-60 -145l-279 -1028h477l283 1039q18 72 18 94q0 53 -53 72q-25 10 -100 14v51h649v-51q-127 -18 -156.5 -46t-60.5 -145l-279 -1028h478l282 1039 q18 72 19 94q0 53 -54 72q-25 10 -100 14v51h612v-51q-92 -14 -125 -53q-25 -29 -53 -138l-250 -921q-25 -90 -24 -109q0 -98 143 -98l-112 -414l-68 6q10 47 10 84q0 129 -104.5 225.5t-237.5 96.5z" />
<glyph unicode="&#x2c6;" horiz-adv-x="1150" d="M47 137q0 57 19 125l114 416q16 59 17 84q0 39 -20.5 50t-94.5 19v56q70 4 432 57l-199 -655q-23 -74 -22 -109q0 -53 47 -53q51 0 139 113q72 90 103 159q96 217 182 521h242l-185 -680q-16 -61 -16 -76q0 -45 35 -45q55 0 145 155l43 -28q-106 -193 -250 -254 q-78 -53 -78 -86q0 -14 9 -43l22 -51q8 -25 8 -35q0 -45 -104 -105q-76 -43 -129 -59l-10 22q27 10 52 38t25 53q0 14 -8 34l-18 47q-8 20 -8 35q0 33 145 129q-133 4 -133 150q0 63 47 184l-6 8q-121 -174 -162 -219q-113 -123 -223 -123q-61 0 -105 35q-55 43 -55 131z " />
<glyph unicode="&#x2dc;" horiz-adv-x="1150" d="M82 831v56q70 4 432 57l-125 -391q-23 -70 -22 -109q0 -53 47 -53q57 0 159.5 135.5t149.5 274.5q8 18 41 119h242l-185 -680q-16 -61 -16 -76q0 -45 35 -45q55 0 145 155l43 -28q-57 -109 -143 -185q-102 -90 -197 -90q-137 0 -137 150q0 47 104 430l-6 8 q-119 -172 -153 -209q-104 -115 -215 -114q-61 0 -105 34q-55 43 -55 131q0 57 18 125l41 152q16 61 17 84q0 39 -20.5 50t-94.5 19z" />
<glyph unicode="&#x2000;" horiz-adv-x="938" />
<glyph unicode="&#x2001;" horiz-adv-x="1876" />
<glyph unicode="&#x2002;" horiz-adv-x="938" />
<glyph unicode="&#x2003;" horiz-adv-x="1876" />
<glyph unicode="&#x2004;" horiz-adv-x="625" />
<glyph unicode="&#x2005;" horiz-adv-x="469" />
<glyph unicode="&#x2006;" horiz-adv-x="312" />
<glyph unicode="&#x2007;" horiz-adv-x="312" />
<glyph unicode="&#x2008;" horiz-adv-x="234" />
<glyph unicode="&#x2009;" horiz-adv-x="375" />
<glyph unicode="&#x200a;" horiz-adv-x="104" />
<glyph unicode="&#x2010;" horiz-adv-x="681" d="M68 373l47 235h497l-47 -235h-497z" />
<glyph unicode="&#x2011;" horiz-adv-x="681" d="M68 373l47 235h497l-47 -235h-497z" />
<glyph unicode="&#x2012;" horiz-adv-x="681" d="M68 373l47 235h497l-47 -235h-497z" />
<glyph unicode="&#x2013;" horiz-adv-x="1255" d="M-51 0v51q76 12 108.5 39t55.5 109l252 934q23 84 22 98q0 49 -41 67q-27 12 -106 21v51h614q172 0 281 -76q120 -83 120 -233q0 -195 -152.5 -303.5t-408.5 -108.5q-61 0 -159 8l-115 -415q-16 -59 -17 -103q0 -59 46 -76q20 -8 102 -12v-51h-602zM553 727q43 -6 78 -6 q141 0 215 70q37 35 69 112q41 101 41 207q0 193 -172 193q-51 0 -73 -27q-10 -14 -23 -59z" />
<glyph unicode="&#x2014;" horiz-adv-x="1380" d="M61 504q0 340 228 610q244 293 606 293q88 0 210 -27.5t140 -27.5q49 0 74 55h61l-98 -481l-68 14q4 35 5 80q0 137 -66 223q-72 96 -201 96q-236 0 -413 -297q-166 -276 -166 -587q0 -379 319 -379q119 0 238 71q106 66 186 170l62 -49q-88 -137 -240 -221t-315 -84 q-217 0 -371 117q-190 145 -191 424z" />
<glyph unicode="&#x2018;" horiz-adv-x="2105" d="M61 614q0 262 273 439q240 156 522 155q111 0 178 -22q6 35 6 57q0 39 -29.5 53.5t-117.5 22.5v51h604v-51q-74 -10 -103.5 -37t-50.5 -94q102 20 189 20q219 0 354 -102q158 -120 158 -356q0 -262 -270 -435q-240 -152 -523 -151q-84 0 -180 20q-4 -37 -4 -45 q0 -57 49 -73q8 -2 101 -15v-51h-613v51q76 12 107.5 38t54.5 95q-98 -20 -191 -20q-217 0 -354 102q-160 119 -160 348zM356 528q0 -162 55.5 -237.5t178.5 -75.5q119 0 203 68l219 804q-51 70 -170 70q-233 0 -373 -227q-113 -186 -113 -402zM1096 283q63 -63 170 -64 q227 0 368 236q115 196 115 419q0 287 -231 287q-111 0 -201 -65z" />
<glyph unicode="&#x2019;" horiz-adv-x="1366" d="M-51 0v51q102 18 256 187l360 393l-164 530q-29 92 -59.5 117t-134.5 41v51h624v-51q-100 -14 -114 -19q-37 -14 -37 -63q0 -27 12 -68l94 -309l295 318q39 41 39 82q0 31 -24.5 42t-89.5 17v51h413v-51q-90 -12 -180 -107l-424 -440l172 -553q29 -90 71 -121.5 t142 -46.5v-51h-633v51q76 6 105 19q39 18 39 63q0 33 -11 66l-102 336l-303 -336q-31 -35 -31 -66q0 -70 131 -82v-51h-446z" />
<glyph unicode="&#x201a;" horiz-adv-x="1114" d="M61 369q0 227 166 395q180 186 471 186q365 1 365 -202q0 -178 -287 -218v-2q82 -14 146 -67q72 -63 71 -146q0 -180 -178 -270q-150 -74 -397 -74q-156 0 -256.5 105.5t-100.5 292.5zM309 301q0 -264 180 -264q106 0 166 80q53 74 54 200q0 82 -47.5 134.5t-135.5 46.5 l-106 -9l14 58l84 8q162 16 229.5 64.5t67.5 150.5q0 139 -149 139q-156 0 -256.5 -178t-100.5 -430z" />
<glyph unicode="&#x201c;" horiz-adv-x="1333" d="M106 0v51q117 2 156 39q29 29 62 146l292 1064q-287 0 -436 -288l-57 8l82 350h1128l-73 -393l-58 8q0 313 -282 315l-283 -1030q-25 -90 -25 -131q0 -49 30 -64.5t142 -23.5v-51h-678z" />
<glyph unicode="&#x201d;" horiz-adv-x="1484" d="M-92 104q0 66 39 110t96 44q121 0 121 -104q0 -39 -23 -72q12 -2 37 -2q31 0 82 27.5t86 66.5l168 191l-215 854q-27 106 -111 106v45h668v-45q-186 0 -186 -76q0 -27 14 -84l117 -465l350 408q76 88 76 141q0 76 -146 76v45h453v-45q-92 0 -221 -149l-836 -971 q-209 -242 -424 -242q-145 0 -145 141z" />
<glyph unicode="&#x201e;" horiz-adv-x="915" d="M61 223q0 129 103 217q86 76 225 107q244 53 244 215q0 111 -90 110q-123 0 -199 -84l-35 35q117 127 346 127q90 0 144.5 -48t54.5 -114q0 -119 -111 -188q-80 -49 -258 -92q-207 -49 -206 -256q0 -82 36 -133q43 -61 123 -62q119 0 283 166l33 -33q-104 -113 -160 -147 q-111 -72 -260 -72q-125 0 -199 65.5t-74 186.5z" />
<glyph unicode="&#x2022;" horiz-adv-x="1337" d="M-51 0v51q88 14 118.5 48t59.5 143l244 901q14 53 14 100q0 39 -29.5 53.5t-117.5 22.5v51h667q340 0 467 328h51l-100 -393h-436q-61 0 -123 -39q-68 -43 -84 -107l-250 -915q-18 -68 -18 -105q0 -57 49 -73q8 -2 100 -15v-51h-612z" />
<glyph unicode="&#x2026;" horiz-adv-x="1576" d="M-51 0v51q92 14 125 53q25 29 53 138l244 901q14 53 14 100q0 41 -29.5 54.5t-117.5 21.5v51h649v-51q-121 -14 -151.5 -40t-61.5 -140l-187 -684l656 655l8 33q14 57 14 100q0 72 -147 76v51h610v-51q-82 -12 -110 -41q-35 -31 -64 -139l-244 -895q-18 -68 -18 -105 q0 -49 22 -61q25 -18 125 -27v-51h-649v51q127 18 158 49q29 25 59 142l183 676l-656 -656l-4 -18q-23 -100 -22 -107q0 -53 53 -71q25 -10 100 -15v-51h-612zM831 1507q0 43 30 75t87 32q47 0 78 -30t31 -71q0 -25 -17 -53q68 0 142 37q106 53 166 133q8 12 20 12 q16 0 16 -16q0 -8 -8 -20q-51 -78 -176 -142q-104 -53 -242 -53q-127 0 -127 96z" />
<glyph unicode="&#x202f;" horiz-adv-x="375" />
<glyph unicode="&#x2039;" horiz-adv-x="1230" d="M-51 0v51q88 14 118.5 48t59.5 143l244 901q14 53 14 100q0 39 -29.5 53.5t-117.5 22.5v51h604v-51q-86 -12 -117 -49q-25 -29 -51 -131l-101 -383h66q195 0 324 -51q206 -84 206 -287q0 -170 -127 -283q-154 -135 -448 -135h-645zM412 139q0 -72 123 -71q147 0 237 116 q86 109 86 273q0 131 -70 182q-61 43 -233 51l-137 -502q-6 -23 -6 -49z" />
<glyph unicode="&#x203a;" horiz-adv-x="1495" d="M0 254l72 53q59 -121 139 -178q109 -80 289 -80q385 0 551 617h-521l29 102h518q33 143 33 260q2 326 -236 326q-168 0 -317 -105q-139 -100 -293 -315h-51l127 471h45q23 -55 27 -62q14 -23 49 -22q33 0 131 33q160 53 297 53q231 0 375 -127q170 -150 170 -449 q0 -377 -306 -632q-281 -236 -628 -236q-207 0 -328 78q-106 68 -172 213z" />
<glyph unicode="&#x205f;" horiz-adv-x="469" />
<glyph unicode="&#x2122;" horiz-adv-x="1380" d="M61 504q0 340 228 610q244 293 606 293q88 0 210 -27.5t140 -27.5q49 0 74 55h61l-98 -481l-68 14q4 35 5 80q0 137 -66 223q-72 96 -201 96q-174 0 -323 -174q-137 -158 -209 -397h518l-29 -102h-514q-23 -113 -22 -211q0 -379 319 -379q119 0 238 71q106 66 186 170 l62 -49q-88 -137 -240 -221t-315 -84q-217 0 -371 117q-190 145 -191 424z" />
<glyph unicode="&#x25fc;" horiz-adv-x="952" d="M0 0v952h952v-952h-952z" />
</font>
</defs>
</svg>
