<?xml version="1.0" standalone="no"?>
<!DOCTYPE svg PUBLIC "-//W3C//DTD SVG 1.1//EN" "http://www.w3.org/Graphics/SVG/1.1/DTD/svg11.dtd" >
<svg xmlns="http://www.w3.org/2000/svg" xmlns:xlink="http://www.w3.org/1999/xlink" version="1.1">
<metadata></metadata>
<defs>
<font id="vremyafwfregular" horiz-adv-x="1024" >
<font-face units-per-em="2048" ascent="1638" descent="-410" />
<missing-glyph horiz-adv-x="512" />
<glyph horiz-adv-x="0" />
<glyph unicode="&#xd;" horiz-adv-x="512" />
<glyph unicode=" "  horiz-adv-x="512" />
<glyph unicode="&#x09;" horiz-adv-x="512" />
<glyph unicode="&#xa0;" horiz-adv-x="512" />
<glyph unicode="!" horiz-adv-x="681" d="M225 1214q0 164 115 164t115 -164q0 -20 -17 -159l-82 -693h-32l-82 693q-16 139 -17 159zM227 84q0 47 34 80t79 33q47 0 80 -33t33 -80q0 -45 -33 -78t-80 -33t-80 33t-33 78z" />
<glyph unicode="&#x22;" horiz-adv-x="798" d="M188 1300q0 98 56 99h32q56 -1 56 -99q0 -4 -15 -141l-36 -350h-41l-37 350q-14 135 -15 141zM504 1300q0 98 55 99h33q55 -1 55 -99q0 -4 -14 -141l-37 -350h-41l-37 350q-14 135 -14 141z" />
<glyph unicode="#" horiz-adv-x="1116" d="M53 430l21 72h217l94 350h-219l20 72h220l116 432h121l-117 -432h215l117 432h121l-117 -432h219l-20 -72h-217l-94 -350h219l-21 -72h-217l-117 -432l-120 2l114 430h-213l-116 -432l-121 2l114 430h-219zM414 502h213l94 350h-213z" />
<glyph unicode="$" d="M92 106v267h33q16 -141 107.5 -226.5t238.5 -87.5v576q-178 102 -240 160q-125 115 -125 258q0 121 110 211t255 92v127h70v-127q195 -4 327 -105v-231h-28q-18 119 -99.5 195.5t-199.5 84.5v-499q211 -117 266 -166q131 -112 131 -270q0 -164 -119 -263 q-106 -90 -278 -102v-178h-70v178q-203 0 -379 106zM264 1096q0 -88 70 -158q35 -36 137 -104v466q-66 0 -129 -49q-78 -61 -78 -155zM541 59q106 12 169.5 81t63.5 171q0 100 -76 176q-41 41 -157 113v-541z" />
<glyph unicode="%" horiz-adv-x="1669" d="M102 870q0 170 129 322q137 162 320 162q90 0 153.5 -55.5t176.5 -55.5q90 0 179 40t142 103h88l-798 -1417h-103l713 1274q-133 -55 -205 -55q-82 0 -145 24q16 -66 16 -102q0 -203 -129 -361.5t-293 -158.5q-98 0 -168 74q-76 80 -76 206zM258 813q0 -152 127 -151 q133 0 233 165q93 152 93 312q0 35 -17 88q-57 18 -78 33q-53 37 -71 36q-68 0 -172 -153q-115 -170 -115 -330zM903 276q0 172 137.5 328t305.5 156q221 0 221 -236q0 -199 -121 -360q-127 -168 -291 -168q-115 0 -183.5 75.5t-68.5 204.5zM1059 207q0 -143 137 -144 q123 0 223 168q92 150 92 289q0 68 -38.5 121t-108.5 53q-113 0 -215 -188q-90 -168 -90 -299z" />
<glyph unicode="&#x26;" horiz-adv-x="1593" d="M84 295q0 274 403 473q-74 195 -73 285q0 137 89 234t224 97q121 0 202 -67.5t81 -179.5q0 -209 -318 -355q115 -219 273 -415q184 215 184 364q0 100 -129 100v39h442v-39q-104 -8 -166 -86q-4 -4 -86 -151q-45 -80 -112 -176q-80 -111 -82 -115q166 -186 313 -186 q109 0 187 108l34 -28q-72 -121 -141 -172q-76 -55 -178 -56q-168 0 -348 187q-190 -184 -437 -185q-168 0 -265 85t-97 239zM279 365q0 -119 77.5 -199t184.5 -80q151 0 290 123q-143 176 -313 487q-119 -76 -172 -137q-68 -84 -67 -194zM580 1141q0 -127 82 -291 q233 115 233 295q0 70 -44 119t-114 49q-68 0 -112.5 -47t-44.5 -125z" />
<glyph unicode="'" horiz-adv-x="368" d="M111 1280q0 98 55 98h33q55 0 55 -98q0 -4 -14 -141l-37 -351h-41l-37 351q-14 135 -14 141z" />
<glyph unicode="(" horiz-adv-x="681" d="M96 530q0 260 132 479.5t374 368.5l33 -32q-360 -246 -361 -816q0 -629 355 -870l-33 -33q-240 154 -370 387.5t-130 515.5z" />
<glyph unicode=")" horiz-adv-x="681" d="M47 -344q360 246 361 815q0 629 -355 870l33 33q240 -154 370 -387t130 -516q0 -260 -132 -479t-374 -369z" />
<glyph unicode="*" horiz-adv-x="1034" d="M137 788q0 43 43 66q35 18 111 33.5t117 40.5l53 30l-53 31q-41 25 -117 39t-111 35q-43 25 -43 67q0 29 20.5 51.5t49.5 22.5q23 0 47 -14q35 -20 85 -77.5t91 -82.5l55 -33v64q0 47 -25.5 120.5t-25.5 112.5q0 80 74 80t74 -80q0 -39 -26 -112.5t-26 -120.5v-62l56 31 q43 25 93 82t83 78q25 14 47 14q29 0 49.5 -22.5t20.5 -51.5q0 -43 -43 -67q-35 -20 -111 -34.5t-117 -39.5l-53 -31l53 -30q41 -25 117 -40.5t111 -33.5q43 -23 43 -66q0 -31 -21.5 -52t-50.5 -21q-23 0 -45 12q-35 20 -86 78.5t-90 81.5l-56 33v-64q0 -47 26 -120.5 t26 -112.5q0 -80 -74 -80t-74 80q0 39 25.5 112.5t25.5 120.5v62l-55 -31q-41 -23 -91 -81t-85 -79q-23 -12 -45 -12q-29 0 -50.5 21.5t-21.5 51.5z" />
<glyph unicode="+" horiz-adv-x="1155" d="M61 469v131h451v449h131v-449h451v-131h-451v-455h-131v455h-451z" />
<glyph unicode="," horiz-adv-x="569" d="M119 86q0 51 37 84t92 33t104 -43q60 -56 60 -144q0 -188 -232 -321l-22 45q25 0 92 65q78 80 78 152q0 25 -25 25q-12 0 -34.5 -5.5t-39.5 -5.5q-49 0 -79.5 34t-30.5 81z" />
<glyph unicode="-" horiz-adv-x="681" d="M88 397v129h504v-129h-504z" />
<glyph unicode="." horiz-adv-x="569" d="M147 84q0 47 34 80t79 33q47 0 80 -33t33 -80q0 -45 -33 -78t-80 -33t-80 33t-33 78z" />
<glyph unicode="/" horiz-adv-x="622" d="M0 -16l512 1413h104l-512 -1413h-104z" />
<glyph unicode="0" d="M49 682q0 270 98 457q127 238 375 237q205 0 331 -196.5t126 -501.5q0 -260 -100 -457q-127 -248 -365 -248q-217 0 -344 205q-121 193 -121 504zM254 655q0 -621 270 -620q150 0 207 196q41 142 41 435q0 649 -258 649q-260 0 -260 -660z" />
<glyph unicode="1" d="M231 1153v41l369 184l10 -10v-1204q0 -70 42 -101.5t153 -31.5v-31h-561v31q111 0 152.5 31.5t41.5 101.5v923q0 59 -6 76q-12 37 -55 37q-51 0 -146 -47z" />
<glyph unicode="2" d="M61 0v25l275 294q168 180 231 277q117 174 117 330q0 131 -73.5 212t-194.5 81q-215 0 -307 -269l-43 15q31 197 151 307q115 104 275 104q162 0 268 -106.5t106 -257.5q0 -141 -88 -285q-66 -104 -227 -274l-281 -295h426q119 0 155 18.5t97 114.5l29 -15l-117 -276 h-799z" />
<glyph unicode="3" d="M88 90q0 74 74 74q45 0 143 -58.5t164 -58.5q117 0 190 94q70 86 70 209q0 156 -101.5 240t-262.5 84q-37 0 -56 -6v30q164 66 230 115q117 88 116 217q0 98 -69.5 158.5t-171.5 60.5q-170 0 -291 -219l-31 10q33 145 143.5 240.5t260.5 95.5q137 0 229 -81t92 -199 q0 -154 -190 -283q262 -110 262 -356q0 -199 -144 -334q-158 -152 -430 -152q-227 0 -227 119z" />
<glyph unicode="4" d="M18 340v133l646 901h94v-901h207v-133h-207v-340h-158v340h-582zM102 473h498v696z" />
<glyph unicode="5" d="M66 98q0 82 86 82q59 0 151 -66.5t146 -66.5q106 -2 192 101.5t86 254.5q0 221 -207 340q-164 92 -375 93q-6 0 -10 9t-2 15l219 488h404q55 0 73.5 7t53.5 46l16 -17l-74 -165q-12 -29 -43 -29h-411l-84 -176q248 -27 401 -135q193 -137 193 -381t-168 -389 q-158 -137 -396 -138q-252 0 -251 127z" />
<glyph unicode="6" d="M68 580q0 311 227 546q256 264 618 265v-41q-80 0 -186 -45q-119 -47 -188 -121q-84 -88 -152 -213q-61 -113 -74 -185q129 84 262 84q172 0 277 -106q109 -112 109 -309q0 -184 -113 -328q-125 -156 -311 -156t-324 164q-145 174 -145 445zM260 512q0 -195 68 -328 q80 -154 221 -153q223 0 223 350q0 156 -57 262q-74 135 -219 135t-199 -80q-37 -55 -37 -186z" />
<glyph unicode="7" d="M35 1051l119 305h759v-35l-432 -1337h-127l391 1214h-417q-106 0 -156 -35q-37 -27 -100 -131z" />
<glyph unicode="8" d="M106 303q0 131 89 225q37 41 180 146q-88 84 -174 168q-78 92 -78 215t102 215q113 98 291 98q139 0 240 -74q109 -80 108 -213q0 -121 -86 -204q-57 -57 -190 -125q160 -125 213 -189q104 -123 104 -258q0 -152 -117.5 -244t-289.5 -92q-150 0 -262 84q-129 94 -130 248 zM264 324q0 -131 68.5 -213t185.5 -82q102 0 166 62.5t64 162.5q0 125 -113 225q-102 76 -205 152q-8 -4 -24 -19q-141 -111 -142 -288zM276 1118q0 -154 252 -327q191 122 191 296q0 104 -62.5 165t-167.5 61q-88 0 -150.5 -58.5t-62.5 -136.5z" />
<glyph unicode="9" d="M61 897q0 176 97 313q117 166 323 166q231 0 361 -194q104 -160 104 -367q0 -358 -229.5 -599t-595.5 -261l-6 43q463 70 620 600q-139 -113 -303 -113q-168 0 -269.5 112t-101.5 300zM250 975q0 -401 262 -402q55 0 139 40t86 77q6 109 6 168q0 178 -49 297 q-70 164 -225 164q-121 0 -176 -119q-43 -90 -43 -225z" />
<glyph unicode=":" horiz-adv-x="569" d="M170 84q0 47 34 80t79 33q47 0 79.5 -33t32.5 -80q0 -45 -32.5 -78t-79.5 -33t-80 33t-33 78zM170 817q0 47 34 80t79 33q47 0 79.5 -33t32.5 -80q0 -45 -32.5 -77.5t-79.5 -32.5t-80 32.5t-33 77.5z" />
<glyph unicode=";" horiz-adv-x="569" d="M166 86q0 51 37 84t92 33t104 -43q60 -56 60 -144q0 -188 -232 -321l-22 45q25 0 92 65q78 80 78 152q0 25 -25 25q-12 0 -34.5 -5.5t-39.5 -5.5q-49 0 -79.5 34t-30.5 81zM170 817q0 47 34 80t79 33q47 0 79.5 -33t32.5 -80q0 -45 -32.5 -77.5t-79.5 -32.5t-80 32.5 t-33 77.5z" />
<glyph unicode="&#x3c;" horiz-adv-x="1146" d="M61 483v58l1024 512v-162l-757 -379l757 -379v-162z" />
<glyph unicode="=" horiz-adv-x="1155" d="M61 270v131h1033v-131h-1033zM61 668v131h1033v-131h-1033z" />
<glyph unicode="&#x3e;" horiz-adv-x="1146" d="M61 -29v162l758 379l-758 379v162l1024 -512v-58z" />
<glyph unicode="?" horiz-adv-x="909" d="M96 1077q0 117 90 201q100 94 269 94q162 0 260 -90t98 -233q0 -100 -88 -238q-82 -117 -166 -233q-88 -139 -88 -248h-43q0 152 96.5 372t96.5 338q0 117 -52 189q-59 84 -172 84q-66 0 -125 -39t-59 -86q0 -31 38 -76t38 -84q0 -35 -26.5 -59.5t-61.5 -24.5t-66 31 q-39 37 -39 102zM334 84q0 47 33.5 80t78.5 33q47 0 80 -33t33 -80q0 -45 -32.5 -78t-80.5 -33q-47 0 -79.5 33t-32.5 78z" />
<glyph unicode="@" horiz-adv-x="1886" d="M217 641q0 324 258 541q246 209 584 209q281 0 470 -159t189 -411q0 -193 -121 -362q-127 -178 -292 -178q-100 0 -152 57q-41 45 -43 106l-4 2q-12 -53 -80 -106q-76 -59 -154 -59q-111 0 -184 75q-80 82 -80 217q0 176 131 319.5t285 143.5q78 0 135 -45q51 -41 51 -86 h4l29 105h170l-143 -475q-18 -61 -19 -80q0 -39 28 -67t64 -28q106 0 204 151t98 318q0 236 -191 377q-166 123 -385 123q-283 0 -494 -201q-219 -207 -219 -493q0 -276 197 -442q182 -158 459 -158q307 0 504 162l40 -58q-133 -98 -270 -135q-119 -33 -305 -33 q-311 0 -532 185q-231 193 -232 485zM784 508q0 -154 119 -154q109 0 195 201q69 166 69 285t-106 118q-94 0 -185.5 -151.5t-91.5 -298.5z" />
<glyph unicode="A" horiz-adv-x="1476" d="M37 0v41q74 0 121 57q31 39 73 138l488 1138h45l522 -1198q31 -70 57 -96q39 -39 105 -39v-41h-518v41q137 0 137 70q0 39 -41 137l-80 192h-530l-80 -194q-33 -80 -33 -113q0 -92 139 -92v-41h-405zM453 526h458l-229 557z" />
<glyph unicode="B" horiz-adv-x="1310" d="M37 0v41q193 0 192 131v1008q0 131 -192 131v41h594q510 0 510 -342q0 -252 -275 -301q145 -27 240 -109q104 -90 104 -223q0 -184 -130 -280.5t-369 -96.5h-674zM438 172q0 -66 43 -86q29 -12 121 -12q367 0 367 295q0 166 -117 230.5t-414 64.5v-492zM438 745 q293 0 390.5 52t97.5 204q0 141 -88 209t-289 68q-76 0 -93.5 -14.5t-17.5 -83.5v-435z" />
<glyph unicode="C" horiz-adv-x="1355" d="M271.5 1180.5q199.5 205.5 514.5 205.5q109 0 228 -33.5t133 -33.5q27 0 54.5 19.5t31.5 45.5h43l16 -460h-49q-111 376 -436 376h-2q-244 0 -377 -198q-115 -170 -115 -418q0 -305 156 -469q137 -145 356 -145q250 0 453 204l41 -41q-127 -131 -217 -182 q-139 -80 -326 -80q-309 0 -502 185q-202 194 -202 519q0 300 199.5 505.5z" />
<glyph unicode="D" horiz-adv-x="1478" d="M37 0v41q111 6 145.5 43t34.5 145v875q0 125 -32.5 165t-147.5 42v41h598q307 0 512 -140q260 -176 260 -536q0 -299 -190 -479q-207 -197 -592 -197h-588zM426 145q0 -51 45 -65q18 -6 88 -6q293 0 453 147q170 154 170 451q0 281 -172 444.5t-461 163.5q-72 0 -94 -10 q-29 -14 -29 -60v-1065z" />
<glyph unicode="E" horiz-adv-x="1265" d="M37 0v41q178 0 178 131v1008q0 131 -178 131v41h1079l10 -287h-51q-31 129 -69 166q-51 47 -195 47h-334q-41 0 -49 -29q-4 -12 -4 -69v-430h328q102 0 144 35.5t65 158.5h49v-471h-49q-23 123 -68 162q-39 33 -141 33h-328v-496q0 -61 37 -78q27 -12 137 -12h147 q170 0 269.5 57.5t156.5 204.5h58l-86 -344h-1106z" />
<glyph unicode="F" horiz-adv-x="1163" d="M37 0v41q178 0 178 131v1008q0 131 -178 131v41h1079l10 -287h-51q-31 129 -69 166q-51 47 -195 47h-334q-41 0 -49 -29q-4 -12 -4 -69v-430h301q102 0 144 35.5t65 158.5h49v-471h-49q-23 123 -68 162q-39 33 -141 33h-301v-496q0 -82 53 -109q31 -16 123 -22v-41h-563z " />
<glyph unicode="G" horiz-adv-x="1501" d="M271.5 1178.5q199.5 201.5 514.5 201.5q109 0 228 -33.5t133 -33.5q27 0 54.5 19.5t31.5 45.5h49l14 -434h-47q-129 354 -438 354q-221 0 -356 -161q-141 -170 -142 -457q0 -301 160 -471q141 -147 350 -148q170 0 279 74q12 8 12 58v331q0 100 -41 133q-33 23 -137 29 v41h524v-41q-82 0 -113.5 -37t-31.5 -125v-393q0 -33 -152 -90q-180 -70 -387 -70q-260 0 -461 162q-243 194 -243 540q0 304 199.5 505.5z" />
<glyph unicode="H" horiz-adv-x="1474" d="M37 0v41q180 0 180 131v1008q0 131 -180 131v41h569v-41q-180 0 -180 -131v-447h621v447q0 131 -181 131v41h570v-41q-180 0 -181 -131v-1008q0 -131 181 -131v-41h-570v41q180 0 181 131v471h-621v-471q0 -131 180 -131v-41h-569z" />
<glyph unicode="I" horiz-adv-x="671" d="M37 0v41q193 0 192 131v1008q0 131 -192 131v41h594v-41q-193 0 -193 -131v-1008q0 -131 193 -131v-41h-594z" />
<glyph unicode="J" horiz-adv-x="800" d="M25 121q0 96 96 96q63 0 100 -85t74 -85q65 0 65 180v6v924q0 74 -30 109q-43 45 -160 45v41h590v-41q-117 0 -160 -45q-31 -35 -31 -109v-809q0 -172 -102 -276q-94 -100 -238 -101q-90 0 -147 40t-57 110z" />
<glyph unicode="K" horiz-adv-x="1490" d="M37 0v41q188 0 188 131v1008q0 131 -188 131v41h586v-41q-188 0 -189 -131v-469l443 409q77 71 77 119q0 72 -137 72v41h531v-41q-98 0 -158 -39q-66 -41 -313 -271l-234 -215l553 -598q137 -147 254 -147v-41h-623v41q138 0 138 43q0 49 -76 133l-393 430l-62 -55v-420 q0 -131 189 -131v-41h-586z" />
<glyph unicode="L" horiz-adv-x="1265" d="M37 0v41q178 0 178 131v1008q0 131 -178 131v41h577v-41q-190 0 -190 -129v-1010q0 -61 37 -78q27 -12 137 -12h147q170 0 269.5 57.5t156.5 204.5h58l-86 -344h-1106z" />
<glyph unicode="M" horiz-adv-x="1818" d="M37 0v41q197 0 196 197v938q0 68 -32 96q-45 39 -158 39v41h401l469 -1016l457 1016h406v-41q-104 0 -144 -37q-33 -29 -33 -94v-1008q0 -131 181 -131v-41h-570v41q180 0 181 131v993l-525 -1165h-28l-514 1118v-880q0 -197 196 -197v-41h-483z" />
<glyph unicode="N" horiz-adv-x="1505" d="M37 0v41q199 0 199 209v967q-53 68 -99 86q-29 10 -98 10v39h354l783 -979v729q0 209 -199 209v41h487v-41q-199 0 -198 -209v-1131h-33l-909 1137v-858q0 -209 198 -209v-41h-485z" />
<glyph unicode="O" horiz-adv-x="1484" d="M72 684q0 295 182 494q187 208 491 208h3q303 0 489 -208q176 -197 176 -494t-176 -500q-186 -213 -489 -213t-494 213q-182 203 -182 500zM305 684q0 -279 109 -451q119 -188 334 -188t329 188q103 170 103 451q0 279 -105 444q-115 184 -327 185q-217 0 -334 -185 q-109 -168 -109 -444z" />
<glyph unicode="P" horiz-adv-x="1161" d="M37 0v41q178 0 178 131v1008q0 131 -178 131v41h579q213 0 351 -90q151 -99 151 -275q0 -201 -155 -305q-145 -96 -406 -96q-80 0 -133 6v-420q0 -131 192 -131v-41h-579zM424 676q45 -6 119 -6q19 -1 37 -1q311 0 311 312q0 297 -367 297q-74 0 -87 -12.5t-13 -85.5 v-504z" />
<glyph unicode="Q" horiz-adv-x="1484" d="M72 684q0 295 182 494q187 208 491 208h3q303 0 489 -208q176 -197 176 -494q0 -264 -141 -457q-150 -203 -402 -245q217 -285 566 -308v-41h-138q-223 0 -391 72q-211 88 -385 301q-209 72 -329.5 258.5t-120.5 419.5zM305 684q0 -279 109 -451q119 -188 334 -188 t329 188q103 170 103 451q0 279 -105 444q-115 184 -327 185q-217 0 -334 -185q-109 -168 -109 -444z" />
<glyph unicode="R" horiz-adv-x="1392" d="M37 0v41q178 0 178 131v981q0 84 -38 120t-140 38v41h579q508 0 508 -363q0 -270 -370 -340l407 -499q88 -109 191 -109v-41h-338l-512 627q-79 -5 -79 -6h1v-449q0 -131 186 -131v-41h-573zM424 698q225 0 334 54q143 67 143 243q0 158 -106 226q-90 57 -271 57 q-72 0 -86 -13.5t-14 -84.5v-482z" />
<glyph unicode="S" horiz-adv-x="1052" d="M37 412h49q53 -158 152 -254q115 -111 266 -111q111 0 175 66.5t64 165.5q0 139 -170 258q-158 100 -317 198q-170 131 -170 297q0 152 105.5 253t263.5 101q80 0 173 -32.5t120 -32.5q45 0 65 63h39l47 -436h-51q-39 162 -136.5 257t-232.5 95q-94 0 -150.5 -51 t-56.5 -135q0 -127 177 -246q162 -102 325 -206q176 -140 176 -316q0 -150 -110 -256q-123 -119 -322 -119q-82 0 -186.5 37t-126.5 37q-41 0 -64 -74h-45z" />
<glyph unicode="T" horiz-adv-x="1257" d="M37 1004l12 348h1155l13 -348h-50q-59 195 -117.5 230.5t-318.5 35.5v-1098q0 -131 193 -131v-41h-594v41q193 0 192 131v1098q-260 0 -318.5 -36t-117.5 -230h-49z" />
<glyph unicode="U" horiz-adv-x="1492" d="M45 1311v41h571v-41q-115 -2 -149.5 -39t-34.5 -131v-692q0 -385 354 -386q381 0 381 412v592q0 139 -38.5 190.5t-155.5 53.5v41h479v-41q-115 -12 -152 -49q-40 -44 -40 -169v-6v-608q0 -508 -523 -508q-246 0 -380 124t-134 368v676q0 102 -39 139q-37 29 -139 33z " />
<glyph unicode="V" horiz-adv-x="1472" d="M37 1311v41h549v-41q-154 0 -154 -68q0 -39 53 -158l349 -776l280 750q45 121 45 168q0 84 -145 84v41h418v-41q-61 0 -93 -23q-43 -29 -77 -119l-471 -1198h-35l-518 1155q-47 104 -82 140q-43 45 -119 45z" />
<glyph unicode="W" horiz-adv-x="1984" d="M37 1311v41h508v-41q-131 0 -131 -70q0 -33 47 -156l280 -729l201 592l-96 252q-43 111 -178 111v41h549v-41q-70 0 -99 -11q-51 -16 -51 -69q0 -20 25 -84l311 -813l244 756q28 85 28 126q0 95 -141 95v41h410v-41q-68 0 -105 -30t-65 -112l-422 -1198h-33l-326 848 l-311 -848h-33l-375 1033q-63 176 -96 227q-52 80 -133 80h-8z" />
<glyph unicode="X" horiz-adv-x="1486" d="M37 0v41q68 0 110.5 29.5t124.5 130.5l373 458l-328 480q-57 82 -90 112q-70 59 -166 60v41h621v-41q-162 0 -162 -58q0 -43 45 -108l219 -318l234 285q65 79 65 135q0 63 -133 64v41h482v-41q-152 0 -277 -158l-317 -399l374 -543q70 -102 116 -136t118 -34v-41h-602v41 q86 0 117.5 12.5t31.5 46.5q0 43 -57 127l-238 351l-286 -363q-53 -68 -54 -104q0 -70 152 -70v-41h-473z" />
<glyph unicode="Y" horiz-adv-x="1464" d="M37 1311v41h575v-41q-143 0 -143 -62q0 -37 51 -112l285 -416l289 446q28 43 28 80q0 63 -139 64v41h440v-41q-129 -2 -243 -178l-338 -519v-413q0 -92 43 -126t170 -34v-41h-625v41q121 0 162 34t41 126v399l-359 520q-63 92 -96 125q-68 66 -141 66z" />
<glyph unicode="Z" horiz-adv-x="1290" d="M37 0v25l899 1251h-481q-135 0 -209 -61.5t-101 -210.5h-59l45 348h1079v-23l-899 -1253h490q186 0 271 59.5t124 224.5h53l-51 -360h-1161z" />
<glyph unicode="[" horiz-adv-x="743" d="M102 -328v1680h437v-54h-177q-100 0 -100 -100v-1376q0 -98 92 -98h185v-52h-437z" />
<glyph unicode="\" horiz-adv-x="1009" d="M55 1397h148l762 -1397h-148z" />
<glyph unicode="]" horiz-adv-x="743" d="M205 -276h184q92 0 92 98v1376q0 100 -100 100h-176v54h436v-1680h-436v52z" />
<glyph unicode="^" horiz-adv-x="921" d="M51 518l381 866h57l381 -866h-131l-278 647l-279 -647h-131z" />
<glyph unicode="_" d="M0 -172h1059v-100h-1059v100z" />
<glyph unicode="`" horiz-adv-x="579" d="M37 1296q0 27 21.5 47.5t52.5 20.5q35 0 102 -68l285 -284h-84l-293 186q-84 53 -84 98z" />
<glyph unicode="a" horiz-adv-x="911" d="M72 197q0 197 254 299l252 102v113q0 182 -154 182q-57 0 -102.5 -26.5t-45.5 -71.5q0 -14 5.5 -37t5.5 -39q0 -41 -25.5 -68.5t-58.5 -27.5q-96 0 -97 102q0 66 74 131q98 88 264 88q305 0 306 -309v-463q0 -82 61 -82q41 0 86 45v-57q-78 -100 -178 -101 q-129 0 -139 154q-43 -55 -137.5 -104.5t-159.5 -49.5q-86 0 -148.5 63.5t-62.5 156.5zM252 260q0 -76 41 -119t106 -43q57 0 118 37t61 84v328q-326 -104 -326 -287z" />
<glyph unicode="b" horiz-adv-x="1064" d="M23 1272v28q170 41 325 99l10 -8v-607h7q18 51 86 99q86 61 192 61q152 0 256.5 -125t104.5 -315q0 -219 -139.5 -373t-356.5 -154q-106 0 -214 45.5t-108 92.5v1046q0 61 -18 88t-74 27q-18 0 -71 -4zM358 135q0 -23 54 -51q63 -33 143 -33q133 0 207 111q63 96 63 256 q0 154 -61 264q-72 129 -197 129q-78 0 -143.5 -41t-65.5 -94v-541z" />
<glyph unicode="c" horiz-adv-x="880" d="M61 438q0 203 127 350q133 156 328 156q131 0 221 -65q84 -61 84 -140q0 -45 -29.5 -69.5t-58.5 -24.5q-86 0 -106 94q-18 84 -29 103q-31 47 -111 47q-135 0 -206 -129q-57 -102 -58 -234q0 -170 87 -286.5t227 -116.5q164 0 284 194l33 -16q-84 -170 -176 -247 t-217 -77q-178 0 -289 130.5t-111 330.5z" />
<glyph unicode="d" horiz-adv-x="1060" d="M61 428q0 215 126 365.5t302 150.5q123 0 211 -88v303q0 61 -18 88t-74 27q-18 0 -71 -4v28q170 41 325 99l10 -2v-1174q0 -104 97 -104q29 0 49 10v-39l-307 -111l-11 9v125q-113 -133 -270 -134q-152 0 -260.5 127t-108.5 324zM236 504q0 -170 71 -285 q82 -127 225 -127q68 0 118 43t50 86v461q0 86 -62.5 146.5t-139.5 60.5q-129 0 -201 -123q-61 -104 -61 -262z" />
<glyph unicode="e" horiz-adv-x="911" d="M61 453q0 199 120 345t306 146q156 0 257.5 -103.5t101.5 -271.5h-633q0 -178 82 -303q92 -141 250 -141q162 0 307 213l33 -16q-59 -152 -162 -242q-115 -102 -262 -103q-188 0 -297 146q-102 131 -103 330zM217 637h418q-18 237 -197 237h-2q-184 0 -219 -237z" />
<glyph unicode="f" horiz-adv-x="688" d="M37 0v29q104 10 139 40.5t35 123.5v657h-174v68h174v49q0 201 90 315.5t252 114.5q84 0 152 -33q75 -39 75 -98q0 -33 -24.5 -58.5t-57.5 -25.5q-45 0 -95 79.5t-101 79.5q-119 0 -119 -161v-262h242v-68h-242v-657q0 -88 33 -119q39 -37 155 -45v-29h-534z" />
<glyph unicode="g" horiz-adv-x="1019" d="M43 -205q0 63 98 150q51 41 105 82q-109 47 -109 106q0 49 66 111q57 47 114 92q-188 80 -188 282q0 129 92 224q100 102 256 102q53 0 137 -26q57 -18 113 -37q59 -6 96 -7h125v-81h-174q47 -98 47 -175q0 -131 -101.5 -220t-244.5 -89q-20 0 -55 5t-45 5 q-18 0 -67.5 -39.5t-49.5 -64.5q0 -55 170 -55h58h61q176 0 262 -35q123 -51 123 -186q0 -164 -193 -265q-160 -84 -340 -84q-160 0 -264 68q-92 61 -92 137zM195 -147q0 -150 315 -150q152 0 259.5 58.5t107.5 140.5q0 88 -242 88q-223 0 -346 26q-94 -90 -94 -163z M299 674q0 -115 51 -207q59 -109 160 -109q149 0 149 201q0 84 -34 178q-57 150 -172 150q-154 0 -154 -213z" />
<glyph unicode="h" horiz-adv-x="1064" d="M23 1270v28q170 41 325 99l10 -8v-605h4q115 160 291 160q246 0 246 -307v-453q0 -74 23 -106q27 -41 100 -49v-29h-430v29q88 12 115 49q20 29 20 106v453q0 197 -143 197q-61 0 -131 -43q-59 -37 -95 -82v-535q0 -88 27 -110.5t125 -34.5v-29h-481v29q98 16 127.5 40.5 t29.5 104.5v985q0 61 -18 88t-74 27q-18 0 -71 -4z" />
<glyph unicode="i" horiz-adv-x="552" d="M29 0v29q98 16 127.5 40.5t29.5 104.5v475q0 82 -4 105q-14 59 -67 59q-18 0 -80 -18v34q129 33 317 115l6 -4v-766q0 -88 27 -110.5t125 -34.5v-29h-481zM154 1290q0 43 30.5 74t73.5 31t73.5 -31t30.5 -74t-30.5 -73.5t-73.5 -30.5t-73.5 30.5t-30.5 73.5z" />
<glyph unicode="j" horiz-adv-x="552" d="M-174 -295q0 41 26.5 64.5t55.5 23.5q43 0 101.5 -66.5t90.5 -66.5q96 0 97 197v792q0 82 -4 105q-14 59 -68 59q-18 0 -80 -18v34q129 33 317 115l7 -4v-879q0 -244 -83 -357.5t-268 -113.5q-63 0 -118 23q-74 33 -74 92zM172 1290q0 43 30.5 74t73.5 31t74 -31t31 -74 t-31 -73.5t-74 -30.5t-73.5 30.5t-30.5 73.5z" />
<glyph unicode="k" horiz-adv-x="1087" d="M23 1270v28q170 41 325 99l10 -8v-850h4l263 262q39 39 39 53q0 33 -101 35v29h412v-29q-106 -6 -170 -32t-133 -95l-172 -172v-4l233 -312q172 -229 311 -245v-29h-444v29q80 0 80 32q0 12 -43 70l-279 371v-328q0 -88 27 -110.5t125 -34.5v-29h-481v29 q98 16 127.5 40.5t29.5 104.5v985q0 115 -92 115q-18 0 -71 -4z" />
<glyph unicode="l" horiz-adv-x="552" d="M23 1270v28q170 41 325 99l10 -8v-1215q0 -88 27 -110.5t125 -34.5v-29h-481v29q98 16 127.5 40.5t29.5 104.5v985q0 61 -18 88t-74 27q-18 0 -71 -4z" />
<glyph unicode="m" horiz-adv-x="1615" d="M23 811v37q145 37 294 96l9 -8v-154q150 162 319 162q164 0 217 -178q150 178 320 178q248 0 248 -323v-447q0 -78 27.5 -105.5t115.5 -39.5v-29h-451v29q84 16 103 32q32 26 32 108v5v444q0 213 -161 213q-109 0 -219 -124v-510q0 -164 151 -168v-29h-463v29 q92 10 116 40.5t24 131.5v379q0 129 -33 190t-119 61q-61 0 -126 -37.5t-101 -86.5v-545q0 -74 24.5 -98.5t104.5 -34.5v-29h-424v29q72 10 97.5 39.5t25.5 99.5v520q0 70 -15 94q-18 33 -80 33q-10 0 -36 -4z" />
<glyph unicode="n" horiz-adv-x="1017" d="M23 811v37q145 37 294 96l9 -8v-145q163 153 288 153h2q109 0 177 -88q61 -82 61 -197v-483q0 -76 26.5 -110.5t96.5 -36.5v-29h-426v29q80 16 105.5 45.5t25.5 111.5v447q0 196 -146 196h-1q-86 0 -209 -110v-557q0 -74 24.5 -98.5t104.5 -34.5v-29h-424v29 q72 10 97.5 39.5t25.5 99.5v520q0 70 -15 94q-18 33 -80 33q-10 0 -36 -4z" />
<glyph unicode="o" horiz-adv-x="1028" d="M61 471q0 197 128 335t325 138q195 0 328 -129t133 -340q0 -207 -125 -352.5t-322 -145.5q-199 0 -333 140.5t-134 353.5zM252 526q0 -176 72 -319q86 -174 231 -174q115 0 176 119q53 102 53 258q0 182 -73 321q-84 158 -222 158q-127 0 -188 -119q-49 -96 -49 -244z " />
<glyph unicode="p" horiz-adv-x="1044" d="M31 -373q82 0 112.5 31t30.5 117v936q0 102 -88 102q-25 0 -47 -8v39q129 33 301 100l6 -6v-147q128 153 301 153h2q133 0 232 -119q102 -124 102 -317q0 -207 -119 -365q-123 -166 -303 -166q-127 0 -215 89v-291q0 -88 33 -118t139 -30v-37h-487v37zM346 170 q70 -117 197 -117q129 0 200 131q62 113 62 273q0 150 -64 250q-71 110 -196 110h-2q-127 0 -197 -110v-537z" />
<glyph unicode="q" horiz-adv-x="1036" d="M61 432q0 211 121 356q129 156 340 156q113 0 221 -74l123 74l11 -4v-1159q0 -82 23.5 -114t107.5 -48v-29h-484v29q100 10 140.5 44t40.5 128v344q-55 -66 -138 -110q-90 -47 -174 -48q-125 0 -217 105q-115 125 -115 350zM238 502q0 -160 57 -264q68 -127 203 -127 q61 0 127 30q80 37 80 92v418q0 236 -191 236q-115 0 -190 -90q-86 -102 -86 -295z" />
<glyph unicode="r" horiz-adv-x="679" d="M23 811v37q145 37 294 96l9 -8v-178q133 186 237 186h2q113 0 113 -108q0 -39 -23.5 -71t-62.5 -32q-41 0 -77 35t-60 35q-31 0 -75 -49t-54 -105v-487q0 -70 32.5 -96.5t116.5 -36.5v-29h-444v29q72 10 97.5 39.5t25.5 99.5v520q0 70 -15 94q-18 33 -80 33q-10 0 -36 -4 z" />
<glyph unicode="s" horiz-adv-x="788" d="M88 688q0 117 84 189q77 67 190 67h3q53 0 119.5 -21.5t68.5 -21.5q29 0 35 25h30l11 -283h-29q-53 252 -231 252q-63 0 -105 -35q-47 -41 -47 -108q0 -78 125 -156q115 -70 229 -139q125 -94 125 -213q0 -121 -91 -194t-224 -73q-59 0 -134 20.5t-87 20.5q-25 0 -37 -26 h-29v327h29q51 -292 265 -292h1q78 0 121 43t43 106q0 82 -121 160q-111 68 -223 135q-121 94 -121 217z" />
<glyph unicode="t" horiz-adv-x="573" d="M23 874q86 70 136 124.5t138 183.5l16 -6v-258h203v-68h-203v-606q0 -154 105 -154q61 0 125 76l24 -25q-98 -164 -241 -164q-184 0 -185 273v600h-100q-18 0 -18 24z" />
<glyph unicode="u" horiz-adv-x="1030" d="M35 889v29h293v-654q0 -164 153 -164q70 0 141.5 49.5t71.5 102.5v485q0 92 -30 119q-23 18 -117 33v29h319v-711q0 -70 27 -90q20 -16 94 -17v-30q-186 -47 -274 -93l-6 13v166q-162 -178 -308 -179q-100 0 -171.5 69t-71.5 177v514q0 88 -23.5 116t-97.5 36z" />
<glyph unicode="v" d="M41 889v29h401v-29q-61 -12 -71 -17q-25 -12 -25 -45q0 -25 10 -49l219 -528l197 498q16 41 16 75q0 55 -92 66v29h275v-27q-49 -12 -67.5 -34.5t-53.5 -108.5l-299 -748q-12 -31 -23 -31q-18 0 -30 31l-326 778q-41 98 -131 111z" />
<glyph unicode="w" horiz-adv-x="1490" d="M41 889v29h371v-29q-53 -8 -72 -19q-25 -14 -25 -47q0 -37 25 -98l190 -481l185 391l-58 143q-23 57 -47 80t-78 31v29h420v-29q-74 -12 -96 -25.5t-22 -48.5q0 -37 12 -67l194 -502l199 502q16 41 16 75q0 55 -92 66v29h275v-27q-49 -12 -67.5 -34.5t-53.5 -108.5 l-299 -748q-12 -31 -23 -31q-12 0 -24 31l-236 582q-63 -156 -233 -582q-12 -31 -19 -31q-16 0 -28 31l-324 797q-23 55 -35 68.5t-55 23.5z" />
<glyph unicode="x" horiz-adv-x="1040" d="M41 0v31q80 0 143 94l232 346l-170 266q-59 92 -76 109q-43 41 -115 41v31h426v-31q-92 0 -92 -43q0 -31 21 -62l106 -161l111 163q22 32 22 58q0 45 -78 45v31h324v-31q-109 0 -182 -111l-150 -225l242 -371q59 -90 95 -119.5t87 -29.5v-31h-409v31q79 0 79 36 q0 28 -26 68l-170 264l-176 -270q-27 -41 -27 -61q0 -37 80 -37v-31h-297z" />
<glyph unicode="y" horiz-adv-x="1036" d="M41 885v33h422v-33q-119 0 -119 -62q0 -16 10 -39l244 -528l195 526q8 25 8 43q0 59 -92 60v33h274v-33q-59 0 -96 -97l-342 -903q-53 -139 -109 -204q-76 -90 -182 -91q-63 0 -109 29q-53 35 -53 92q0 39 34 66.5t73 27.5q31 0 81 -20.5t66 -20.5q53 0 109 123 q45 104 45 148q0 25 -49 129l-283 606q-53 115 -127 115z" />
<glyph unicode="z" horiz-adv-x="894" d="M41 0v29l543 831h-260q-109 0 -145 -34.5t-50 -149.5h-41l8 242h717v-25l-555 -830h272q139 0 187 35q57 41 84 187l41 -9l-31 -276h-770z" />
<glyph unicode="{" horiz-adv-x="1028" d="M102 487v62q131 25 193 67q86 59 86 175v243q0 154 55 226q98 127 387 126v-47q-285 -53 -284 -249v-271q0 -143 -97 -215q-88 -63 -282 -86q195 -23 282 -86q96 -72 97 -215v-270q0 -197 284 -250v-47q-289 0 -387 127q-55 72 -55 225v244q0 115 -86 174q-61 43 -193 67 z" />
<glyph unicode="|" horiz-adv-x="409" d="M139 0v1397h131v-1397h-131z" />
<glyph unicode="}" horiz-adv-x="1028" d="M205 -303q285 53 284 250v270q0 143 99 215q86 63 280 86q-195 23 -280 86q-98 72 -99 215v271q0 197 -284 249v47q289 0 387 -126q55 -72 55 -226v-243q0 -115 86 -175q61 -43 193 -67v-62q-131 -25 -193 -67q-86 -59 -86 -174v-244q0 -154 -55 -225q-98 -127 -387 -127 v47z" />
<glyph unicode="~" horiz-adv-x="1136" d="M41 326q61 334 260 333q88 0 295 -79.5t246 -79.5q117 0 194 209h47q-29 -150 -96 -244q-76 -102 -178 -103q-88 0 -291 83t-242 83q-113 0 -188 -202h-47z" />
<glyph unicode="&#xa0;" horiz-adv-x="1490" d="M37 0v41q188 0 188 131v1008q0 131 -188 131v41h586v-41q-188 0 -189 -131v-469l443 409q80 74 77 123q-2 68 -137 68v41h531v-41q-98 0 -158 -39q-66 -41 -313 -271l-234 -215l553 -598q137 -147 254 -147v-41h-623v41q135 0 138 41q2 49 -76 135l-393 430l-62 -55v-420 q0 -131 189 -131v-41h-586z" />
<glyph unicode="&#xa1;" horiz-adv-x="1220" d="M37 0v41q178 0 178 131v1008q0 131 -178 131v41h954l29 -314h-37q-51 178 -172 238q-72 35 -209 35q-178 0 -178 -131v-420q39 6 127 6q266 0 412 -96q155 -104 155 -305q0 -176 -151 -275q-137 -90 -351 -90h-579zM424 172q0 -74 13.5 -86t86.5 -12q367 0 367 297 q0 170 -103 252q-94 74 -251 61q-70 2 -113 -8v-504z" />
<glyph unicode="&#xa2;" horiz-adv-x="1036" d="M41 885v33h422v-33q-119 0 -119 -62q0 -16 10 -39l244 -528l195 526q8 25 8 43q0 59 -92 60v33h274v-33q-59 0 -96 -97l-342 -903q-53 -139 -109 -204q-76 -90 -182 -91q-63 0 -109 29q-53 35 -53 92q0 39 34 66.5t73 27.5q31 0 81 -20.5t66 -20.5q53 0 109 123 q45 104 45 148q0 25 -49 129l-283 606q-53 115 -127 115zM291 1223q0 100 102 100t103 -100q0 -88 -111 -88q68 -88 201 -88q131 0 190 88q-113 0 -112 88q0 41 28.5 70.5t73.5 29.5q47 0 74.5 -29.5t27.5 -70.5q0 -82 -73 -150q-84 -76 -209 -76q-135 0 -219 74 q-76 63 -76 152z" />
<glyph unicode="&#xa3;" horiz-adv-x="800" d="M25 121q0 96 96 96q63 0 100 -85t74 -85q66 0 65 186v924q0 74 -30 109q-43 45 -160 45v41h590v-41q-117 0 -160 -45q-31 -35 -31 -109v-809q0 -172 -102 -276q-94 -100 -238 -101q-90 0 -147 40t-57 110z" />
<glyph unicode="&#xa4;" horiz-adv-x="1761" d="M37 0v41q178 0 178 131v1008q0 131 -178 131v41h579v-41q-193 0 -192 -131v-420q39 6 127 6q266 0 412 -96q155 -104 155 -305q0 -176 -151 -275q-137 -90 -351 -90h-579zM424 172q0 -74 13.5 -86t86.5 -12q367 0 367 297q0 170 -103 252q-94 74 -251 61q-70 2 -113 -8 v-504zM1126 0v41q193 0 193 131v1008q0 131 -193 131v41h594v-41q-193 0 -192 -131v-1008q0 -131 192 -131v-41h-594z" />
<glyph unicode="&#xa5;" horiz-adv-x="880" d="M29 0v29q72 10 97.5 39.5t25.5 99.5v582q0 70 -26 99.5t-97 39.5v29h628q68 0 125 194h37l-10 -281h-424q-61 0 -61 -61v-602q0 -70 25.5 -99.5t96.5 -39.5v-29h-417z" />
<glyph unicode="&#xa7;" horiz-adv-x="974" d="M74 319l114 115q-86 109 -86 244t86 244l-114 114l55 56l115 -115q109 86 243 86q135 0 244 -86l115 115l55 -56l-115 -114q86 -109 86 -244t-86 -244l115 -115l-55 -55l-115 115q-109 -86 -244 -86t-243 86l-115 -115zM213 678q0 -113 81 -194t193 -81q115 0 195 81 t80 194q0 115 -80 194.5t-195 79.5q-113 0 -193.5 -79.5t-80.5 -194.5z" />
<glyph unicode="&#xa8;" horiz-adv-x="1157" d="M61 649v146h1035v-553h-146v407h-889z" />
<glyph unicode="&#xa9;" horiz-adv-x="1560" d="M92 670q0 291 202 498.5t484 207.5q285 0 486.5 -207.5t201.5 -498.5q0 -287 -201.5 -493t-486.5 -206q-283 0 -484.5 206t-201.5 493zM201 670q0 -242 171 -419t406 -177q238 0 410 177t172 419q0 248 -171 426t-411 178q-236 0 -406.5 -180.5t-170.5 -423.5zM416 662 q0 176 106.5 285.5t278.5 109.5q98 0 268 -56v-202h-61q-33 190 -193 190q-111 0 -174 -94q-57 -82 -57 -199q0 -145 65 -241q72 -104 189 -105q127 0 206 127l48 -18q-33 -88 -125 -137q-84 -43 -189 -43q-164 0 -263 107.5t-99 275.5z" />
<glyph unicode="&#xaa;" d="M111 94q0 45 86 152l172 215v12l-172 215q-86 106 -86 152q0 23 18 22q6 0 53 -43l385 -352l-385 -352q-47 -43 -53 -43q-18 0 -18 22zM494 94q0 45 86 152l172 215v12l-172 215q-86 106 -86 152q0 23 18 22q6 0 53 -43l385 -352l-385 -352q-47 -43 -53 -43q-18 0 -18 22 z" />
<glyph unicode="&#xab;" horiz-adv-x="1177" d="M25 131l36 47q162 -143 416 -143q168 0 266.5 93t98.5 247t-94 223q-109 78 -377 78v45q414 0 413 326q0 106 -55 178q-61 78 -170 78q-350 0 -399 -379h-49l18 460h43q31 -76 80 -75q31 0 137.5 38.5t181.5 38.5q434 0 435 -331q0 -113 -78 -197q-70 -76 -172 -102 q319 -74 319 -328q0 -225 -160.5 -341t-453.5 -116q-272 0 -436 160z" />
<glyph unicode="&#xac;" horiz-adv-x="1310" d="M39 0v41q193 0 192 131v1008q0 131 -192 131v41h594q510 0 510 -342q0 -252 -275 -301q145 -27 240 -109q104 -90 104 -223q0 -184 -130 -280.5t-369 -96.5h-674zM440 172q0 -66 43 -86q29 -12 121 -12q367 0 367 295q0 166 -117 230.5t-414 64.5v-492zM440 745 q293 0 390.5 52t97.5 204q0 141 -88 209t-289 68q-76 0 -93.5 -14.5t-17.5 -83.5v-435z" />
<glyph unicode="&#xad;" horiz-adv-x="681" d="M88 397v129h504v-129h-504z" />
<glyph unicode="&#xae;" horiz-adv-x="1265" d="M37 0v41q178 0 178 131v1008q0 131 -178 131v41h1079l10 -287h-51q-31 129 -69 166q-51 47 -195 47h-334q-41 0 -49 -29q-4 -12 -4 -69v-430h328q102 0 144 35.5t65 158.5h49v-471h-49q-23 123 -68 162q-39 33 -141 33h-328v-496q0 -61 37 -78q27 -12 137 -12h147 q170 0 269.5 57.5t156.5 204.5h58l-86 -344h-1106zM270 1622q0 39 31 70.5t70 31.5q41 0 71.5 -30.5t30.5 -71.5t-30.5 -71.5t-71.5 -30.5q-39 0 -70 30.5t-31 71.5zM678 1622q0 39 30.5 70.5t69.5 31.5q41 0 72 -30.5t31 -71.5t-31 -71.5t-72 -30.5q-39 0 -69.5 30.5 t-30.5 71.5z" />
<glyph unicode="&#xaf;" horiz-adv-x="1546" d="M31 0v29q72 10 97.5 39.5t25.5 99.5v582q0 70 -26 99.5t-97 39.5v29h418v-29q-72 -10 -97.5 -40t-25.5 -99v-664h356v664q0 70 -25.5 99.5t-97.5 39.5v29h418v-29q-72 -10 -97.5 -40t-25.5 -99v-664h356v664q0 70 -25.5 99.5t-97.5 39.5v29h418v-29q-72 -10 -97.5 -40 t-25.5 -99v-582q0 -70 26 -99.5t97 -39.5v-29h-1474z" />
<glyph unicode="&#xb0;" horiz-adv-x="1425" d="M39 1313v39h573v-39q-145 0 -145 -58q0 -55 35 -120l262 -492l268 506q39 74 35 125q-4 39 -135 39v39h448v-39q-119 -16 -149 -33q-47 -27 -101 -127l-481 -920q-78 -147 -117 -190q-68 -72 -182 -72q-150 0 -149 119q0 47 33.5 77t72.5 30q47 0 89 -19.5t77 -19.5 q41 0 94 104l90 176l-360 692q-51 98 -98 136q-57 45 -160 47zM504 1634q0 100 102 101q102 0 103 -101q0 -88 -111 -88q68 -88 201 -88q131 0 190 88q-113 0 -112 88q0 41 28.5 71t73.5 30q47 0 74.5 -30t27.5 -71q0 -82 -73 -149q-84 -76 -209 -76q-135 0 -219 74 q-76 63 -76 151z" />
<glyph unicode="&#xb1;" horiz-adv-x="1157" d="M61 0v131h1033v-131h-1033zM61 559v131h451v344h131v-344h451v-131h-451v-344h-131v344h-451z" />
<glyph unicode="&#xb4;" d="M66 467l385 352q47 43 53 43q18 0 18 -22q0 -43 -86 -152l-172 -215v-12l172 -215q86 -109 86 -152q0 -23 -18 -22q-6 0 -53 43zM449 467l385 352q47 43 53 43q18 0 18 -22q0 -43 -86 -152l-172 -215v-12l172 -215q86 -109 86 -152q0 -23 -18 -22q-6 0 -53 43z" />
<glyph unicode="&#xb5;" horiz-adv-x="1028" d="M-106 -387l6 31q109 6 137 118l242 977q10 41 10 49q0 43 -41 54q-18 6 -78 6l-2 33l301 59l6 -18l-180 -717q-4 -16 -4 -35q0 -41 47 -41q84 0 237.5 215t233.5 455q6 18 43 119h152l-191 -719q-10 -39 -10 -49q0 -31 31 -31q27 0 155 157l33 -22q-156 -240 -283 -240 q-98 0 -98 105q0 49 12 92l82 293l-8 -2q-279 -487 -412 -488q-16 0 -57 23l-102 -424h-262z" />
<glyph unicode="&#xb6;" horiz-adv-x="409" d="M137 -29v566h135v-566h-135zM137 819v565h135v-565h-135z" />
<glyph unicode="&#xb7;" horiz-adv-x="1056" d="M72 461v59q0 836 563 836q190 0 266 22q59 18 66 60h26q-10 -88 -67 -156q-100 -115 -308 -115q-258 0 -385 -139q-115 -125 -114 -346q55 119 162.5 190.5t242.5 71.5q195 0 328 -131t133 -342q0 -203 -125 -348q-129 -152 -323 -152q-197 0 -331 141.5t-134 348.5z M264 522q0 -178 68 -319q84 -172 233 -172q228 0 228 375q0 184 -72 321q-84 158 -221 158q-125 0 -187 -119q-49 -94 -49 -244z" />
<glyph unicode="&#xb8;" horiz-adv-x="962" d="M31 0v29q170 4 170 127v608q0 117 -170 125v29h493v-29q-150 -8 -149 -125v-193q86 8 135 9q166 0 270 -70q121 -80 121 -242q0 -133 -106.5 -200.5t-288.5 -67.5h-475zM375 129q0 -39 12 -55.5t53 -16.5q293 1 293 226q0 233 -282 233q-27 0 -76 -4v-383z" />
<glyph unicode="&#xba;" horiz-adv-x="552" d="M-174 -295q0 41 26.5 64.5t55.5 23.5q43 0 101.5 -66.5t90.5 -66.5q96 0 97 197v792q0 82 -4 105q-14 59 -68 59q-18 0 -80 -18v34q129 33 317 115l7 -4v-879q0 -244 -83 -357.5t-268 -113.5q-63 0 -118 23q-74 33 -74 92zM172 1290q0 43 30.5 74t73.5 31t74 -31t31 -74 t-31 -73.5t-74 -30.5t-73.5 30.5t-30.5 73.5z" />
<glyph unicode="&#xbb;" horiz-adv-x="1480" d="M37 0v41q180 0 180 131v1008q0 131 -180 131v41h569v-41q-180 0 -180 -131v-861l621 828v33q0 131 -181 131v41h570v-41q-180 0 -181 -131v-1008q0 -131 181 -131v-41h-570v41q180 0 181 131v860l-621 -827v-33q0 -131 180 -131v-41h-569z" />
<glyph unicode="&#xbf;" horiz-adv-x="1476" d="M37 0v41q74 0 121 57q31 39 73 138l488 1138h45l522 -1198q31 -70 57 -96q39 -39 105 -39v-41h-518v41q137 0 137 70q0 39 -41 137l-80 192h-530l-80 -194q-33 -80 -33 -113q0 -92 139 -92v-41h-405zM453 526h458l-229 557z" />
<glyph unicode="&#xc0;" horiz-adv-x="1511" d="M37 90q0 47 34.5 77t80.5 30q33 0 77.5 -18.5t81.5 -18.5q70 0 123 112q47 96 77 351.5t30 564.5q0 123 -181 123v41h1113v-41q-180 0 -181 -131v-1008q0 -131 181 -131v-41h-570v41q180 0 180 131v1100h-448q0 -811 -117 -1053q-119 -248 -332 -248q-150 0 -149 119z " />
<glyph unicode="&#xc1;" horiz-adv-x="890" d="M41 94l29 33q121 -98 311 -98q127 0 199.5 63.5t72.5 167.5t-71 152q-80 51 -281 51v31q309 0 309 219q0 74 -43 124t-125 50q-262 0 -301 -258h-35l13 313h35q23 -51 61 -51q20 0 100 23.5t134 23.5q328 0 327 -221q0 -76 -57 -133q-51 -49 -129 -68q239 -51 239 -227 q0 -150 -120.5 -228.5t-339.5 -78.5q-199 0 -328 112z" />
<glyph unicode="&#xc2;" horiz-adv-x="911" d="M61 453q0 199 120 345t306 146q156 0 257.5 -103.5t101.5 -271.5h-633q0 -178 82 -303q92 -141 250 -141q162 0 307 213l33 -16q-59 -152 -162 -242q-115 -102 -262 -103q-188 0 -297 146q-102 131 -103 330zM217 637h418q-18 238 -199 237q-184 0 -219 -237z" />
<glyph unicode="&#xc3;" horiz-adv-x="1818" d="M37 0v41q197 0 196 197v938q0 68 -32 96q-45 39 -158 39v41h401l469 -1016l457 1016h406v-41q-104 0 -144 -37q-33 -29 -33 -94v-1008q0 -131 181 -131v-41h-570v41q180 0 181 131v993l-525 -1165h-28l-514 1118v-880q0 -197 196 -197v-41h-483z" />
<glyph unicode="&#xc4;" horiz-adv-x="1515" d="M37 1038l29 314h1269l29 -314h-37q-51 168 -151 230q-76 45 -228 45q-178 0 -178 -125v-529q113 145 295 146q348 0 348 -328v-383q0 -209 -98 -325q-92 -109 -242 -109q-92 0 -147 37q-61 41 -62 113q0 39 29 69.5t70 30.5q80 0 94 -66q23 -106 63 -106q84 0 84 182v555 q0 98 -49 164q-57 76 -162 76q-76 0 -133 -37q-29 -20 -90 -86v-428q0 -125 180 -125v-39h-569v39q180 0 180 125v1024q0 125 -182 125q-131 0 -199.5 -63.5t-105.5 -211.5h-37z" />
<glyph unicode="&#xc5;" horiz-adv-x="1163" d="M37 0v41q178 0 178 131v1008q0 131 -178 131v41h1079l10 -287h-51q-31 129 -69 166q-51 47 -195 47h-334q-41 0 -49 -29q-4 -12 -4 -69v-1008q0 -82 53 -109q31 -16 123 -22v-41h-563zM430 1487l285 285q68 68 102 67q31 0 52.5 -20t21.5 -47q0 -45 -84 -99l-293 -186 h-84z" />
<glyph unicode="&#xc6;" horiz-adv-x="1359" d="M92 881q0 246 173 422t417 176q242 0 414 -176t172 -422q0 -250 -172 -427.5t-414 -177.5q-244 0 -417 177.5t-173 427.5zM186 881q0 -211 146.5 -365t349.5 -154t347.5 154t144.5 365q0 207 -145.5 360.5t-346.5 153.5q-203 0 -349.5 -154t-146.5 -360zM410 569v35h22 q31 0 41 9.5t10 41.5v480q0 31 -9 39t-40 8h-22v35h290q215 0 216 -160q0 -70 -46.5 -114t-117.5 -54q72 -16 135 -152q20 -45 39 -90q27 -43 67 -43v-35h-116q-35 0 -64 45q0 2 -47 97q-51 102 -59 112q-33 39 -109 39v-205q0 -53 43 -53h29v-35h-262zM600 907l33 -2 q166 -10 166 142q0 135 -133 135h-39q-27 0 -27 -52v-223z" />
<glyph unicode="&#xc7;" horiz-adv-x="569" d="M119 86q0 51 37 84t92 33t104 -43q60 -56 60 -144q0 -188 -232 -321l-22 45q25 0 92 65q78 80 78 152q0 25 -25 25q-12 0 -34.5 -5.5t-39.5 -5.5q-49 0 -79.5 34t-30.5 81z" />
<glyph unicode="&#xc8;" horiz-adv-x="1017" d="M31 0v29q72 10 97.5 39.5t25.5 99.5v582q0 70 -26 99.5t-97 39.5v29h418v-29q-72 -10 -97.5 -40t-25.5 -99v-486l356 475v11q0 70 -25.5 99.5t-97.5 39.5v29h418v-29q-72 -10 -97.5 -40t-25.5 -99v-582q0 -70 25.5 -99.5t97.5 -39.5v-29h-418v29q72 10 97.5 39.5 t25.5 99.5v487l-356 -475v-12q0 -70 25.5 -99.5t97.5 -39.5v-29h-418zM207 1223q0 100 102 100t103 -100q0 -88 -111 -88q68 -88 201 -88q131 0 190 88q-113 0 -112 88q0 41 28.5 70.5t73.5 29.5q47 0 74.5 -29.5t27.5 -70.5q0 -82 -73 -150q-84 -76 -209 -76 q-135 0 -219 74q-76 63 -76 152z" />
<glyph unicode="&#xc9;" horiz-adv-x="880" d="M31 0v29q72 10 97.5 39.5t25.5 99.5v582q0 70 -26 99.5t-97 39.5v29h780l10 -281h-37q-57 195 -125 194h-272q-61 0 -61 -61v-602q0 -70 25.5 -99.5t97.5 -39.5v-29h-418zM293 1044l285 285q68 68 102 68q31 0 52.5 -20.5t21.5 -47.5q0 -45 -84 -98l-293 -187h-84z M438 918z" />
<glyph unicode="&#xca;" horiz-adv-x="1665" d="M41 0v29q127 6 256 172l297 377q-121 109 -242 217q-125 94 -260 94v29h418v-29q-106 0 -107 -33q0 -25 74 -90l258 -227v215q0 72 -31.5 103.5t-121.5 31.5v29h481v-29q-88 0 -121 -32t-33 -103v-215l258 227q70 61 70 82q0 41 -102 41v29h417v-29q-162 0 -303 -129 l-198 -182l297 -377q135 -172 256 -172v-29h-447v29q74 0 74 34q0 20 -19 46l-303 399v-344q0 -72 29 -101q35 -35 125 -34v-29h-481v29q88 0 123 34q31 29 30 101v344l-307 -404q-16 -23 -16 -38q0 -37 75 -37v-29h-446z" />
<glyph unicode="&#xcb;" horiz-adv-x="1017" d="M31 0v29q72 10 97.5 39.5t25.5 99.5v582q0 70 -26 99.5t-97 39.5v29h418v-29q-72 -10 -97.5 -40t-25.5 -99v-486l356 475v11q0 70 -25.5 99.5t-97.5 39.5v29h418v-29q-72 -10 -97.5 -40t-25.5 -99v-582q0 -70 25.5 -99.5t97.5 -39.5v-29h-418v29q72 10 97.5 39.5 t25.5 99.5v487l-356 -475v-12q0 -70 25.5 -99.5t97.5 -39.5v-29h-418z" />
<glyph unicode="&#xcc;" horiz-adv-x="1017" d="M31 0v29q72 10 97.5 39.5t25.5 99.5v582q0 70 -26 99.5t-97 39.5v29h418v-29q-72 -10 -97.5 -40t-25.5 -99v-220h356v220q0 70 -25.5 99.5t-97.5 39.5v29h418v-29q-72 -10 -97.5 -40t-25.5 -99v-582q0 -70 25.5 -99.5t97.5 -39.5v-29h-418v29q72 10 97.5 39.5t25.5 99.5 v278h-356v-278q0 -70 25.5 -99.5t97.5 -39.5v-29h-418z" />
<glyph unicode="&#xcd;" horiz-adv-x="1105" d="M31 0v29q88 0 123 34q31 29 30 101v590q0 72 -31.5 103.5t-121.5 31.5v29h481v-29q-88 0 -121 -32t-33 -103v-215l258 227q70 61 70 82q0 41 -102 41v29h417v-29q-162 0 -303 -129l-198 -182l297 -377q135 -172 256 -172v-29h-447v29q74 0 74 34q0 20 -18 46l-304 399 v-344q0 -72 29 -101q35 -35 125 -34v-29h-481z" />
<glyph unicode="&#xce;" horiz-adv-x="1193" d="M31 102q0 41 31.5 68t76.5 27q53 0 84 -16.5t66 -16.5q59 0 94 96q53 143 53 494q0 68 -27.5 96.5t-95.5 38.5v29h838v-29q-68 -10 -95.5 -40t-27.5 -95v-590q0 -123 123 -135v-29h-418v29q68 8 95.5 37.5t27.5 97.5v667h-348q0 -420 -64 -612q-74 -225 -278 -225 q-135 0 -135 108z" />
<glyph unicode="&#xcf;" horiz-adv-x="1406" d="M31 0v29q100 6 135 35.5t35 99.5v590q0 70 -35 99.5t-135 35.5v29h348l332 -629l286 629h359v-29q-100 -6 -135 -38t-35 -106v-581q0 -70 34.5 -99.5t135.5 -35.5v-29h-494v29q86 6 118 35.5t32 99.5v629l-361 -793h-16l-344 651v-487q0 -70 34.5 -99.5t135.5 -35.5v-29 h-430z" />
<glyph unicode="&#xd1;" horiz-adv-x="1032" d="M154 86q0 51 36.5 84t92.5 33q55 0 104 -43q59 -56 59 -144q0 -188 -231 -321l-22 45q25 0 92 65q78 80 77 152q0 25 -24 25q-12 0 -34.5 -5.5t-39.5 -5.5q-49 0 -79.5 34t-30.5 81zM586 86q0 51 36.5 84t92.5 33q55 0 104 -43q60 -56 60 -144q0 -188 -232 -321l-22 45 q25 0 92 65q78 80 78 152q0 25 -25 25q-12 0 -34.5 -5.5t-39.5 -5.5q-49 0 -79.5 34t-30.5 81z" />
<glyph unicode="&#xd2;" horiz-adv-x="880" d="M61 438q0 203 127 350q133 156 328 156q131 0 221 -65q84 -61 84 -140q0 -45 -29.5 -69.5t-58.5 -24.5q-86 0 -106 94q-18 84 -29 103q-31 47 -111 47q-135 0 -206 -129q-57 -102 -58 -234q0 -170 87 -286.5t227 -116.5q164 0 284 194l33 -16q-84 -170 -176 -247 t-217 -77q-178 0 -289 130.5t-111 330.5z" />
<glyph unicode="&#xd3;" horiz-adv-x="1028" d="M61 471q0 197 128 335t325 138q195 0 328 -129t133 -340q0 -207 -125 -352.5t-322 -145.5q-199 0 -333 140.5t-134 353.5zM252 526q0 -176 72 -319q86 -174 231 -174q115 0 176 119q53 102 53 258q0 182 -73 321q-84 158 -222 158q-127 0 -188 -119q-49 -96 -49 -244z " />
<glyph unicode="&#xd4;" horiz-adv-x="1017" d="M31 0v29q72 10 97.5 39.5t25.5 99.5v582q0 70 -26 99.5t-97 39.5v29h946v-29q-72 -10 -97.5 -40t-25.5 -99v-582q0 -70 25.5 -99.5t97.5 -39.5v-29h-418v29q72 10 97.5 39.5t25.5 99.5v663h-356v-663q0 -70 25.5 -99.5t97.5 -39.5v-29h-418z" />
<glyph unicode="&#xd5;" horiz-adv-x="1474" d="M37 0v41q180 0 180 131v1008q0 131 -180 131v41h569v-41q-180 0 -180 -131v-447h621v447q0 131 -181 131v41h570v-41q-180 0 -181 -131v-1008q0 -131 181 -131v-41h-570v41q180 0 181 131v471h-621v-471q0 -131 180 -131v-41h-569z" />
<glyph unicode="&#xd6;" horiz-adv-x="2048" d="M233 84q0 47 34 80t79 33q47 0 80 -33t33 -80q0 -45 -33 -78t-80 -33t-80 33t-33 78zM915 84q0 47 34 80t79 33q47 0 80 -33t33 -80q0 -45 -33 -78t-80 -33t-80 33t-33 78zM1597 84q0 47 34 80t79 33q47 0 80 -33t33 -80q0 -45 -33 -78t-80 -33t-80 33t-33 78z" />
<glyph unicode="&#xd8;" horiz-adv-x="671" d="M29 1622q0 39 30.5 70.5t69.5 31.5q41 0 71.5 -30.5t30.5 -71.5t-30.5 -71.5t-71.5 -30.5q-39 0 -69.5 30.5t-30.5 71.5zM37 0v41q193 0 192 131v1008q0 131 -192 131v41h594v-41q-193 0 -193 -131v-1008q0 -131 193 -131v-41h-594zM436 1622q0 39 31 70.5t70 31.5 q41 0 71.5 -30.5t30.5 -71.5t-30.5 -71.5t-71.5 -30.5q-39 0 -70 30.5t-31 71.5z" />
<glyph unicode="&#xd9;" horiz-adv-x="1617" d="M61 446q0 211 115 349q123 143 328 143q121 0 219 -47v246q0 68 -12 94q-20 43 -80 43q-16 0 -66 -12v32q166 41 322 92l8 -6v-489q98 47 219 47q205 0 328 -143q114 -138 114 -349q0 -190 -122 -325q-127 -141 -320 -141q-119 0 -219 55v-281q0 -70 33 -99.5t125 -35.5 v-29h-488v29q92 6 125 36t33 99v281q-100 -55 -219 -55q-193 0 -320 141q-123 135 -123 325zM250 446q0 -150 72 -268q84 -137 219 -137q119 0 182 119v577q-68 139 -244 140q-229 0 -229 -431zM895 160q63 -119 182 -119q135 0 219 137q72 118 72 268q0 430 -229 431 q-176 0 -244 -140v-577z" />
<glyph unicode="&#xda;" horiz-adv-x="958" d="M41 590l12 328h840l12 -328h-33q-31 178 -104 229q-49 33 -186 33h-25v-698q0 -125 180 -125v-29h-528v29q180 0 180 125v698h-24q-137 0 -185 -33q-76 -51 -106 -229h-33z" />
<glyph unicode="&#xdb;" horiz-adv-x="1036" d="M41 885v33h422v-33q-119 0 -119 -62q0 -16 10 -39l244 -528l195 526q8 25 8 43q0 59 -92 60v33h274v-33q-59 0 -96 -97l-342 -903q-53 -139 -109 -204q-76 -90 -182 -91q-63 0 -109 29q-53 35 -53 92q0 39 34 66.5t73 27.5q31 0 81 -20.5t66 -20.5q53 0 109 123 q45 104 45 148q0 25 -49 129l-283 606q-53 115 -127 115z" />
<glyph unicode="&#xdc;" horiz-adv-x="991" d="M102 920q0 88 84 88q39 0 114 -35t173 -37q2 143 -36 233.5t-38 120.5q0 39 29 67.5t68 28.5t67.5 -28.5t28.5 -67.5q0 -31 -38 -121t-36 -233q98 2 173 37t114 35q84 0 84 -88q0 -90 -84 -91q-41 0 -113 31q-78 33 -174 39q0 -291 86 -379q-31 -70 -55 -221 q-31 -176 -31 -350v-252h-45v252q0 174 -31 350q-25 152 -55 221q86 88 86 379q-96 -6 -171 -38t-116 -32q-84 0 -84 91z" />
<glyph unicode="&#xdf;" d="M143 584q0 104 62.5 177t169.5 73q27 0 49 -9q-100 84 -143 148q-53 78 -54 166q0 96 83 169.5t210 73.5q98 0 174 -54t76 -140q0 -47 -30.5 -82t-75.5 -33q-39 2 -69 27.5t-30 62.5q0 45 74 115v10q-47 51 -131 51q-74 0 -120 -38.5t-46 -102.5q0 -96 137 -213 q125 -104 252 -211q137 -135 137 -272q0 -104 -59 -174q-66 -76 -172 -76q-27 0 -49 8q100 -84 143 -147q53 -78 53 -166q0 -98 -82 -172q-86 -80 -210 -80q-98 0 -181 57q-90 63 -90 148q0 47 31 81.5t76 32.5q39 -2 68.5 -27.5t29.5 -62.5q0 -45 -74 -114v-11 q68 -61 152 -61q74 0 120 42t46 107q0 96 -138 213q-125 104 -251 211q-137 135 -138 273zM258 649q0 -125 225 -303q61 -49 142 -49q55 0 92 41t37 98q0 113 -228 303q-59 49 -139 49q-55 0 -92 -40.5t-37 -98.5z" />
<glyph unicode="&#xe1;" horiz-adv-x="991" d="M102 121q0 90 84 90q41 0 116 -32t171 -38q0 291 -86 379q86 88 86 379q-96 -6 -171 -38t-116 -32q-84 0 -84 91q0 88 84 88q39 0 114 -35t173 -37q2 143 -36 233.5t-38 120.5q0 39 29 67.5t68 28.5t67.5 -28.5t28.5 -67.5q0 -31 -38 -121t-36 -233q98 2 173 37t114 35 q84 0 84 -88q0 -90 -84 -91q-41 0 -113 31q-78 33 -174 39q0 -291 86 -379q-86 -88 -86 -379q96 6 174 39q72 31 113 31q84 0 84 -90q0 -88 -84 -88q-39 0 -114 34.5t-173 36.5q-2 -143 36 -233t38 -121q0 -39 -28.5 -67.5t-67.5 -28.5t-68 28.5t-29 67.5q0 31 38 121 t36 233q-98 -2 -173 -36.5t-114 -34.5q-84 0 -84 88z" />
<glyph unicode="&#xe2;" horiz-adv-x="2170" d="M102 942q0 164 114 295t271 131q70 0 151 -72.5t198 -72.5q86 0 147 39q43 27 145 124h111l-846 -1417h-102l768 1286q-31 -33 -94 -59q-74 -33 -150 -33q-31 0 -137 41q8 -33 8 -69q0 -160 -84 -306q-100 -174 -256 -174q-106 0 -175 78t-69 209zM248 868 q0 -158 119 -157q109 0 188 135q76 129 76 297q0 47 -10 80q-45 16 -88.5 53t-45.5 37q-63 0 -145 -131q-94 -150 -94 -314zM805 279q0 166 117.5 299t269.5 133q92 0 144.5 -64.5t52.5 -183.5q0 -174 -99 -318q-102 -150 -233 -149q-109 0 -180.5 75.5t-71.5 207.5z M950 211q0 -158 117 -158q119 0 201 156q67 131 67 260q0 68 -24 119q-33 68 -99 67q-111 0 -192 -182q-70 -150 -70 -262zM1485 279q0 166 117.5 299t269.5 133q92 0 144 -64.5t52 -183.5q0 -174 -98 -318q-102 -150 -233 -149q-109 0 -180.5 75.5t-71.5 207.5zM1630 211 q0 -158 117 -158q119 0 201 156q67 131 67 260q0 68 -24 119q-33 68 -99 67q-111 0 -192 -182q-70 -150 -70 -262z" />
<glyph unicode="&#xe3;" horiz-adv-x="630" d="M86 465l64 55q102 88 335 307q25 25 33 25q20 0 21 -23q0 -23 -263 -368q61 -76 170 -213q95 -127 95 -158q0 -23 -23 -22q-8 0 -88 77q-106 109 -172 166q-172 152 -172 154z" />
<glyph unicode="&#xe4;" horiz-adv-x="2076" d="M37 90q0 47 34.5 77t80.5 30q33 0 77.5 -18.5t81.5 -18.5q70 0 123 112q47 96 77 351.5t30 564.5q0 123 -181 123v41h1113v-41q-193 0 -193 -131v-420q39 6 127 6q266 0 412 -96q155 -104 155 -305q0 -174 -151 -275q-139 -90 -350 -90l-570 -2v43q180 0 180 131v1100 h-448q0 -811 -117 -1053q-119 -248 -332 -248q-150 0 -149 119zM1280 172q0 -74 13.5 -86t86.5 -12q367 0 367 297q0 170 -102 252q-94 74 -252 61q-70 2 -113 -8v-504z" />
<glyph unicode="&#xe5;" horiz-adv-x="2052" d="M37 0v41q180 0 180 131v1008q0 131 -180 131v41h569v-41q-180 0 -180 -131v-447h621v447q0 131 -179 131v41h580v-41q-193 0 -193 -131v-420q39 6 127 6q266 0 412 -96q156 -104 156 -305q0 -176 -152 -275q-137 -90 -350 -90h-582v41q180 0 181 131v471h-621v-471 q0 -131 180 -131v-41h-569zM1255 172q0 -74 13.5 -86t87.5 -12q366 0 366 297q0 170 -102 252q-94 74 -252 61q-70 2 -113 -8v-504z" />
<glyph unicode="&#xe6;" horiz-adv-x="788" d="M88 690q0 113 81 182.5t191 69.5q45 0 114 -20.5t87 -20.5q27 0 27 23h33l8 -279h-29q-33 123 -76 178q-55 72 -149 72q-70 0 -114 -40t-44 -103q0 -80 125 -160q115 -72 229 -143q125 -94 125 -209q0 -121 -94 -199q-86 -70 -207 -70q-57 0 -138 20.5t-93 20.5 q-33 0 -39 -26h-33v323h33q47 -287 262 -286q70 0 117 37.5t47 103.5q0 90 -121 170q-111 68 -221 137q-121 94 -121 219z" />
<glyph unicode="&#xe7;" horiz-adv-x="1490" d="M37 0v41q188 0 188 131v1008q0 131 -188 131v41h586v-41q-188 0 -189 -131v-469l443 409q80 74 77 123q-2 68 -137 68v41h531v-41q-98 0 -158 -39q-66 -41 -313 -271l-234 -215l553 -598q137 -147 254 -147v-41h-623v41q135 0 138 41q2 49 -76 135l-393 430l-62 -55v-420 q0 -131 189 -131v-41h-586zM547 1487l284 285q68 68 103 67q31 0 52.5 -20t21.5 -47q0 -45 -84 -99l-293 -186h-84z" />
<glyph unicode="&#xe8;" horiz-adv-x="1474" d="M37 0v41q180 0 180 131v1008q0 131 -180 131v41h569v-41q-180 0 -180 -131v-1102h621v1102q0 131 -181 131v41h570v-41q-180 0 -181 -131v-1008q0 -131 181 -131v-41h-609v-340h-184v340h-606z" />
<glyph unicode="&#xe9;" horiz-adv-x="1634" d="M37 1038l29 314h1271l29 -314h-37q-51 168 -151 230q-76 45 -228 45q-178 0 -178 -125v-529q113 145 295 146q348 0 348 -328v-313q0 -125 180 -125v-39h-569v39q180 0 180 125v311q0 98 -49 164q-57 76 -162 76q-76 0 -133 -37q-29 -20 -90 -86v-428q0 -125 180 -125 v-39h-569v39q180 0 180 125v1024q0 125 -184 125q-131 0 -199.5 -63.5t-105.5 -211.5h-37z" />
<glyph unicode="&#xea;" horiz-adv-x="1044" d="M37 0v29q86 6 117.5 35.5t31.5 99.5v1001h-90v54h88q-8 94 -147 104v29h493v-29q-156 -10 -168 -104h369v-54h-371v-393q123 164 293 164q137 0 201 -88q57 -82 57 -258v-529q0 -244 -81.5 -357.5t-266.5 -113.5q-63 0 -119 23q-74 33 -73 92q0 41 26.5 64.5t55.5 23.5 q43 0 101 -66.5t91 -66.5q96 0 96 197v731q0 113 -24 164q-37 76 -135 75q-111 0 -222 -122v-539q0 -72 31 -101.5t119 -35.5v-29h-473z" />
<glyph unicode="&#xeb;" horiz-adv-x="681" d="M236 1083q0 96 92 197q76 84 137 104l18 -38q-168 -106 -168 -218q0 -29 29 -28q8 0 24.5 4t24.5 4q127 0 127 -102q0 -59 -41 -93q-33 -27 -78 -26q-57 0 -100 35q-66 51 -65 161z" />
<glyph unicode="&#xec;" horiz-adv-x="909" d="M94 1071q0 188 232 322l22 -45q-25 0 -90 -66q-80 -80 -80 -152q0 -25 25 -24q12 0 34.5 5t38.5 5q49 0 80 -34t31 -81q0 -51 -37 -83.5t-92 -32.5t-104 45q-59 53 -60 141zM532 1071q0 188 232 322l22 -45q-25 0 -90 -66q-80 -80 -80 -152q0 -25 25 -24q12 0 34.5 5 t39.5 5q49 0 79.5 -34t30.5 -81q0 -51 -36.5 -83.5t-92.5 -32.5q-55 0 -104 45q-59 53 -60 141z" />
<glyph unicode="&#xed;" horiz-adv-x="681" d="M205 1268q0 51 37 83.5t92 32.5t104 -43q60 -55 60 -143q0 -188 -232 -321l-22 45q25 0 92 65q78 80 78 152q0 25 -25 24q-12 0 -34.5 -5t-39.5 -5q-49 0 -79.5 34t-30.5 81z" />
<glyph unicode="&#xee;" horiz-adv-x="983" d="M145 1266q0 59 41 92q33 27 78 26q57 0 101 -34q65 -51 65 -162q0 -96 -92 -197q-76 -84 -137 -104l-19 39q168 106 168 217q0 29 -28 28q-8 0 -24.5 -4t-25.5 -4q-127 0 -127 103zM621 1266q0 59 41 92q33 27 77 26q57 0 101 -34q65 -51 65 -162q0 -96 -92 -197 q-76 -84 -137 -104l-19 39q168 106 168 217q0 29 -28 28q-8 0 -24.5 -4t-24.5 -4q-127 0 -127 103z" />
<glyph unicode="&#xef;" horiz-adv-x="716" d="M102 614q0 106 75 181t181 75t181 -75t75 -181t-74.5 -181t-181.5 -75q-106 0 -181 75t-75 181z" />
<glyph unicode="&#xf1;" d="M106 412v100h803v-100h-803z" />
<glyph unicode="&#xf3;" horiz-adv-x="2048" d="M119 412v100h1796v-100h-1796z" />
<glyph unicode="&#xf4;" horiz-adv-x="1652" d="M51 1178l6 174h578l6 -174h-25q-29 98 -57.5 115.5t-159.5 17.5v-549q0 -66 97 -66v-20h-297v20q96 0 96 66v549q-131 0 -160 -17.5t-59 -115.5h-25zM719 676v20q98 0 98 99v469q0 68 -96 67v21h201l235 -508l227 508h203v-21q-88 0 -88 -65v-504q0 -66 90 -66v-20h-284 v20q90 0 90 66v498l-262 -584h-15l-256 559v-440q0 -98 99 -99v-20h-242z" />
<glyph unicode="&#xf5;" horiz-adv-x="630" d="M90 829q0 23 23 23q8 0 88 -78q106 -109 172 -166q172 -151 172 -153l-64 -56q-102 -88 -336 -307q-25 -25 -32 -24q-20 0 -21 22q0 23 262 369q-61 76 -170 213q-94 127 -94 157z" />
<glyph unicode="&#xf6;" horiz-adv-x="1615" d="M31 102q0 41 31.5 68t74.5 27q61 0 88 -19q20 -14 58 -14q72 0 102 96q51 164 51 494q0 70 -34.5 99.5t-135.5 35.5v29h932v-29q-170 -8 -170 -125v-193q86 8 135 9q166 0 271 -70q120 -80 120 -242q0 -131 -122 -202q-113 -66 -302 -66h-425v29q86 6 117.5 35.5 t31.5 99.5v667h-334q0 -377 -67 -612q-66 -225 -287 -225q-135 0 -135 108zM1028 129q0 -39 12.5 -55.5t53.5 -16.5q292 1 292 226q0 233 -282 233q-27 0 -76 -4v-383z" />
<glyph unicode="&#xf7;" horiz-adv-x="1476" d="M37 0v41q180 0 180 131v1008q0 131 -180 131v41h569v-41q-180 0 -180 -131v-1102h621v1102q0 131 -181 131v41h570v-41q-180 0 -181 -131v-1008q0 -172 181 -172v-410h-47q0 154 -119 285q-113 125 -234 125h-999z" />
<glyph unicode="&#xf8;" horiz-adv-x="552" d="M-16 1180q0 39 30.5 70.5t69.5 31.5q41 0 71.5 -30.5t30.5 -71.5t-30.5 -72t-71.5 -31q-39 0 -69.5 31t-30.5 72zM29 0v29q98 16 127.5 40.5t29.5 104.5v475q0 82 -4 105q-14 59 -67 59q-18 0 -80 -18v34q129 33 317 115l6 -4v-766q0 -88 27 -110.5t125 -34.5v-29h-481z M389 1180q0 39 31 70.5t69 31.5q41 0 72 -30.5t31 -71.5t-31 -72t-72 -31q-39 0 -69.5 31t-30.5 72z" />
<glyph unicode="&#xf9;" horiz-adv-x="1105" d="M31 0v29q88 0 123 34q31 29 30 101v590q0 72 -31.5 103.5t-121.5 31.5v29h481v-29q-88 0 -121 -32t-33 -103v-215l258 227q70 61 70 82q0 41 -102 41v29h417v-29q-162 0 -303 -129l-198 -182l297 -377q135 -172 256 -172v-29h-447v29q74 0 74 34q0 20 -18 46l-304 399 v-344q0 -72 29 -101q35 -35 125 -34v-29h-481zM371 1044l284 285q68 68 103 68q31 0 52 -20.5t21 -47.5q0 -45 -83 -98l-293 -187h-84z" />
<glyph unicode="&#xfa;" horiz-adv-x="1632" d="M31 0v29q100 6 135 35.5t35 99.5v590q0 70 -35 99.5t-135 35.5v29h493v-29q-86 -6 -117.5 -36t-31.5 -99v-224h475v224q0 70 -32 99.5t-118 35.5v29h494v-29q-150 -8 -150 -125v-193q86 8 136 9q166 0 270 -70q121 -80 121 -242q0 -131 -123 -202q-113 -66 -301 -66h-447 v29q86 6 118 35.5t32 99.5v299h-475v-299q0 -70 31.5 -99.5t117.5 -35.5v-29h-493zM1044 129q0 -39 12.5 -55.5t53.5 -16.5q293 1 293 226q0 233 -283 233q-27 0 -76 -4v-383z" />
<glyph unicode="&#xfb;" horiz-adv-x="1105" d="M37 0v29q86 6 117.5 35.5t31.5 99.5v1001h-90v54h88q-8 94 -147 104v29h493v-29q-156 -10 -168 -104h369v-54h-371v-391q123 164 293 164q147 0 207 -88q51 -78 51 -258v-428q0 -70 32 -99.5t118 -35.5v-29h-473v29q86 6 117.5 35.5t31.5 99.5v426q0 115 -22 164 q-35 76 -133 75q-76 0 -131 -36q-33 -23 -91 -86v-541q0 -72 31 -101.5t119 -35.5v-29h-473z" />
<glyph unicode="&#xfc;" horiz-adv-x="1017" d="M31 0v29q72 10 97.5 39.5t25.5 99.5v582q0 70 -26 99.5t-97 39.5v29h418v-29q-72 -10 -97.5 -40t-25.5 -99v-664h356v664q0 70 -25.5 99.5t-97.5 39.5v29h418v-29q-72 -10 -97.5 -40t-25.5 -99v-582q0 -70 25.5 -99.5t97.5 -39.5v-29h-418v-281h-110v281h-418z" />
<glyph unicode="&#xff;" horiz-adv-x="1945" d="M37 0v41q180 0 180 131v1008q0 131 -180 131v41h569v-41q-180 0 -180 -131v-1102h440v1102q0 131 -180 131v41h569v-41q-180 0 -180 -131v-1102h441v1102q0 131 -181 131v41h570v-41q-180 0 -181 -131v-1008q0 -131 181 -131v-41h-1868z" />
<glyph unicode="&#x152;" horiz-adv-x="1484" d="M72 684q0 295 182 494q188 209 494 208q303 0 489 -208q176 -197 176 -494t-176 -500q-186 -213 -489 -213t-494 213q-182 203 -182 500zM305 684q0 -279 109 -451q119 -188 334 -188t329 188q103 170 103 451q0 279 -105 444q-115 184 -327 185q-217 0 -334 -185 q-109 -168 -109 -444z" />
<glyph unicode="&#x153;" horiz-adv-x="1474" d="M37 0v41q180 0 180 131v1008q0 131 -180 131v41h1399v-41q-180 0 -181 -131v-1008q0 -131 181 -131v-41h-570v41q180 0 181 131v1102h-621v-1102q0 -131 180 -131v-41h-569z" />
<glyph unicode="&#x178;" horiz-adv-x="1945" d="M37 0v41q180 0 180 131v1008q0 131 -180 131v41h569v-41q-180 0 -180 -131v-1102h440v1102q0 131 -180 131v41h569v-41q-180 0 -180 -131v-1102h441v1102q0 131 -181 131v41h570v-41q-180 0 -181 -131v-1008q0 -172 181 -172v-410h-47q0 154 -119 285q-113 125 -234 125 h-1468z" />
<glyph unicode="&#x2c6;" horiz-adv-x="1017" d="M31 0v29q72 10 97.5 39.5t25.5 99.5v582q0 70 -26 99.5t-97 39.5v29h418v-29q-72 -10 -97.5 -40t-25.5 -99v-664h356v664q0 70 -25.5 99.5t-97.5 39.5v29h418v-29q-72 -10 -97.5 -40t-25.5 -99v-586q0 -154 123 -164v-274h-35q0 274 -321 274h-590z" />
<glyph unicode="&#x2dc;" horiz-adv-x="1097" d="M31 889v29h473v-29q-86 -6 -118 -36t-32 -99v-107q0 -115 23 -164q35 -76 133 -75q76 0 133 36q31 23 88 86v222q0 72 -30.5 101.5t-118.5 35.5v29h473v-29q-86 -6 -118 -36t-32 -99v-590q0 -70 32 -99.5t118 -35.5v-29h-494v29q98 6 134 35.5t36 99.5v299 q-123 -164 -293 -164q-147 0 -207 88q-51 78 -51 258v109q0 70 -31.5 99.5t-117.5 35.5z" />
<glyph unicode="&#x2000;" horiz-adv-x="919" />
<glyph unicode="&#x2001;" horiz-adv-x="1839" />
<glyph unicode="&#x2002;" horiz-adv-x="919" />
<glyph unicode="&#x2003;" horiz-adv-x="1839" />
<glyph unicode="&#x2004;" horiz-adv-x="613" />
<glyph unicode="&#x2005;" horiz-adv-x="459" />
<glyph unicode="&#x2006;" horiz-adv-x="306" />
<glyph unicode="&#x2007;" horiz-adv-x="306" />
<glyph unicode="&#x2008;" horiz-adv-x="229" />
<glyph unicode="&#x2009;" horiz-adv-x="367" />
<glyph unicode="&#x200a;" horiz-adv-x="102" />
<glyph unicode="&#x2010;" horiz-adv-x="681" d="M88 397v129h504v-129h-504z" />
<glyph unicode="&#x2011;" horiz-adv-x="681" d="M88 397v129h504v-129h-504z" />
<glyph unicode="&#x2012;" horiz-adv-x="681" d="M88 397v129h504v-129h-504z" />
<glyph unicode="&#x2013;" horiz-adv-x="1161" d="M37 0v41q178 0 178 131v1008q0 131 -178 131v41h579q213 0 351 -90q151 -99 151 -275q0 -201 -155 -305q-145 -96 -406 -96q-80 0 -133 6v-420q0 -131 192 -131v-41h-579zM424 676q45 -6 119 -6q348 -19 348 311q0 297 -367 297q-74 0 -87 -12.5t-13 -85.5v-504z" />
<glyph unicode="&#x2014;" horiz-adv-x="1355" d="M72 678q0 297 199.5 502.5t514.5 205.5q109 0 228 -33.5t133 -33.5q27 0 54.5 19.5t31.5 45.5h43l16 -460h-49q-111 377 -438 376q-244 0 -377 -198q-115 -170 -115 -418q0 -305 156 -469q137 -145 356 -145q250 0 453 204l41 -41q-127 -131 -217 -182q-139 -80 -326 -80 q-309 0 -502 185q-203 195 -202 522z" />
<glyph unicode="&#x2018;" horiz-adv-x="1839" d="M72 678q0 242 183 389t474 147q57 0 84 -10q-18 106 -199 107v41h611v-41q-180 0 -199 -107q27 10 84 10q291 0 474 -147t183 -389q0 -252 -188 -399q-178 -139 -459 -140q-41 0 -96 17q10 -115 201 -115v-41h-611v41q190 0 201 115q-55 -16 -96 -17q-281 0 -459 140 q-188 147 -188 399zM305 678q0 -242 127 -369q115 -115 311 -114q31 0 72 12v938q-35 10 -84 10q-426 0 -426 -477zM1024 207q41 -12 72 -12q197 0 311 114q127 127 127 369q0 477 -426 477q-49 0 -84 -10v-938z" />
<glyph unicode="&#x2019;" horiz-adv-x="1486" d="M37 0v41q68 0 110.5 29.5t124.5 130.5l373 458l-328 480q-57 82 -90 112q-70 59 -166 60v41h621v-41q-162 0 -162 -58q0 -43 45 -108l219 -318l234 285q66 80 65 137q0 61 -133 62v41h482v-41q-152 0 -277 -158l-317 -399l374 -543q70 -102 116 -136t118 -34v-41h-602v41 q86 0 117.5 12.5t31.5 46.5q0 43 -57 127l-238 351l-286 -363q-53 -68 -54 -104q0 -70 152 -70v-41h-473z" />
<glyph unicode="&#x201a;" horiz-adv-x="991" d="M31 0v29q100 6 137 39q33 27 33 94v608q0 111 -170 119v29h483q371 0 371 -230q0 -174 -217 -205v-2q262 -49 262 -229q0 -252 -393 -252h-506zM375 125q0 -41 21.5 -57.5t92.5 -16.5q250 0 250 205q0 197 -295 197h-69v-328zM375 508h114q222 0 222 172q0 182 -252 184 q-84 0 -84 -43v-313z" />
<glyph unicode="&#x201c;" horiz-adv-x="1257" d="M37 1004l12 348h1155l13 -348h-50q-59 195 -117.5 230.5t-318.5 35.5v-1098q0 -131 193 -131v-41h-594v41q193 0 192 131v1098q-260 0 -318.5 -36t-117.5 -230h-49z" />
<glyph unicode="&#x201d;" horiz-adv-x="1421" d="M39 1313v39h573v-39q-145 0 -145 -58q0 -55 35 -120l262 -492l268 506q39 74 35 125q-4 39 -135 39v39h448v-39q-119 -16 -149 -33q-47 -27 -101 -127l-481 -920q-78 -147 -117 -190q-68 -72 -182 -72q-150 0 -149 119q0 47 33.5 77t72.5 30q47 0 89 -19.5t77 -19.5 q41 0 94 104l90 176l-360 692q-51 98 -98 136q-57 45 -160 47z" />
<glyph unicode="&#x201e;" horiz-adv-x="880" d="M31 0v29q72 10 97.5 39.5t25.5 99.5v582q0 70 -26 99.5t-97 39.5v29h780l10 -281h-37q-57 195 -125 194h-272q-61 0 -61 -61v-602q0 -70 25.5 -99.5t97.5 -39.5v-29h-418z" />
<glyph unicode="&#x2022;" horiz-adv-x="1249" d="M37 0v41q180 0 180 131v1008q0 131 -180 131v41h684q223 0 315 78q61 51 101 194h51l-49 -356h-713v-1096q0 -131 180 -131v-41h-569z" />
<glyph unicode="&#x2026;" horiz-adv-x="1474" d="M37 0v41q180 0 180 131v1008q0 131 -180 131v41h569v-41q-180 0 -180 -131v-861l621 828v33q0 131 -181 131v41h570v-41q-180 0 -181 -131v-1008q0 -131 181 -131v-41h-570v41q180 0 181 131v860l-621 -827v-33q0 -131 180 -131v-41h-569zM440 1634q0 100 103 101 q102 0 102 -101q0 -88 -110 -88q68 -88 200 -88q131 0 191 88q-113 0 -113 88q0 41 28.5 71t73.5 30q47 0 75 -30t28 -71q0 -82 -74 -149q-84 -76 -209 -76q-135 0 -219 74q-76 63 -76 151z" />
<glyph unicode="&#x202f;" horiz-adv-x="367" />
<glyph unicode="&#x2039;" horiz-adv-x="1220" d="M37 0v41q178 0 178 131v1008q0 131 -178 131v41h579v-41q-193 0 -192 -131v-420q39 6 127 6q266 0 412 -96q155 -104 155 -305q0 -176 -151 -275q-137 -90 -351 -90h-579zM424 172q0 -74 13.5 -86t86.5 -12q367 0 367 297q0 170 -103 252q-94 74 -251 61q-70 2 -113 -8 v-504z" />
<glyph unicode="&#x203a;" horiz-adv-x="1343" d="M25 231l41 41q203 -203 452 -202q207 0 344 133q154 152 166 428h-551v88h553q-10 240 -125 397q-133 184 -366 184q-330 0 -439 -374h-49l17 458h43q4 -27 31.5 -46t54.5 -19q14 0 133 33.5t227 33.5q315 0 518 -208q197 -203 197 -498q0 -328 -203 -522 q-195 -186 -502 -187q-186 0 -325 80q-90 51 -217 180z" />
<glyph unicode="&#x205f;" horiz-adv-x="459" />
<glyph unicode="&#x2122;" horiz-adv-x="1355" d="M70 680q0 295 199.5 500.5t514.5 205.5q109 0 227.5 -33.5t133.5 -33.5q27 0 54.5 19.5t31.5 45.5h43l16 -458h-49q-109 375 -438 374q-233 0 -367 -184q-115 -158 -125 -397h553v-88h-551q12 -276 166 -428q137 -133 344 -133q250 0 453 202l41 -41q-127 -129 -217 -180 q-139 -80 -326 -80q-307 0 -502 187q-203 195 -202 522z" />
<glyph unicode="&#x25fc;" horiz-adv-x="921" d="M0 0v922h922v-922h-922z" />
</font>
</defs>
</svg>
